<svg width="57" height="77" viewBox="0 0 57 77" fill="none" xmlns="http://www.w3.org/2000/svg">
<path d="M4.69583 17.8255C4.7015 17.8197 4.70719 17.814 4.71289 17.8083L17.7129 4.97852C18.2012 4.49977 18.7698 4.11038 19.3928 3.82837C20.1345 3.49326 20.939 3.31942 21.7529 3.31836H43.043C45.9604 3.31836 48.7581 4.47738 50.821 6.54028C52.8839 8.60318 54.043 11.401 54.043 14.3184V27.2585L54.093 62.5884C54.0934 63.7179 53.9214 64.8409 53.583 65.9185C52.872 68.1348 51.4763 70.0686 49.5967 71.4414C47.7171 72.8143 45.4506 73.5553 43.123 73.5583H13.9929C11.0755 73.5583 8.27774 72.3996 6.21484 70.3367C4.15194 68.2738 2.99292 65.4757 2.99292 62.5583V21.9084C2.99967 21.0755 3.18362 20.262 3.52363 19.5186M4.69583 17.8255C4.20366 18.3208 3.80877 18.8951 3.52363 19.5186M4.69583 17.8255L4.69287 17.8284C4.19854 18.314 3.79852 18.8872 3.51294 19.5186H3.52363M4.69583 17.8255L17.6929 4.99854C18.191 4.52044 18.7699 4.13433 19.4028 3.8584V12.1584C19.4028 14.1104 18.6276 15.9825 17.2473 17.3628C15.867 18.7431 13.995 19.5186 12.043 19.5186H3.52363M29.2429 32.8184V40.5484M29.2429 40.5484V48.2684M29.2429 40.5484H36.9629M29.2429 40.5484H21.5129" stroke="#E95322" stroke-width="5" stroke-linecap="round" stroke-linejoin="round"/>
</svg>
