<svg width="55" height="38" viewBox="0 0 55 38" fill="none" xmlns="http://www.w3.org/2000/svg">
<path d="M51.9084 19.156H24.7385V7.08593C24.7381 6.38409 24.5418 5.69639 24.1716 5.10009C23.8015 4.5038 23.2721 4.02272 22.6433 3.71093C22.0145 3.39914 21.3113 3.26892 20.6125 3.3352C19.9138 3.40147 19.2472 3.66147 18.6882 4.08593L6.29858 13.4961C5.42437 14.1582 4.71542 15.0136 4.22729 15.9956C3.73917 16.9776 3.48511 18.0594 3.48511 19.156C3.48511 20.2526 3.73917 21.3344 4.22729 22.3164C4.71542 23.2984 5.42437 24.1538 6.29858 24.8159L18.6882 34.2261C19.2472 34.6505 19.9138 34.9105 20.6125 34.9768C21.3113 35.0431 22.0145 34.9129 22.6433 34.6011C23.2721 34.2893 23.8015 33.8082 24.1716 33.2119C24.5418 32.6156 24.7381 31.9279 24.7385 31.2261V28.656" stroke="#E95322" stroke-width="5" stroke-linecap="round" stroke-linejoin="round"/>
</svg>
