<svg width="76" height="75" viewBox="0 0 76 75" fill="none" xmlns="http://www.w3.org/2000/svg">
<path d="M50.943 37.5839H28.883M37.6432 27.9639L31.2531 32.814C30.5173 33.3737 29.9209 34.096 29.5104 34.9243C29.0998 35.7526 28.8864 36.6644 28.8864 37.5889C28.8864 38.5133 29.0998 39.4254 29.5104 40.2537C29.9209 41.082 30.5173 41.8042 31.2531 42.364L37.6432 47.2139M38.353 3.35399C38.353 3.35399 14.1831 1.5738 5.70305 23.9138C2.39342 32.7301 2.39342 42.4476 5.70305 51.2639C14.1831 73.6039 38.353 71.824 38.353 71.824C38.353 71.824 62.5229 73.6039 71.0029 51.2639C74.3125 42.4476 74.3125 32.7301 71.0029 23.9138C62.4829 1.5338 38.353 3.35399 38.353 3.35399Z" stroke="#E95322" stroke-width="5" stroke-linecap="round" stroke-linejoin="round"/>
</svg>
