<svg width="86" height="83" viewBox="0 0 86 83" fill="none" xmlns="http://www.w3.org/2000/svg">
<path d="M24.6991 64.1298C22.3138 62.2014 20.7903 59.4061 20.4623 56.3564C20.1342 53.3067 21.0285 50.2514 22.9491 47.8598L22.7789 48.0698L44.619 20.9399C46.5505 18.5592 49.3453 17.039 52.3934 16.7111C55.4415 16.3833 58.4954 17.2744 60.889 19.1899C63.2712 21.12 64.7932 23.914 65.1229 26.9621C65.4526 30.0103 64.5634 33.0651 62.649 35.4599L45.129 57.2698C43.9809 58.674 42.3242 59.5671 40.5201 59.7545C38.7161 59.9418 36.9112 59.4081 35.4991 58.2698C34.0927 57.1233 33.1978 55.4663 33.0103 53.6614C32.8229 51.8566 33.3583 50.051 34.4991 48.64L49.2889 30.2698C49.9299 29.4769 50.8588 28.97 51.8724 28.8594C52.886 28.7489 53.9022 29.0439 54.6991 29.68C55.4897 30.3225 55.9951 31.2509 56.1056 32.2637C56.216 33.2766 55.9225 34.292 55.2889 35.0899L46.0091 46.6099M42.7987 80.2799C42.7987 80.2799 70.2087 82.2801 79.7987 56.9701C83.5412 46.9756 83.5412 35.9645 79.7987 25.9701C70.1787 0.640078 42.7987 2.65001 42.7987 2.65001C42.7987 2.65001 15.3887 0.650078 5.79874 25.9701C2.04625 35.9627 2.04625 46.9774 5.79874 56.9701C15.3887 82.3001 42.7987 80.2799 42.7987 80.2799Z" stroke="#E95322" stroke-width="5" stroke-linecap="round" stroke-linejoin="round"/>
</svg>
