<svg width="56" height="48" viewBox="0 0 56 48" fill="none" xmlns="http://www.w3.org/2000/svg">
<path d="M47.8408 37.8137C49.6359 36.0236 51.0601 33.8969 52.0319 31.5554C53.0036 29.214 53.5039 26.7038 53.5039 24.1687C53.5039 21.6336 53.0036 19.1234 52.0319 16.782C51.0601 14.4405 49.6359 12.3138 47.8408 10.5237M26.5208 44.0537C27.26 44.6571 28.1464 45.053 29.0891 45.2009C30.0318 45.3488 30.9969 45.2433 31.8854 44.8953C32.7739 44.5472 33.5539 43.9691 34.1453 43.2202C34.7367 42.4713 35.1181 41.5788 35.2507 40.6338C35.9112 35.1691 36.2252 29.6681 36.1908 24.1638C36.2297 18.6693 35.9157 13.1779 35.2507 7.72363C35.1177 6.77771 34.7352 5.88441 34.1426 5.13525C33.5499 4.38609 32.7686 3.80813 31.8787 3.46093C30.9888 3.11373 30.0225 3.0098 29.0791 3.15966C28.1357 3.30953 27.2492 3.70783 26.5107 4.31371L13.8707 14.6638C12.0244 16.171 9.71419 16.9939 7.33081 16.9936H4.33081C3.33081 16.9936 2.56079 20.2038 2.56079 24.1638V24.2937C2.56079 28.2437 3.35081 31.4536 4.33081 31.4536H7.33081C9.70132 31.4554 11.9994 32.2709 13.8408 33.7637L26.5208 44.0537Z" stroke="#E95322" stroke-width="5" stroke-linecap="round" stroke-linejoin="round"/>
</svg>
