<svg width="49" height="54" viewBox="0 0 49 54" fill="none" xmlns="http://www.w3.org/2000/svg">
<path d="M46.2939 3.24746L8.35389 51.1375M25.0339 42.2476L25.4739 42.6074C26.4219 43.3689 27.5571 43.8618 28.7607 44.0347C29.9644 44.2075 31.1923 44.054 32.3163 43.5901C33.4403 43.1262 34.4192 42.3689 35.1505 41.3975C35.8819 40.426 36.3389 39.2758 36.4739 38.0674C36.882 33.9637 37.0723 29.8414 37.0439 25.7175M36.8639 15.1476C36.7439 12.8676 36.5839 11.0676 36.3839 9.14757C36.2536 7.9366 35.7995 6.78303 35.0693 5.80822C34.3391 4.83341 33.3599 4.07332 32.2344 3.60778C31.1089 3.14224 29.8788 2.98855 28.6733 3.16271C27.4679 3.33688 26.3316 3.83245 25.3839 4.59753L13.0939 14.6576C11.8792 15.647 10.3606 16.1874 8.79395 16.1876H4.32385C3.32385 16.1876 2.50391 19.4875 2.50391 23.5575V23.6876C2.50391 27.7576 3.31385 31.0575 4.32385 31.0575H8.80383C10.3632 31.0545 11.8756 31.5917 13.0839 32.5775L19.1938 37.5775" stroke="#E95322" stroke-width="5" stroke-linecap="round" stroke-linejoin="round"/>
</svg>
