<svg width="76" height="75" viewBox="0 0 76 75" fill="none" xmlns="http://www.w3.org/2000/svg">
<path d="M43.3689 23.342L33.8088 30.6621C32.6514 31.5511 31.7138 32.6943 31.0686 34.0034C30.4234 35.3126 30.0876 36.7527 30.0876 38.2122C30.0876 39.6717 30.4234 41.1115 31.0686 42.4207C31.7138 43.7298 32.6514 44.8729 33.8088 45.762L43.3689 53.072M38.0491 3.35199C38.0491 3.35199 13.8787 1.57204 5.39871 23.912C2.07836 32.7298 2.07836 42.4541 5.39871 51.2719C13.8787 73.6019 38.0491 71.832 38.0491 71.832C38.0491 71.832 62.209 73.6019 70.699 51.2719C74.0093 42.4523 74.0093 32.7317 70.699 23.912C62.209 1.61205 38.0491 3.35199 38.0491 3.35199Z" stroke="#E95322" stroke-width="5" stroke-linecap="round" stroke-linejoin="round"/>
</svg>
