<svg width="53" height="61" viewBox="0 0 53 61" fill="none" xmlns="http://www.w3.org/2000/svg">
<path d="M16.3406 25.4224V12.7725C16.3485 10.082 17.42 7.50371 19.3215 5.60034C21.223 3.69697 23.8003 2.62285 26.4907 2.6123C29.1829 2.62022 31.7624 3.69327 33.666 5.59692C35.5697 7.50058 36.6427 10.0803 36.6506 12.7725V25.4224M50.3305 47.8424L47.2707 25.1825C46.9808 23.314 46.0238 21.6139 44.5768 20.3968C43.1299 19.1797 41.291 18.5279 39.4006 18.5623H13.5905C11.7 18.5279 9.86116 19.1797 8.41423 20.3968C6.96729 21.6139 6.01045 23.314 5.72062 25.1825L2.66056 47.8424C2.51728 49.1427 2.65428 50.4587 3.06217 51.7017C3.47006 52.9447 4.13943 54.086 5.02531 55.0487C5.91119 56.0113 6.99301 56.7728 8.19792 57.2823C9.40283 57.7918 10.7029 58.0375 12.0107 58.0025H41.0107C42.3159 58.0332 43.6126 57.7845 44.8139 57.273C46.0152 56.7616 47.0932 55.9991 47.9757 55.0369C48.8583 54.0748 49.5249 52.9352 49.9311 51.6944C50.3372 50.4536 50.4734 49.1401 50.3305 47.8424Z" stroke="#E95322" stroke-width="5" stroke-linecap="round" stroke-linejoin="round"/>
</svg>
