<svg width="69" height="64" viewBox="0 0 69 64" fill="none" xmlns="http://www.w3.org/2000/svg">
<path d="M13.7703 2.6123V15.2023M26.3003 2.6123V15.2023M41.9503 2.6123V15.2023M54.4803 2.6123V15.2023M10.7503 26.4423H57.5003M32.7304 7.00235C25.8504 7.00235 18.39 7.78224 12.41 11.1322C4.72004 15.4522 2.83023 24.3724 2.61023 32.0224C2.38023 39.8924 2.53027 49.8322 9.90027 55.1322C16.4903 59.8622 25.7603 60.9323 33.9003 60.9523C46.2903 60.9523 62.2203 58.5624 64.6303 45.2824C66.1003 37.2224 66.8603 24.3522 61.9003 17.1322C57.4703 10.7022 48.5701 8.13227 40.7601 7.41227C38.2801 7.20227 35.5604 7.00235 32.7304 7.00235Z" stroke="#E95322" stroke-width="5" stroke-linecap="round" stroke-linejoin="round"/>
</svg>
