<svg width="54" height="61" viewBox="0 0 54 61" fill="none" xmlns="http://www.w3.org/2000/svg">
<path d="M39.6224 9.82656L51.3624 21.5666M51.3024 9.76656L39.5624 21.5066M43.7324 37.8865C43.1873 37.4239 42.5687 37.0557 41.9023 36.7966C38.1923 35.4266 35.1424 38.4166 31.6924 37.7966C28.0024 37.1066 24.9023 33.4267 23.1623 30.3367C22.1551 28.7217 21.7977 26.7846 22.1623 24.9165C23.2823 20.4865 26.7323 18.6267 25.4023 13.5667C24.4023 9.86665 20.5124 4.40649 16.6324 3.39649C9.69244 1.58649 5.98243 8.22653 4.50243 13.9365C-0.707569 33.9365 13.8623 55.2065 34.2923 57.9365C40.2923 58.7365 49.4224 58.0866 49.9324 50.2366C50.2224 45.7466 47.6024 41.5367 44.4624 38.5967C44.2524 38.3267 43.9924 38.0965 43.7324 37.8865Z" stroke="#E95322" stroke-width="5" stroke-linecap="round" stroke-linejoin="round"/>
</svg>
