<svg width="88" height="80" viewBox="0 0 88 80" fill="none" xmlns="http://www.w3.org/2000/svg">
<path d="M3.09481 57.4429H26.5609M60.6303 57.4429H84.0835M71.2337 27.1219H67.4467M14.0191 17.8792V9.70206M83.4673 31.6534L83.3647 31.5635C82.5832 28.541 81.1824 25.7137 79.2511 23.2609C77.3198 20.808 74.9 18.7831 72.1452 17.3144C69.1757 15.8164 66.0324 14.6911 62.7869 13.964L62.6329 12.9113C62.5882 11.652 62.341 10.408 61.9011 9.22711C61.4511 8.08094 60.7597 7.0451 59.8737 6.19007C58.9876 5.33504 57.9278 4.68085 56.7663 4.272C52.8193 2.95225 48.6655 2.36071 44.507 2.52619H42.8125C38.654 2.36071 34.5002 2.95225 30.5532 4.272C29.3905 4.67859 28.3295 5.33197 27.4432 6.18729C26.5568 7.04261 25.8661 8.07963 25.4184 9.22711C24.9903 10.3441 24.7474 11.5235 24.6995 12.7188L24.3657 14.0025C21.1751 14.7305 18.0846 15.8426 15.1617 17.3144C12.4087 18.7856 9.99033 20.8113 8.0593 23.2638C6.12827 25.7162 4.72647 28.5422 3.94212 31.5635L3.85217 31.6534C2.60265 36.1685 2.0528 40.8484 2.22185 45.5302C1.99715 50.4625 2.58698 55.3982 3.96766 60.1387C7.11273 71.7819 20.014 76.0566 33.0435 77.3659H33.403L34.7893 77.4943L35.8549 77.5713H36.5096L37.7162 77.6484H38.1014L40.3479 77.7382H47.1001L49.3466 77.6484H49.7188L51.0025 77.5713H51.6572L52.7099 77.4943L54.0962 77.3659H54.4557C67.4981 76.0822 80.3994 71.7819 83.5316 60.1387C84.9166 55.3989 85.5108 50.4632 85.2902 45.5302C85.3907 40.8389 84.7759 36.1596 83.4673 31.6534ZM43.5956 65.2606C43.5956 65.2606 57.896 66.3133 62.8511 53.0912C64.8146 47.874 64.8146 42.1209 62.8511 36.9037C57.8319 23.6816 43.5956 24.7342 43.5956 24.7342C43.5956 24.7342 29.2952 23.6816 24.3401 36.9037C22.3766 42.1209 22.3766 47.874 24.3401 53.0912C29.2952 66.3133 43.5956 65.2606 43.5956 65.2606ZM43.5957 52.3851C43.5957 52.3851 48.8075 52.7703 50.6432 47.9564C51.3491 46.0513 51.3491 43.9564 50.6432 42.0513C48.8075 37.2246 43.5957 37.6097 43.5957 37.6097C43.5957 37.6097 38.3837 37.2246 36.548 42.0513C35.8294 43.9541 35.8294 46.0536 36.548 47.9564C38.3837 52.7703 43.5957 52.3851 43.5957 52.3851Z" stroke="#E95322" stroke-width="4.36703" stroke-linecap="round" stroke-linejoin="round"/>
</svg>
