<svg width="75" height="54" viewBox="0 0 75 54" fill="none" xmlns="http://www.w3.org/2000/svg">
<path d="M2.7832 38.7834V39.9333C2.78585 42.7456 3.90481 45.4418 5.89429 47.4294C7.88376 49.417 10.5811 50.5334 13.3933 50.5334H61.3933C64.2055 50.5334 66.9026 49.417 68.8921 47.4294C70.8816 45.4418 72.0005 42.7456 72.0032 39.9333V13.7734C72.0032 12.3801 71.7288 11.0004 71.1956 9.71313C70.6624 8.42587 69.8807 7.25623 68.8955 6.271C67.9103 5.28577 66.7406 4.50415 65.4534 3.97095C64.1661 3.43774 62.7866 3.16333 61.3933 3.16333H13.3933C12 3.16333 10.6203 3.43774 9.33301 3.97095C8.04574 4.50415 6.8761 5.28577 5.89087 6.271C4.90564 7.25623 4.12402 8.42587 3.59082 9.71313C3.05762 11.0004 2.7832 12.3801 2.7832 13.7734V38.6533M2.8032 14.5934H71.9732M12.5132 27.4234H18.2532M12.5132 37.3534H26.3932M44.4732 37.3534H50.1632M57.3032 37.3534H62.9932" stroke="#E95322" stroke-width="5" stroke-linecap="round" stroke-linejoin="round"/>
</svg>
