<svg width="62" height="63" viewBox="0 0 62 63" fill="none" xmlns="http://www.w3.org/2000/svg">
<path d="M16.1653 37.4622C16.4526 38.7077 17.1648 39.8144 18.1794 40.5918C19.1941 41.3693 20.4479 41.7689 21.7253 41.7222H50.3953C51.6714 41.7684 52.9238 41.3684 53.9368 40.5909C54.9498 39.8133 55.6603 38.7069 55.9456 37.4622L58.4456 20.2923C58.6146 19.4189 58.5871 18.5188 58.3655 17.6573C58.1439 16.7957 57.7333 15.9942 57.1638 15.3108C56.5943 14.6274 55.88 14.0792 55.0725 13.7059C54.2651 13.3325 53.3849 13.1436 52.4954 13.1524H12.3552M16.1653 37.4622L12.3552 13.1524M16.1653 37.4622C16.1653 37.4622 17.3454 50.4021 30.2654 50.9421H53.4055M12.3552 13.1524L11.2351 6.02222C11.0579 5.06613 10.5523 4.20202 9.80542 3.57935C9.05858 2.95667 8.11763 2.61467 7.14526 2.6123H3.3855M27.8853 55.7122C27.8853 58.3522 25.7452 60.4922 23.1053 60.4922C20.4654 60.4922 18.3253 58.3522 18.3253 55.7122C18.3253 53.0723 20.4654 50.9322 23.1053 50.9322C25.7452 50.9322 27.8853 53.0723 27.8853 55.7122ZM58.1853 55.7122C58.1853 58.3522 56.0452 60.4922 53.4053 60.4922C50.7654 60.4922 48.6253 58.3522 48.6253 55.7122C48.6253 53.0723 50.7654 50.9322 53.4053 50.9322C56.0452 50.9322 58.1853 53.0723 58.1853 55.7122Z" stroke="#E95322" stroke-width="5" stroke-linecap="round" stroke-linejoin="round"/>
</svg>
