<svg width="74" height="76" viewBox="0 0 74 76" fill="none" xmlns="http://www.w3.org/2000/svg">
<path d="M36.8076 50.8057L36.8076 28.7557M46.4275 37.5156L41.5876 31.1255C41.0279 30.3898 40.3056 29.7934 39.4773 29.3828C38.649 28.9722 37.737 28.7588 36.8125 28.7588C35.888 28.7588 34.9762 28.9722 34.1479 29.3828C33.3197 29.7934 32.5974 30.3898 32.0376 31.1255L27.1875 37.5156M71.0476 38.2258C71.0476 38.2258 72.8275 14.0558 50.4875 5.57585C41.6679 2.26553 31.947 2.26553 23.1274 5.57585C0.797387 14.0559 2.56757 38.2258 2.56757 38.2258C2.56757 38.2258 0.79739 62.3957 23.1274 70.8757C31.947 74.186 41.6679 74.186 50.4875 70.8757C72.8275 62.3957 71.0476 38.2258 71.0476 38.2258Z" stroke="#E95322" stroke-width="5" stroke-linecap="round" stroke-linejoin="round"/>
</svg>
