<svg width="82" height="69" viewBox="0 0 82 69" fill="none" xmlns="http://www.w3.org/2000/svg">
<path d="M61.143 51.0184C62.913 50.9084 64.683 50.7784 66.443 50.6284C73.333 50.0384 78.993 46.4584 78.993 38.8884C78.993 35.5705 77.675 32.3885 75.3289 30.0424C72.9828 27.6963 69.8009 26.3784 66.483 26.3784H65.793C66.2519 24.9259 66.4846 23.4116 66.483 21.8884C66.483 17.9101 64.9026 14.0948 62.0896 11.2818C59.2765 8.46875 55.4612 6.88836 51.483 6.88836C49.1931 6.89137 46.9348 7.4218 44.883 8.43841C43.3351 6.81504 41.4729 5.52386 39.4098 4.64361C37.3467 3.76336 35.126 3.31248 32.883 3.31842C29.0501 3.32358 25.3375 4.65644 22.3766 7.09039C19.4158 9.52433 17.3897 12.909 16.643 16.6684C12.881 17.4136 9.49406 19.4407 7.0596 22.404C4.62514 25.3673 3.29392 29.0833 3.29297 32.9184C3.29297 45.5684 10.783 53.3184 25.683 50.5484M48.163 46.3683V65.9983M54.773 59.6583L51.1029 64.4884C50.7588 64.9421 50.3143 65.31 49.8042 65.5633C49.2942 65.8166 48.7325 65.9483 48.163 65.9483C47.5935 65.9483 47.0317 65.8166 46.5216 65.5633C46.0116 65.31 45.5671 64.9421 45.2229 64.4884L41.5629 59.6583M32.883 57.2383V37.3183M26.243 43.8983L30.243 38.5982C30.5462 38.2003 30.9373 37.8777 31.3857 37.6556C31.834 37.4336 32.3276 37.3182 32.8279 37.3182C33.3283 37.3182 33.8219 37.4336 34.2703 37.6556C34.7187 37.8777 35.1097 38.2003 35.413 38.5982L39.413 43.8983" stroke="#E95322" stroke-width="5" stroke-linecap="round" stroke-linejoin="round"/>
</svg>
