<svg width="81" height="71" viewBox="0 0 81 71" fill="none" xmlns="http://www.w3.org/2000/svg">
<path d="M4.55561 43.9933H76.5852M36.6881 58.4833V67.6133M44.4181 58.4833V67.6133M26.7381 67.6133H54.3581M38.8782 3.16333C30.6582 3.16333 21.7282 3.96332 14.5782 7.40332C5.38816 11.8233 3.12819 20.9732 2.85819 28.8232C2.57819 36.8932 2.75816 47.0832 11.5782 52.5132C19.4582 57.3632 30.5781 58.4632 40.2381 58.5132C55.0581 58.5132 74.1081 56.0634 76.9981 42.4434C78.7481 34.1834 79.6681 20.9833 73.7281 13.5833C68.4281 6.98325 57.788 4.39325 48.448 3.58325C45.518 3.33325 42.2982 3.16333 38.8782 3.16333Z" stroke="#E95322" stroke-width="5" stroke-linecap="round" stroke-linejoin="round"/>
</svg>
