<svg width="71" height="88" viewBox="0 0 71 88" fill="none" xmlns="http://www.w3.org/2000/svg">
<path d="M51.8339 40.9773C51.2783 48.1024 49.2494 56.4172 47.8667 63.4656C47.0009 68.0067 45.6699 72.5734 46.1093 77.1786C46.4324 80.7219 48.2286 85.455 54.1471 85.4933C55.7062 85.5458 57.2494 85.1694 58.6054 84.406C59.9482 83.4685 60.9425 82.1201 61.4353 80.5684C62.1666 78.4261 62.4309 76.1546 62.2107 73.9038C61.8282 70.3955 61.2283 66.9138 60.4145 63.4783C59.1222 56.43 57.0029 48.064 56.4473 40.9389M14.2555 42.6786C13.7128 49.6246 11.671 57.1463 10.3788 64.0284C9.52591 68.4544 8.22071 72.8932 8.64715 77.3832C8.97021 80.8371 10.7276 85.455 16.5298 85.4933C18.0614 85.55 19.5786 85.1823 20.9106 84.4316C22.2297 83.5206 23.2068 82.2026 23.6889 80.6836C24.4087 78.5961 24.6686 76.3804 24.4513 74.1852C24.0784 70.766 23.4871 67.3736 22.6809 64.0284C21.3887 57.1463 19.334 49.6246 18.8042 42.6786M3 5.44117V29.4901C3.01021 33.0369 4.43716 36.4357 6.96949 38.9448C9.50183 41.454 12.934 42.8698 16.5169 42.8833C20.1021 42.8732 23.5375 41.4588 26.0726 38.9493C28.6078 36.4398 30.0365 33.0391 30.0467 29.4901V5.44117M11.994 5.44118V22.4289M21.2207 5.44118V22.4289M68 21.8405C68 32.5225 61.7979 41.1819 54.1471 41.1819C46.4964 41.1819 40.2942 32.5225 40.2942 21.8405C40.2942 11.1585 46.4964 2.49902 54.1471 2.49902C61.7979 2.49902 68 11.1585 68 21.8405Z" stroke="#E95322" stroke-width="5" stroke-linecap="round" stroke-linejoin="round"/>
</svg>
