<svg width="75" height="71" viewBox="0 0 75 71" fill="none" xmlns="http://www.w3.org/2000/svg">
<path d="M60.78 56.5636C62.1127 56.3947 63.464 56.6632 64.6309 57.3287C65.7977 57.9942 66.7169 59.0206 67.25 60.2536C67.9024 61.76 67.9297 63.4639 67.3258 64.9904C66.722 66.517 65.5364 67.7411 64.03 68.3936C63.2836 68.7181 62.4804 68.8923 61.6666 68.9061C60.8527 68.9199 60.0442 68.773 59.2872 68.474C58.5302 68.1749 57.8395 67.7294 57.2549 67.1631C56.6703 66.5968 56.203 65.9207 55.88 65.1736C55.5189 64.3486 55.3434 63.4544 55.3659 62.5541C55.3883 61.6538 55.6082 60.7695 56.01 59.9636M29.21 59.9836H56.05M35.01 52.0136C34.124 50.8551 32.9871 49.9124 31.6847 49.256C30.3824 48.5996 28.9482 48.2466 27.49 48.2236C21.84 48.2236 17.25 53.4836 17.25 59.9736V60.6136H23.25M72.33 61.2436C72.3274 58.3889 71.1915 55.6521 69.172 53.6345C67.1525 51.6169 64.4146 50.4836 61.56 50.4836M35.11 60.6136C35.3068 61.2381 35.408 61.8888 35.41 62.5436C35.41 64.1862 34.7581 65.7616 33.5976 66.9241C32.437 68.0865 30.8626 68.7409 29.22 68.7436C27.5757 68.7436 25.9987 68.0904 24.8359 66.9276C23.6732 65.7649 23.02 64.1879 23.02 62.5436C23.0205 61.8879 23.1251 61.2364 23.33 60.6136M65.5 51.2301L60.14 31.2636C60.14 31.2636 65.06 31.1536 63.68 24.3736M19.26 53.0736V42.4136C19.2521 41.9741 19.3309 41.5374 19.4921 41.1285C19.6533 40.7196 19.8936 40.3465 20.1992 40.0306C20.5049 39.7147 20.8698 39.4623 21.2732 39.2878C21.6766 39.1133 22.1105 39.0201 22.55 39.0136H30.61C31.2549 39.0057 31.8935 39.1426 32.4784 39.4144C33.0634 39.6861 33.58 40.0856 33.99 40.5836C35.11 41.9736 42.06 52.2536 42.06 52.2536H51.86C52.3675 52.2454 52.868 52.1337 53.3308 51.9254C53.7936 51.717 54.2091 51.4165 54.5517 51.042C54.8943 50.6676 55.1569 50.2271 55.3234 49.7477C55.4899 49.2682 55.5568 48.7598 55.52 48.2536L53.05 28.2536C53.0148 27.9447 53.0452 27.632 53.1391 27.3357C53.2331 27.0394 53.3885 26.7662 53.5951 26.5341C53.8018 26.3019 54.0552 26.116 54.3386 25.9884C54.622 25.8608 54.9291 25.7944 55.24 25.7936H57.24M52.42 21.3636H49.69M44.82 52.2536V42.5636C44.82 40.044 43.8191 37.6276 42.0375 35.8461C40.2559 34.0645 37.8396 33.0636 35.32 33.0636H26.17M15.64 68.9136H29.21M43.46 68.9136H60.8M11.63 54.4236H17.91M2 44.8836H11.04M44.35 12.7836C43.5879 13.494 42.6539 13.9937 41.64 14.2336C40.1054 14.58 38.4961 14.3098 37.1588 13.4812C35.8214 12.6526 34.863 11.3319 34.4899 9.80355C34.1432 8.27033 34.412 6.66226 35.2386 5.32518C36.0652 3.98809 37.3835 3.02879 38.91 2.65356C39.6913 2.47273 40.5009 2.45034 41.291 2.58775C42.0811 2.72516 42.8356 3.01957 43.51 3.45356C44.2796 3.92615 44.9162 4.5869 45.3599 5.37356C45.7499 6.12356 45.91 7.05356 46.6 7.60356C47.71 8.49356 49.36 7.96356 50.49 7.40356M42.18 26.7036L38.9 33.7736M51.67 21.3236H49.34C48.6777 21.3248 48.0318 21.1179 47.4935 20.7321C46.9551 20.3463 46.5517 19.8011 46.34 19.1736C45.8998 18.1655 45.2449 17.2656 44.4211 16.5368C43.5972 15.8079 42.6242 15.2676 41.57 14.9536C38.7835 13.8447 35.686 13.802 32.87 14.8336C30.5763 15.7462 28.6662 17.4198 27.46 19.5736C26.5815 21.1551 26.1203 22.9344 26.12 24.7436V33.0336H35.01M39.48 21.3236C39.48 21.3236 40.93 31.8136 53.03 28.5036M46.42 7.45357C46.42 7.45357 40.16 9.33356 34.92 5.86356M15.2 21.8536H23.92C24.5167 21.8536 25.089 22.0906 25.511 22.5126C25.9329 22.9345 26.17 23.5068 26.17 24.1036V36.7636C26.17 37.3603 25.9329 37.9326 25.511 38.3546C25.089 38.7765 24.5167 39.0136 23.92 39.0136H8.77C8.17326 39.0136 7.60097 38.7765 7.17901 38.3546C6.75705 37.9326 6.52 37.3603 6.52 36.7636V30.5036C6.52794 28.2067 7.44594 26.0066 9.0729 24.3853C10.6999 22.7639 12.9031 21.8535 15.2 21.8536Z" stroke="#E95322" stroke-width="4" stroke-linecap="round" stroke-linejoin="round"/>
</svg>
