<svg width="74" height="76" viewBox="0 0 74 76" fill="none" xmlns="http://www.w3.org/2000/svg">
<path d="M51.196 43.5652L43.8762 34.0151C42.9894 32.856 41.8473 31.9167 40.5388 31.2703C39.2303 30.6238 37.7907 30.2876 36.3313 30.2876C34.8719 30.2876 33.4318 30.6238 32.1233 31.2703C30.8148 31.9167 29.6727 32.856 28.7859 34.0151L21.4661 43.5652M71.1862 38.2252C71.1862 38.2252 72.9662 14.0552 50.6262 5.57525C41.8099 2.26561 32.0923 2.26561 23.2761 5.57525C0.936058 14.0552 2.716 38.2252 2.716 38.2252C2.716 38.2252 0.936058 62.3951 23.2761 70.8751C32.0923 74.1847 41.8099 74.1847 50.6262 70.8751C72.9662 62.3951 71.1862 38.2252 71.1862 38.2252Z" stroke="#E95322" stroke-width="5" stroke-linecap="round" stroke-linejoin="round"/>
</svg>
