<svg width="52" height="68" viewBox="0 0 52 68" fill="none" xmlns="http://www.w3.org/2000/svg">
<path d="M51.9923 37.0189C51.7807 34.5843 50.6869 32.3186 48.9258 30.667C47.1647 29.0154 44.8636 28.0973 42.4746 28.0929H41.6267C40.0998 28.2274 38.6269 28.7362 37.3327 29.576C37.1034 29.7251 36.8261 29.7763 36.5603 29.7188C36.2945 29.6613 36.0612 29.4993 35.9105 29.2679C35.836 29.1512 35.7853 29.0199 35.7614 28.8826C35.7375 28.7453 35.7411 28.6045 35.7717 28.4687C35.8024 28.3328 35.8595 28.205 35.9398 28.0922C36.02 27.9795 36.1217 27.8844 36.2388 27.8128C37.8068 26.7751 39.6014 26.1506 41.4626 25.9943C40.4567 23.4473 38.8648 21.1863 36.8222 19.4033C34.7795 17.6204 32.3463 16.3677 29.7294 15.7526C29.543 16.1159 29.3133 16.4546 29.0457 16.7603L28.7448 17.0683L28.1431 17.5998L27.7055 17.8792L26.9944 18.2153L26.5842 18.3834C26.1471 18.5052 25.697 18.5705 25.244 18.5788C24.5936 18.5723 23.9513 18.4297 23.3569 18.1593C22.3749 17.7351 21.5443 17.0123 20.9774 16.0887C19.2801 16.6414 17.682 17.4727 16.2459 18.5508C15.3937 19.1661 14.6055 19.8693 13.8938 20.6494C12.4801 22.1611 11.3492 23.9254 10.5571 25.8543V25.9943C12.4174 26.1551 14.2109 26.7793 15.7809 27.8128C16.007 27.967 16.1652 28.2056 16.2214 28.4775C16.2776 28.7495 16.2275 29.0333 16.0818 29.2679C15.9311 29.4993 15.6979 29.6613 15.432 29.7188C15.1662 29.7763 14.8889 29.7251 14.6596 29.576C13.3673 28.7321 11.8935 28.223 10.3656 28.0929H9.51779C7.12873 28.0973 4.82762 29.0154 3.0665 30.667C1.30539 32.3186 0.211599 34.5843 0 37.0189C0 37.2987 0 37.6067 0 37.8865C0.000336516 39.798 0.552143 41.6667 1.58628 43.2587L1.7504 43.5388C1.98725 43.9157 2.24285 44.2797 2.5162 44.6298C3.17109 45.3897 3.90471 46.0746 4.70418 46.6724V45.9448C4.73757 45.1135 4.96323 44.3025 5.3626 43.5778C5.76197 42.853 6.32368 42.2352 7.00159 41.7756C7.71263 41.3433 8.52666 41.1206 9.3537 41.1321C10.6382 41.1883 11.8966 41.5223 13.0459 42.1117C14.2821 42.8463 15.6488 43.3219 17.0664 43.5108H17.504C18.9299 43.13 20.2261 42.3555 21.2509 41.2721C22.5843 39.9123 24.3509 39.0878 26.2286 38.9495H27.0492C28.7668 39.3334 30.3473 40.1956 31.6166 41.4402C32.6019 42.4283 33.8307 43.1244 35.1721 43.4548H35.6097C37.0263 43.2616 38.3922 42.7863 39.6301 42.0557C40.7685 41.4628 42.0187 41.1285 43.295 41.0761C44.123 41.0571 44.939 41.2803 45.6471 41.7196C46.3251 42.1792 46.8868 42.797 47.2861 43.5217C47.6855 44.2465 47.9112 45.0575 47.9446 45.8888C48.7924 44.8815 49.5309 43.9304 49.9138 43.3708L50.2146 42.9513C51.2275 41.3507 51.9601 39.6819 51.965 37.7751C51.965 37.7751 52.0197 37.4106 51.9923 37.0189ZM9.54515 36.4874L7.95884 37.9985C7.86456 38.0975 7.75186 38.1757 7.62738 38.2294C7.5029 38.2831 7.36917 38.3107 7.23407 38.3107C7.09897 38.3107 6.96523 38.2831 6.84076 38.2294C6.71628 38.1757 6.60358 38.0975 6.50929 37.9985C6.41253 37.9021 6.33563 37.7863 6.28312 37.659C6.23061 37.5316 6.20356 37.3948 6.20356 37.2566C6.20356 37.1184 6.23061 36.9816 6.28312 36.8542C6.33563 36.7269 6.41253 36.6119 6.50929 36.5154L8.0956 34.8923C8.29278 34.7054 8.55162 34.6019 8.82037 34.6019C9.08912 34.6019 9.34797 34.7054 9.54515 34.8923C9.65198 34.9944 9.73714 35.1178 9.79537 35.255C9.85361 35.3922 9.88368 35.5399 9.88368 35.6895C9.88368 35.8391 9.85361 35.9875 9.79537 36.1246C9.73714 36.2618 9.65198 36.3853 9.54515 36.4874ZM21.0321 34.7522L19.6646 36.0393C19.4675 36.2261 19.2086 36.3303 18.9399 36.3303C18.6711 36.3303 18.4123 36.2261 18.2151 36.0393C18.1183 35.9428 18.0414 35.8278 17.9889 35.7004C17.9364 35.5731 17.9094 35.4363 17.9094 35.298C17.9094 35.1598 17.9364 35.023 17.9889 34.8957C18.0414 34.7683 18.1183 34.6533 18.2151 34.5568L19.5826 33.1578C19.6769 33.0588 19.7896 32.9799 19.9141 32.9262C20.0385 32.8724 20.1723 32.8449 20.3074 32.8449C20.4425 32.8449 20.5762 32.8724 20.7007 32.9262C20.8252 32.9799 20.9379 33.0588 21.0321 33.1578C21.139 33.2599 21.2242 33.3833 21.2824 33.5205C21.3406 33.6577 21.3707 33.8054 21.3707 33.955C21.3707 34.1045 21.3406 34.2523 21.2824 34.3895C21.2242 34.5266 21.139 34.6501 21.0321 34.7522ZM21.3603 20.6494L20.3757 21.657C20.2815 21.756 20.1688 21.8349 20.0443 21.8886C19.9198 21.9423 19.7861 21.9699 19.651 21.9699C19.5159 21.9699 19.3821 21.9423 19.2577 21.8886C19.1332 21.8349 19.0205 21.756 18.9262 21.657C18.8294 21.5606 18.7525 21.4455 18.7 21.3182C18.6475 21.1908 18.6205 21.054 18.6205 20.9158C18.6205 20.7776 18.6475 20.6401 18.7 20.5128C18.7525 20.3854 18.8294 20.2704 18.9262 20.1739L19.9108 19.167C20.108 18.9801 20.3668 18.8759 20.6356 18.8759C20.9043 18.8759 21.1632 18.9801 21.3603 19.167C21.543 19.3687 21.6444 19.6332 21.6444 19.9082C21.6444 20.1831 21.543 20.4477 21.3603 20.6494ZM31.4798 26.2457C31.2827 26.4325 31.0238 26.5367 30.7551 26.5367C30.4863 26.5367 30.2275 26.4325 30.0303 26.2457C29.8477 26.044 29.7462 25.7795 29.7462 25.5045C29.7462 25.2295 29.8477 24.965 30.0303 24.7633L31.6166 23.1401C31.7109 23.0411 31.8236 22.9623 31.9481 22.9085C32.0725 22.8548 32.2063 22.8273 32.3414 22.8273C32.4765 22.8273 32.6102 22.8548 32.7347 22.9085C32.8592 22.9623 32.9719 23.0411 33.0661 23.1401C33.1629 23.2366 33.2398 23.3516 33.2923 23.479C33.3448 23.6063 33.3719 23.7431 33.3719 23.8813C33.3719 24.0196 33.3448 24.1564 33.2923 24.2837C33.2398 24.4111 33.1629 24.5268 33.0661 24.6232L31.4798 26.2457ZM35.5003 38.8374L34.1601 40.2365C33.963 40.4233 33.7041 40.5275 33.4354 40.5275C33.1666 40.5275 32.9078 40.4233 32.7106 40.2365C32.6138 40.14 32.5369 40.025 32.4844 39.8977C32.4319 39.7703 32.4049 39.6335 32.4049 39.4953C32.4049 39.3571 32.4319 39.2203 32.4844 39.0929C32.5369 38.9656 32.6138 38.8505 32.7106 38.7541L34.0507 37.355C34.145 37.256 34.2577 37.1771 34.3822 37.1234C34.5067 37.0697 34.6404 37.0421 34.7755 37.0421C34.9106 37.0421 35.0444 37.0697 35.1688 37.1234C35.2933 37.1771 35.406 37.256 35.5003 37.355C35.6768 37.5596 35.7673 37.8271 35.7519 38.0996C35.7366 38.3721 35.6987 38.6549 35.5003 38.8374Z" fill="#F5CB58"/>
<path d="M44.854 43.8742C44.4508 43.6516 43.9994 43.5365 43.5412 43.5388C42.5874 43.6099 41.6574 43.8764 40.8062 44.3224C39.3121 45.2006 37.6527 45.7438 35.9379 45.9168H35.1994C33.4906 45.5472 31.9175 44.6943 30.6594 43.4548C29.67 42.4723 28.4428 41.777 27.1038 41.4402H26.5569C25.1543 41.6002 23.8495 42.2526 22.8646 43.2867C21.5773 44.6721 19.9238 45.6444 18.1057 46.0849H17.3946C15.6702 45.9166 14.001 45.3726 12.499 44.4897C11.6478 44.0438 10.7177 43.7773 9.76395 43.7062C9.31366 43.6971 8.86939 43.8134 8.4785 44.0423C8.0799 44.3317 7.75341 44.7128 7.52536 45.1551C7.29732 45.5974 7.17411 46.0884 7.16569 46.5884C7.16569 46.9521 7.16569 47.3163 7.16569 47.68C7.37693 51.9572 8.40846 56.1498 10.2015 60.0197C11.2877 62.9653 13.4711 65.3505 16.2732 66.6516C19.2734 67.6451 22.4212 68.0902 25.5722 67.9667H27.0218C30.4779 68.1296 33.9361 67.6945 37.2507 66.6796C38.6407 66.0392 39.8929 65.1236 40.935 63.9853C41.9771 62.8471 42.7885 61.5085 43.3224 60.0477C45.1243 56.1796 46.1651 51.987 46.3856 47.708C46.3856 47.3443 46.3856 46.9801 46.3856 46.6164C46.3796 46.0637 46.2358 45.5216 45.9678 45.0417C45.6997 44.5618 45.3164 44.1601 44.854 43.8742Z" fill="#F5CB58"/>
<path d="M25.9825 8.8694C25.9607 8.48731 25.9607 8.10449 25.9825 7.7224C25.9193 6.46013 26.1787 5.20293 26.735 4.07441C27.2913 2.94589 28.1254 1.98486 29.1551 1.2865C29.2325 1.24064 29.3 1.17896 29.3533 1.10547C29.4066 1.03197 29.4447 0.947946 29.4652 0.858851C29.4857 0.769755 29.4881 0.677751 29.4725 0.587643C29.4568 0.497534 29.4232 0.411247 29.3739 0.334879C29.3291 0.255667 29.2689 0.187223 29.1971 0.132669C29.1252 0.0781143 29.0433 0.0388643 28.9562 0.0179006C28.8691 -0.00306312 28.7787 -0.00567374 28.6907 0.010386C28.6026 0.0264457 28.5186 0.0610378 28.444 0.111491C27.215 0.931002 26.2157 2.06362 25.5443 3.3981C24.8729 4.73258 24.5527 6.22288 24.615 7.7224C24.5958 8.11389 24.5958 8.50591 24.615 8.8974C24.9752 8.78928 25.1804 8.77433 25.4628 8.78928L25.9825 8.8694Z" fill="#F5CB58"/>
<path d="M25.4628 17.0403C26.3478 17.0403 27.1965 16.6804 27.8223 16.0402C28.448 15.4 28.7996 14.5314 28.7996 13.626C28.7996 12.7206 28.448 11.8526 27.8223 11.2124C27.1965 10.5722 26.3478 10.2123 25.4628 10.2123C24.5779 10.2123 23.7292 10.5722 23.1034 11.2124C22.4777 11.8526 22.1261 12.7206 22.1261 13.626C22.1261 14.5314 22.4777 15.4 23.1034 16.0402C23.7292 16.6804 24.5779 17.0403 25.4628 17.0403Z" fill="#F5CB58"/>
</svg>
