<svg width="56" height="69" viewBox="0 0 56 69" fill="none" xmlns="http://www.w3.org/2000/svg">
<path d="M38.7011 28.6375C40.1365 27.6998 41.7839 27.141 43.4908 27.0132C46.289 26.7689 49.0692 27.6524 51.2198 29.4695C53.3703 31.2866 54.7153 33.8885 54.9588 36.7027C55.1705 39.1005 54.5622 41.499 53.2345 43.5018C52.0553 45.1964 50.7271 46.7809 49.2658 48.2364L48.9802 48.5185M17.2704 28.6371C15.843 27.7038 14.2056 27.1451 12.5081 27.0127C11.1218 26.8881 9.72472 27.0403 8.39708 27.4603C7.06945 27.8804 5.83741 28.56 4.77177 29.4603C3.70613 30.3607 2.82787 31.4642 2.18747 32.707C1.54706 33.9498 1.15713 35.3075 1.04007 36.7023C0.833317 39.0958 1.43084 41.4898 2.73701 43.5014C3.96861 45.6055 5.76028 47.3218 7.90992 48.4564M31.1743 14.6257C34.3372 15.1541 37.2919 16.5562 39.7084 18.6755C42.125 20.7948 43.9083 23.5483 44.8593 26.6278M11.1122 26.6822C12.0418 23.8588 13.6618 21.3161 15.8234 19.2864C17.985 17.2567 20.6189 15.8051 23.4834 15.0659M22.5528 19.8008L21.5401 20.8468M34.2671 23.7372L32.6797 25.3337M10.7016 35.4362L9.14156 37.0327M36.7031 37.7209L35.3619 39.0697M22.197 33.7295L20.8559 35.0783M49.649 36.2344L48.6637 37.2254M27.2057 9.31293C26.1241 9.31293 25.0868 9.74469 24.322 10.5139C23.5572 11.2831 23.1276 12.3266 23.1276 13.4144C23.1357 13.8251 23.2001 14.2325 23.3192 14.6255C23.5548 15.4929 24.0691 16.2575 24.782 16.8002C25.4949 17.3429 26.3664 17.6336 27.2604 17.6261C28.342 17.6261 29.3793 17.1937 30.1441 16.4245C30.9089 15.6553 31.3386 14.6124 31.3386 13.5246C31.3534 12.9722 31.257 12.4218 31.0552 11.9077C30.8535 11.3936 30.5505 10.9261 30.1645 10.5327C29.7785 10.1393 29.3174 9.82837 28.809 9.61871C28.3005 9.40905 27.7552 9.30531 27.2057 9.31293ZM27.2057 9.31293C26.9181 7.72971 27.1393 6.20734 27.7403 4.71574C28.3413 3.22414 29.352 1.93527 30.6543 1M48.9802 48.5185C48.6418 52.3656 47.6 56.125 45.8993 59.6048C45.3022 61.1637 44.4048 62.5884 43.2588 63.7977C42.1128 65.007 40.7406 65.9765 39.2211 66.6512C35.8018 67.7037 32.9265 68 28.6563 68C24.3861 68 21.1366 67.7732 17.5441 66.6512C16.0245 65.9765 14.6524 65.007 13.5064 63.7977C12.3603 62.5884 11.463 61.1637 10.8659 59.6048C8.81031 55.3123 7.7527 50.6057 7.77306 45.8413C7.79618 45.1869 7.97167 44.5467 8.28541 43.973C8.59915 43.3993 9.0424 42.9076 9.57949 42.5375C10.3984 42.1944 11.2861 42.0505 12.1707 42.1175C13.0553 42.1844 13.9117 42.4608 14.6703 42.9233C16.1698 43.8714 17.9078 44.3682 19.679 44.3547C23.2918 43.8592 25.0161 39.372 28.9847 39.9226C32.2691 40.3905 34.0208 43.9143 37.1957 44.3547C38.975 44.3643 40.7207 43.8681 42.2318 42.9233C42.982 42.4525 43.8346 42.1712 44.7164 42.104C45.5982 42.0369 46.483 42.1856 47.2952 42.5375C47.837 42.9027 48.2838 43.3935 48.5981 43.9683C48.9124 44.5431 49.0851 45.1855 49.1016 45.8413C49.099 46.7368 49.0584 47.63 48.9802 48.5185Z" stroke="#E95322" stroke-linecap="round" stroke-linejoin="round"/>
</svg>
