<svg width="63" height="62" viewBox="0 0 63 62" fill="none" xmlns="http://www.w3.org/2000/svg">
<path d="M52.4873 29.7444V10.4299C52.4873 8.45937 51.7044 6.56966 50.311 5.17627C48.9176 3.78287 47.0279 3 45.0574 3H16.7473C14.7768 3 12.8868 3.78287 11.4934 5.17627C10.1 6.56966 9.31738 8.45937 9.31738 10.4299V18.658M33.5373 11.99H45.3573M33.5373 19.61H45.3573M59.1472 32.56C59.0472 32.44 58.9573 32.3099 58.8473 32.1899C56.9473 29.9399 52.2872 29.5598 49.6572 29.6698C44.9172 29.8698 40.1972 29.9599 35.4572 29.9599C33.8072 29.9486 32.1835 29.5456 30.7197 28.7841C29.2558 28.0226 27.9937 26.9246 27.0373 25.58C25.4277 23.1565 23.2867 21.1318 20.7773 19.6598C18.0273 18.2398 11.8972 18.6598 8.95721 18.6598C2.34721 18.6598 3.35736 26.6599 3.35736 34.0199V45.2599C3.35736 52.6699 8.98721 58.6899 15.9572 58.6899H49.5173C55.7973 58.6899 60.7774 53.0498 60.3574 46.3998C59.9774 40.6298 60.8472 34.9 59.1472 32.56Z" stroke="#E95322" stroke-width="5" stroke-linecap="round" stroke-linejoin="round"/>
</svg>
