<svg width="77" height="66" viewBox="0 0 77 66" fill="none" xmlns="http://www.w3.org/2000/svg">
<path d="M54.5638 2.6123L6.6738 63.0523M19.2738 6.85516V15.8423M30.6138 44.5723H55.6438C59.1718 45.9793 64.1406 49.6825 67.8938 49.2623C69.1288 49.0677 70.2835 48.528 71.2249 47.7052C72.1662 46.8824 72.8557 45.8103 73.2139 44.6124C73.4139 43.9592 73.5577 43.2901 73.6438 42.6124C73.8147 40.6172 73.8549 38.6129 73.7639 36.6124V29.2824C73.8548 27.2819 73.8146 25.2776 73.6438 23.2824C73.5553 22.6215 73.4115 21.9692 73.2139 21.3324C72.8542 20.1345 72.1643 19.0621 71.2234 18.2379C70.2825 17.4138 69.1287 16.8713 67.8938 16.6725C64.0126 16.238 59.3384 20.0721 56.0039 21.873M4.0138 44.5723H20.7938M48.3236 10.4722C44.4039 8.17607 40.0204 6.78565 35.4938 6.40236C33.2092 6.14865 30.9124 6.01833 28.6137 6.01223C22.7037 6.01223 16.2937 6.75223 11.1537 10.0122C4.54372 14.1722 2.9238 22.7623 2.7338 30.1323C2.5338 37.7123 2.66382 47.2924 9.00382 52.3924C10.1467 53.3076 11.3836 54.0986 12.6938 54.7522M20.7937 57.2822C23.7019 57.7643 26.6459 57.9984 29.5937 57.9822C40.2437 57.9822 53.9239 55.6723 56.0039 42.8823C57.1539 35.8223 57.7938 24.8822 54.6838 17.7622" stroke="#E95322" stroke-width="5" stroke-linecap="round" stroke-linejoin="round"/>
</svg>
