<svg width="63" height="53" viewBox="0 0 63 53" fill="none" xmlns="http://www.w3.org/2000/svg">
<path d="M15.6506 49.8997V15.8997H24.9506C25.2298 15.9016 25.504 15.8251 25.7419 15.6787C25.9797 15.5323 26.1716 15.322 26.2957 15.0718C26.4197 14.8216 26.471 14.5414 26.4435 14.2634C26.4161 13.9855 26.3111 13.7209 26.1406 13.4998L19.8105 5.15967C19.3237 4.51743 18.6949 3.99675 17.9731 3.63818C17.2514 3.27961 16.4565 3.09302 15.6506 3.09302C14.8447 3.09302 14.0497 3.27961 13.328 3.63818C12.6063 3.99675 11.9774 4.51743 11.4906 5.15967L3.33057 15.8997H8.03058M48.1606 3.12988V37.1299H38.8606C38.5811 37.1303 38.3074 37.2088 38.0702 37.3564C37.833 37.5041 37.6417 37.715 37.518 37.9656C37.3943 38.2161 37.343 38.4963 37.37 38.7744C37.3969 39.0525 37.5011 39.3177 37.6706 39.5398L44.0005 47.8799C44.4896 48.5205 45.1198 49.0394 45.8422 49.3967C46.5646 49.7541 47.3596 49.9402 48.1656 49.9402C48.9715 49.9402 49.7666 49.7541 50.4889 49.3967C51.2113 49.0394 51.8415 48.5205 52.3305 47.8799L60.4806 37.1299H55.4806" stroke="#E95322" stroke-width="5" stroke-linecap="round" stroke-linejoin="round"/>
</svg>
