<svg width="75" height="76" viewBox="0 0 75 76" fill="none" xmlns="http://www.w3.org/2000/svg">
<path d="M37.5223 25.7161V47.7661M27.9023 39.0061L32.7422 45.396C33.302 46.1317 34.0242 46.7281 34.8525 47.1387C35.6808 47.5492 36.5931 47.7629 37.5176 47.7629C38.442 47.7629 39.3538 47.5492 40.1821 47.1387C41.0104 46.7281 41.7327 46.1317 42.2925 45.396L47.1426 39.0061M3.28216 38.2962C3.28216 38.2962 1.51222 62.4661 23.8422 70.9461C32.6618 74.2564 42.3825 74.2564 51.2021 70.9461C73.5321 62.4661 71.7621 38.2962 71.7621 38.2962C71.7621 38.2962 73.5321 14.1261 51.2021 5.64607C42.3825 2.33575 32.6618 2.33575 23.8422 5.64607C1.51222 14.1261 3.28216 38.2962 3.28216 38.2962Z" stroke="#E95322" stroke-width="5" stroke-linecap="round" stroke-linejoin="round"/>
</svg>
