<svg width="37" height="55" viewBox="0 0 37 55" fill="none" xmlns="http://www.w3.org/2000/svg">
<path d="M18.5855 3.16333V30.3333H6.52549C5.83211 30.3405 5.15443 30.5391 4.5665 30.9067C3.97857 31.2744 3.50307 31.797 3.19297 32.4172C2.88286 33.0374 2.75004 33.7309 2.80869 34.4219C2.86734 35.1128 3.11529 35.7742 3.52549 36.3333L12.9254 48.7234C13.5885 49.5977 14.445 50.3066 15.4278 50.7947C16.4106 51.2828 17.4931 51.5369 18.5904 51.5369C19.6878 51.5369 20.7702 51.2828 21.753 50.7947C22.7358 50.3066 23.5924 49.5977 24.2555 48.7234L33.6554 36.3333C34.0656 35.7742 34.314 35.1128 34.3727 34.4219C34.4313 33.7309 34.298 33.0374 33.9879 32.4172C33.6778 31.797 33.2028 31.2744 32.6148 30.9067C32.0269 30.5391 31.3487 30.3405 30.6554 30.3333H28.0855" stroke="#E95322" stroke-width="5" stroke-linecap="round" stroke-linejoin="round"/>
</svg>
