<svg width="46" height="36" viewBox="0 0 46 36" fill="none" xmlns="http://www.w3.org/2000/svg">
<path d="M41.5853 13.8232L29.7753 29.3933C29.0045 30.4048 28.0105 31.2247 26.871 31.7891C25.7314 32.3534 24.4771 32.647 23.2054 32.647C21.9338 32.647 20.679 32.3534 19.5394 31.7891C18.3998 31.2247 17.4059 30.4048 16.6351 29.3933L4.8153 13.8232C4.06956 12.8367 3.61366 11.6618 3.49889 10.4304C3.38412 9.19907 3.61531 7.96016 4.16588 6.85279C4.71646 5.74541 5.56457 4.81361 6.61559 4.16187C7.66661 3.51012 8.8789 3.16425 10.1156 3.16333H36.2953C37.5327 3.16236 38.7458 3.50723 39.7977 4.15894C40.8496 4.81065 41.6984 5.74338 42.2484 6.85181C42.7985 7.96023 43.0277 9.20029 42.9105 10.4321C42.7934 11.664 42.3345 12.8384 41.5853 13.8232Z" stroke="#E95322" stroke-width="5" stroke-linecap="round" stroke-linejoin="round"/>
</svg>
