<svg width="41" height="70" viewBox="0 0 41 70" fill="none" xmlns="http://www.w3.org/2000/svg">
<path d="M31.3025 59.7792C30.1883 57.2663 29.445 54.6109 29.0949 51.8921C29.0892 50.6532 29.4214 49.4354 30.0572 48.3649C31.7077 45.6115 32.9108 42.622 33.6233 39.5049C33.2016 38.3346 32.3687 37.35 31.2742 36.7277C30.34 36.2155 29.3099 35.8947 28.2458 35.7838L24.7929 45.0595C24.7485 45.1904 24.6777 45.3113 24.5848 45.4148C24.4918 45.5182 24.3786 45.6026 24.2518 45.6623C24.125 45.7219 23.9873 45.7557 23.8469 45.7619C23.7064 45.7682 23.5662 45.7469 23.4344 45.6989C23.1727 45.5935 22.9621 45.3934 22.8463 45.1402C22.7304 44.8869 22.718 44.5993 22.8117 44.3374L26.0099 35.7282H25.6703C22.84 36.2559 20.6041 38.5057 17.3211 39.4222C16.474 39.6586 15.5979 39.7797 14.7172 39.7829C13.7497 39.7984 12.7883 39.6288 11.887 39.2832C12.5986 42.4443 13.8014 45.4792 15.4531 48.2815C16.0661 49.3474 16.3696 50.5577 16.3305 51.7809C16.1569 54.339 15.594 56.8571 14.6606 59.2516C13.8289 61.3822 13.305 63.6161 13.104 65.889C13.0638 66.3665 13.1289 66.8468 13.295 67.2973C13.461 67.7478 13.7241 68.1585 14.0663 68.5002C15.3027 69.3907 16.8069 69.8501 18.34 69.8054C20.1796 69.8054 21.991 70 23.8023 70C25.6137 70 26.6326 69.9998 27.9345 69.8332C28.9373 69.7867 29.9053 69.4578 30.7232 68.8867C31.5411 68.3155 32.1745 67.5256 32.5478 66.6111C32.7164 66.1669 32.8027 65.6966 32.8025 65.2225C32.5612 63.3487 32.0563 61.5169 31.3025 59.7792ZM29.4628 66.2782C27.1496 66.9114 24.7604 67.238 22.3589 67.2498C20.1367 67.2957 17.9236 66.9577 15.821 66.2504C15.6918 66.1988 15.5743 66.1221 15.4756 66.0253C15.3769 65.9285 15.2989 65.8137 15.2461 65.687C15.1934 65.5602 15.167 65.4245 15.1685 65.2876C15.17 65.1507 15.1994 65.0152 15.255 64.8896C15.3076 64.7627 15.3855 64.6474 15.4841 64.5506C15.5827 64.4537 15.7001 64.3772 15.8293 64.3254C15.9585 64.2737 16.0969 64.248 16.2364 64.2495C16.376 64.251 16.5138 64.2798 16.6418 64.3343H16.9248L18.0286 64.6116C19.4318 64.916 20.8653 65.0655 22.3023 65.0564C24.5122 65.0471 26.7109 64.748 28.8401 64.1675C28.9739 64.1296 29.1141 64.1183 29.2524 64.1342C29.3907 64.1502 29.5244 64.1931 29.6456 64.2604C29.7669 64.3276 29.8732 64.4174 29.9585 64.5255C30.0437 64.6335 30.1061 64.7576 30.1421 64.8896C30.1998 65.0238 30.2279 65.1684 30.2243 65.314C30.2208 65.4596 30.1857 65.6031 30.1215 65.7344C30.0573 65.8657 29.9653 65.9817 29.8518 66.0755C29.7382 66.1693 29.6056 66.2385 29.4628 66.2782Z" fill="#F5CB58"/>
<path d="M13.5285 16.6202C13.3587 16.7869 13.1323 16.8984 12.9625 17.065C12.4396 17.5985 12.0179 18.219 11.7172 18.8978L13.3587 19.5365L14.972 19.9535C14.7733 18.7442 14.2779 17.5999 13.5285 16.6202Z" fill="#F5CB58"/>
<path d="M9.16998 19.287C9.56847 17.9017 10.307 16.6332 11.321 15.593C11.4908 15.4264 11.6889 15.3149 11.8587 15.176C10.5995 14.2787 9.08459 13.7929 7.52844 13.7874C5.53407 13.7947 3.62351 14.576 2.21326 15.9598C0.80302 17.3437 0.00745567 19.2183 0 21.1753C0.00748786 23.1298 0.803966 25.0019 2.21501 26.3814C3.62606 27.7608 5.53667 28.5349 7.52844 28.5348H8.40582C8.40582 27.7294 8.40582 26.8965 8.40582 25.98C8.39088 23.7395 8.66917 21.4712 9.16998 19.287Z" fill="#F5CB58"/>
<path d="M40.4158 0.0676679C40.2859 0.0189653 40.1473 -0.00389447 40.0082 0.000541456C39.8692 0.00497738 39.7324 0.0365501 39.6059 0.0934336C39.4795 0.150317 39.3658 0.231634 39.2716 0.332105C39.1774 0.432577 39.1046 0.550176 39.0573 0.678586L33.6516 15.1759L32.9157 17.2039L31.9534 16.5923C28.9319 14.7927 25.4688 13.8327 21.9344 13.815C19.6004 13.7805 17.2978 14.3456 15.255 15.4539C16.3793 16.8818 17.0577 18.599 17.2079 20.3975C18.0065 20.4877 18.8097 20.5342 19.6136 20.5365C22.3638 20.5234 25.0882 20.015 27.6514 19.0367C27.826 18.9697 28.0124 18.9374 28.1997 18.9417C28.3871 18.9461 28.5717 18.9868 28.7428 19.0617C28.914 19.1367 29.0683 19.2445 29.1967 19.3784C29.3252 19.5123 29.4252 19.67 29.4911 19.8422C29.5593 20.0135 29.5921 20.196 29.5877 20.3799C29.5832 20.5637 29.5416 20.7449 29.4653 20.9128C29.3889 21.0807 29.2793 21.2322 29.1429 21.3583C29.0064 21.4843 28.8458 21.5825 28.6703 21.6471C25.7775 22.7306 22.7098 23.2953 19.6136 23.3138C16.6421 23.3337 13.6968 22.7667 10.953 21.6471C10.7252 23.0711 10.6117 24.5106 10.6134 25.952C10.6134 27.0629 10.6134 28.118 10.6134 29.09C10.6708 31.4232 10.8693 33.7509 11.2077 36.061C11.3867 36.5363 11.7135 36.9448 12.1417 37.2279C12.9096 37.6515 13.7801 37.8625 14.6606 37.8388C15.3308 37.8342 15.9972 37.7405 16.6418 37.5608C19.3022 36.7832 21.7362 34.5896 25.1325 33.8397C25.6553 33.7416 26.1854 33.6857 26.7175 33.6729L30.9345 22.4526C30.8855 22.5819 30.8636 22.7196 30.87 22.8574C30.8764 22.9952 30.911 23.1304 30.9717 23.2548C31.0325 23.3792 31.1181 23.4904 31.2236 23.5816C31.329 23.6728 31.4521 23.7421 31.5855 23.7857C31.8485 23.8765 32.1371 23.8637 32.3905 23.7497C32.644 23.6358 32.8424 23.4295 32.944 23.1748L28.9534 33.8953C30.1314 34.1058 31.2621 34.5194 32.293 35.1172C32.9941 35.5148 33.6249 36.0214 34.161 36.617C34.511 34.3557 34.6907 32.0716 34.6987 29.7843C34.6821 26.7308 34.4075 23.6845 33.878 20.6755L40.8687 1.5119C40.9374 1.38829 40.9802 1.25263 40.9946 1.11254C41.009 0.972438 40.9946 0.830796 40.9524 0.696216C40.9102 0.561635 40.841 0.436643 40.7489 0.328715C40.6567 0.220788 40.5435 0.131993 40.4158 0.0676679Z" fill="#F5CB58"/>
</svg>
