<svg width="42" height="72" viewBox="0 0 42 72" fill="none" xmlns="http://www.w3.org/2000/svg">
<path d="M35.4799 17.2327C38.0042 27.5449 37.5881 39.6362 32.1789 48.7532C30.2094 52.0887 32.3454 55.6189 33.4827 59.3435C34.2594 61.8452 35.6463 64.4857 34.7309 66.9317C34.2809 68.0485 33.5173 69.0104 32.5326 69.7011C31.5479 70.3918 30.3844 70.7814 29.1831 70.8228C26.0067 71.0591 22.8172 71.0591 19.6408 70.8228C6.10403 69.989 19.8627 55.313 15.9792 48.7811C12.7017 42.6875 11.0309 35.8568 11.1248 28.9352C11.1248 25.0716 10.681 19.1509 13.6768 16.1768C18.0596 11.8406 25.8821 11.8129 30.8474 14.1477M11.7074 35.2442C11.9847 38.663 15.8682 39.1637 18.5035 38.3576C21.1387 37.5515 23.7462 35.2721 26.8252 34.6606C28.6562 34.2131 30.5866 34.4383 32.2662 35.2951C33.9457 36.1518 35.2631 37.5839 35.9792 39.3307M25.0777 44.7504L41 1M17.7268 65.1522C21.8617 66.4558 26.2964 66.4558 30.4313 65.1522M11.0139 29.2404C10.4568 29.3522 9.88994 29.4082 9.32178 29.4073C7.1147 29.4073 4.99803 28.5288 3.4374 26.965C1.87676 25.4012 1 23.2802 1 21.0686C1 18.857 1.87676 16.736 3.4374 15.1722C4.99803 13.6084 7.1147 12.7299 9.32178 12.7299C11.5288 12.7299 13.6455 13.6084 15.2062 15.1722C16.7668 16.736 17.6436 18.857 17.6436 21.0686M11.846 19.7066C14.5943 20.9736 17.5721 21.664 20.5964 21.7357C23.6207 21.8074 26.6278 21.2586 29.4327 20.1233" stroke="#E95322" stroke-linecap="round" stroke-linejoin="round"/>
</svg>
