<svg width="74" height="79" viewBox="0 0 74 79" fill="none" xmlns="http://www.w3.org/2000/svg">
<path d="M53.2384 10.8276C50.626 10.0475 46.7924 9.34523 44.0823 9.04761C41.2375 8.71627 38.3762 8.54623 35.5122 8.53784C28.1522 8.53784 20.1522 9.53777 13.7522 13.7178C5.51222 19.1278 3.49222 30.3077 3.25222 39.9077C3.00222 49.7677 3.16228 62.2277 11.0623 68.9077C18.1223 74.8377 28.0622 76.1878 36.7322 76.2078C50.0022 76.2078 67.0622 73.2076 69.6522 56.5676C70.8522 48.8076 71.6522 37.4776 69.4922 28.5676M66.9523 4.85774C65.5319 3.70782 63.7137 3.1674 61.8958 3.35481C60.0779 3.54222 58.4082 4.44221 57.2522 5.85774L27.6523 42.5079L23.0623 57.5079C22.9954 57.7272 22.9955 57.9615 23.0628 58.1807C23.1301 58.4 23.2614 58.5941 23.4399 58.7381C23.6183 58.8822 23.8357 58.9698 24.0642 58.9893C24.2928 59.0089 24.5219 58.9594 24.7222 58.8477L38.4023 51.2078L67.9922 14.5677C69.1356 13.1396 69.668 11.3176 69.4732 9.49861C69.2784 7.67961 68.3722 6.01127 66.9523 4.85774Z" stroke="#E95322" stroke-width="5" stroke-linecap="round" stroke-linejoin="round"/>
</svg>
