<svg width="80" height="80" viewBox="0 0 80 80" fill="none" xmlns="http://www.w3.org/2000/svg">
<path d="M44.7219 77.7382C44.7219 72.6083 44.7219 62.6904 44.7219 56.6524H54.1562C54.6098 56.6524 55.0447 56.4722 55.3653 56.1515C55.686 55.8309 55.8662 55.3959 55.8662 54.9424V44.4938C55.8662 44.0403 55.686 43.6054 55.3653 43.2847C55.0447 42.964 54.6098 42.7838 54.1562 42.7838H44.7219C44.7219 38.7035 44.7219 39.187 44.7219 36.6397C44.725 35.5377 45.165 34.4819 45.9453 33.7037C46.7257 32.9256 47.7828 32.4886 48.8848 32.4886H55.8073V21.698C55.8042 20.89 55.481 20.1161 54.9086 19.5458C54.3361 18.9756 53.561 18.6554 52.7529 18.6554H44.1086C42.292 18.6554 40.4932 19.0132 38.8149 19.7084C37.1365 20.4036 35.6117 21.4225 34.3271 22.7071C33.0426 23.9916 32.0237 25.5165 31.3285 27.1949C30.6333 28.8732 30.2755 30.672 30.2755 32.4886C30.2755 32.4886 30.1222 34.4934 30.0279 42.7838H20.9001C20.3934 42.7838 19.9075 42.9851 19.5492 43.3434C19.1909 43.7017 18.9896 44.1876 18.9896 44.6943V54.7419C18.9881 54.9932 19.0364 55.2424 19.1319 55.4749C19.2273 55.7074 19.3679 55.9186 19.5456 56.0963C19.7233 56.2741 19.9346 56.4147 20.1671 56.5101C20.3996 56.6056 20.6488 56.654 20.9001 56.6524H29.9216C29.9216 62.7258 29.9216 71.4526 30.0867 76.8302M30.1104 76.724C22.1038 74.5487 15.0373 69.7955 10.0041 63.1997C4.97098 56.604 2.25174 48.5333 2.26715 40.2366C2.26715 30.2279 6.24303 20.6293 13.3202 13.5521C20.3974 6.47494 29.9961 2.49902 40.0047 2.49902C50.0133 2.49902 59.612 6.47494 66.6892 13.5521C73.7663 20.6293 77.7422 30.2279 77.7422 40.2366C77.7483 49.4325 74.3963 58.3142 68.316 65.2131C62.2358 72.112 53.8457 76.5534 44.7219 77.7028" stroke="#E95322" stroke-width="4.36703" stroke-linecap="round" stroke-linejoin="round"/>
</svg>
