<svg width="35" height="35" viewBox="0 0 35 35" fill="none" xmlns="http://www.w3.org/2000/svg">
<rect x="0.31958" width="34.1306" height="34.1306" rx="13.1271" fill="#FFDECF"/>
<path d="M19.4802 27.5759C19.4802 26.0537 19.4802 23.1109 19.4802 21.3193H22.2796C22.4141 21.3193 22.5432 21.2659 22.6383 21.1707C22.7335 21.0756 22.7869 20.9465 22.7869 20.8119V17.7116C22.7869 17.5771 22.7335 17.448 22.6383 17.3529C22.5432 17.2577 22.4141 17.2043 22.2796 17.2043H19.4802C19.4802 15.9935 19.4802 16.137 19.4802 15.3812C19.4811 15.0542 19.6117 14.7409 19.8432 14.51C20.0748 14.2791 20.3884 14.1494 20.7154 14.1494H22.7695V10.9477C22.7685 10.7079 22.6726 10.4783 22.5028 10.3091C22.3329 10.1399 22.1029 10.0449 21.8632 10.0449H19.2982C18.7592 10.0449 18.2255 10.1511 17.7275 10.3573C17.2295 10.5636 16.777 10.8659 16.3959 11.2471C16.0147 11.6282 15.7124 12.0807 15.5061 12.5787C15.2999 13.0767 15.1937 13.6104 15.1937 14.1494C15.1937 14.1494 15.1482 14.7443 15.1202 17.2043H12.4118C12.2615 17.2043 12.1173 17.264 12.011 17.3703C11.9047 17.4766 11.845 17.6208 11.845 17.7711V20.7524C11.8445 20.827 11.8588 20.9009 11.8872 20.9699C11.9155 21.0389 11.9572 21.1016 12.0099 21.1543C12.0627 21.2071 12.1253 21.2488 12.1943 21.2771C12.2633 21.3054 12.3373 21.3198 12.4118 21.3193H15.0887C15.0887 23.1214 15.0887 25.7108 15.1377 27.3064M15.1447 27.275C12.769 26.6295 10.6722 25.2191 9.17879 23.262C7.68535 21.3049 6.8785 18.9102 6.88308 16.4484C6.88308 13.4787 8.0628 10.6306 10.1627 8.53064C12.2627 6.43071 15.1108 5.25098 18.0805 5.25098C21.0503 5.25098 23.8984 6.43071 25.9983 8.53064C28.0982 10.6306 29.278 13.4787 29.278 16.4484C29.2798 19.177 28.2852 21.8124 26.481 23.8594C24.6769 25.9065 22.1874 27.2243 19.4802 27.5654" stroke="#E95322" stroke-width="1.42515" stroke-linecap="round" stroke-linejoin="round"/>
</svg>
