<svg width="79" height="51" viewBox="0 0 79 51" fill="none" xmlns="http://www.w3.org/2000/svg">
<path d="M47.4248 11.579C48.266 11.2748 49.0043 10.7349 49.5529 10.0224L53.4597 4.93519C53.8995 4.36186 54.4636 3.89776 55.1082 3.5785C55.7528 3.25925 56.4611 3.09324 57.179 3.09324C57.8969 3.09324 58.6051 3.25925 59.2497 3.5785C59.8944 3.89776 60.4585 4.36186 60.8982 4.93519L64.8051 10.0224C65.3402 10.7289 66.0619 11.2685 66.887 11.579L72.8853 13.766C73.5607 14.0111 74.1719 14.4089 74.6717 14.9292C75.1715 15.4496 75.5467 16.0788 75.7689 16.7683C75.991 17.4577 76.0542 18.1893 75.9534 18.9072C75.8526 19.6252 75.5903 20.3104 75.1871 20.9103L71.6014 26.2384C71.1032 26.9852 70.8231 27.8587 70.7939 28.7588L70.5924 35.1988C70.5688 35.9232 70.3817 36.6327 70.0456 37.2731C69.7095 37.9135 69.2335 38.4679 68.6533 38.8942C68.073 39.3205 67.4042 39.6073 66.6976 39.7328C65.991 39.8584 65.2652 39.8195 64.5758 39.6188L60.4943 38.4142M31.604 11.579C30.764 11.2725 30.0267 10.733 29.4764 10.0224L25.5785 4.93519C25.1378 4.36174 24.5731 3.89753 23.9278 3.57828C23.2824 3.25903 22.5733 3.09302 21.8548 3.09302C21.1362 3.09302 20.4271 3.25903 19.7817 3.57828C19.1364 3.89753 18.5717 4.36174 18.131 4.93519L14.2331 10.0224C13.6828 10.733 12.9455 11.2725 12.1055 11.579L6.10725 13.766C5.43256 14.0121 4.82233 14.4107 4.32354 14.9315C3.82474 15.4523 3.45074 16.0814 3.22949 16.7707C3.00824 17.4601 2.94583 18.1916 3.04722 18.909C3.14861 19.6265 3.41098 20.311 3.81435 20.9103L7.39118 26.2384C7.89347 26.9831 8.17349 27.8579 8.19817 28.7588L8.40014 35.1988C8.42515 35.9236 8.61342 36.6332 8.95052 37.2735C9.28762 37.9138 9.76461 38.4681 10.3455 38.8942C10.9264 39.3203 11.596 39.6071 12.303 39.7326C13.01 39.8582 13.7358 39.8192 14.4257 39.6188L18.4983 38.4142M43.8942 6.99228L48.48 12.9875C49.1242 13.8322 49.9924 14.4749 50.9838 14.8408L58.0457 17.4076C58.8411 17.6977 59.5605 18.1677 60.1487 18.7817C60.7368 19.3956 61.1783 20.1374 61.4393 20.9501C61.7004 21.7628 61.7739 22.6248 61.6547 23.4707C61.5355 24.3166 61.2266 25.1237 60.7514 25.8305L56.5324 32.1038C55.9579 32.9893 55.6402 34.0199 55.6153 35.0784L55.377 42.6489C55.3594 43.5063 55.1454 44.348 54.7523 45.108C54.3593 45.8681 53.7975 46.5258 53.111 47.03C52.4245 47.5343 51.6321 47.8715 50.7953 48.0148C49.9584 48.1582 49.1001 48.1039 48.2874 47.8565L41.0783 45.7439C40.0691 45.4456 38.9969 45.4456 37.9878 45.7439L30.7786 47.8565C29.9659 48.1039 29.1076 48.1582 28.2708 48.0148C27.4339 47.8715 26.6415 47.5343 25.955 47.03C25.2685 46.5258 24.7068 45.8681 24.3137 45.108C23.9207 44.348 23.7067 43.5063 23.689 42.6489L23.4508 35.0784C23.4319 34.0189 23.1136 32.9867 22.5336 32.1038L18.3146 25.8305C17.8309 25.1234 17.5159 24.3126 17.3947 23.4619C17.2735 22.6111 17.3493 21.7437 17.616 20.9274C17.8826 20.1112 18.3331 19.3687 18.9317 18.7579C19.5303 18.1472 20.2608 17.6849 21.0661 17.4076L28.1189 14.8408C29.1103 14.4749 29.9786 13.8322 30.6228 12.9875L35.2085 6.99228C35.723 6.32435 36.3816 5.78382 37.1342 5.41208C37.8868 5.04034 38.7134 4.84719 39.5512 4.84719C40.3889 4.84719 41.2155 5.04034 41.9681 5.41208C42.7207 5.78382 43.3797 6.32435 43.8942 6.99228Z" stroke="#E95322" stroke-width="5" stroke-linecap="round" stroke-linejoin="round"/>
</svg>
