<svg width="72" height="54" viewBox="0 0 72 54" fill="none" xmlns="http://www.w3.org/2000/svg">
<path d="M2.59229 9.63292H49.0823M22.5623 44.9829H68.8923M56.4223 27.3129H68.8923M2.59229 27.3129H37.4623M68.8823 9.63292C68.8823 13.8524 66.093 15.593 62.6523 15.593C59.2116 15.593 56.4223 13.8524 56.4223 9.63292C56.4223 5.41346 59.2116 3.09302 62.6523 3.09302C66.093 3.09302 68.8823 5.41346 68.8823 9.63292ZM49.9123 27.3129C49.9123 31.5324 47.123 33.593 43.6823 33.593C40.2416 33.593 37.4523 31.5324 37.4523 27.3129C37.4523 23.0935 40.2416 21.093 43.6823 21.093C47.123 21.093 49.9123 23.0935 49.9123 27.3129ZM15.0523 44.9829C15.0523 49.2024 12.263 51.093 8.82228 51.093C5.38155 51.093 2.59229 49.2024 2.59229 44.9829C2.59229 40.7635 5.38155 38.593 8.82228 38.593C12.263 38.593 15.0523 40.7635 15.0523 44.9829Z" stroke="#E95322" stroke-width="5" stroke-linecap="round" stroke-linejoin="round"/>
</svg>
