<svg width="35" height="35" viewBox="0 0 35 35" fill="none" xmlns="http://www.w3.org/2000/svg">
<rect x="0.869385" width="34.1306" height="34.1306" rx="13.1271" fill="#FFDECF"/>
<path d="M25.2285 26.774C24.8667 25.5617 25.2901 24.2627 25.7629 23.0874C26.5634 21.2353 27.0003 19.2457 27.0497 17.2276C27.0497 13.5863 25.7917 9.82957 23.0907 7.30996C21.7158 6.05931 19.9466 5.33287 18.0921 5.25749C16.2377 5.18212 14.4157 5.76261 12.9445 6.89759C9.73372 9.37184 8.7018 13.5409 8.74702 17.4255V19.2894M22.0177 10.8894C20.4061 8.82751 18.1902 8.00276 15.9168 9.00896C14.1326 9.80072 12.9403 11.5409 12.3319 13.343C11.5631 15.6111 11.9208 17.9905 11.67 20.3328C11.5343 21.6565 11.0616 23.0256 10.0256 23.8421M23.1729 12.9884C23.6813 14.336 23.9377 15.7661 23.9293 17.2069C23.9206 19.028 23.4989 20.8232 22.696 22.4565C22.2397 23.3926 21.2777 25.0421 20.0032 24.3946C18.9631 23.8668 19.1358 22.6462 19.4318 21.7142C19.995 19.9451 20.8172 18.4152 20.8995 16.51C20.9776 14.7245 20.4185 12.8482 18.6507 12.0976C18.1476 11.8809 17.5868 11.8382 17.0569 11.9763C16.5269 12.1144 16.0578 12.4255 15.7235 12.8605C14.223 14.9224 15.0699 17.2069 14.3751 19.4791M17.1584 19.842C16.4759 21.7554 15.6948 24.0359 16.3361 26.0648C17.1214 28.539 19.9457 29.3885 22.215 28.5885M13.9723 22.2379C13.7592 23.0232 13.4542 23.7803 13.0637 24.4936C12.6716 25.2097 12.1061 25.8153 11.4192 26.2544M17.7956 17.174C17.9542 16.4751 17.9987 15.7551 17.9271 15.042C18.0166 15.7546 17.9719 16.4778 17.7956 17.174Z" stroke="#E95322" stroke-width="1.42515" stroke-linecap="round" stroke-linejoin="round"/>
</svg>
