<svg width="52" height="74" viewBox="0 0 52 74" fill="none" xmlns="http://www.w3.org/2000/svg">
<path d="M2.87208 71.0523V2.6123M48.8521 36.9624C49.1649 37.7311 49.3149 38.5563 49.2925 39.386C49.2701 40.2156 49.076 41.0315 48.7222 41.7822C46.5722 45.7822 40.052 45.8822 36.092 45.9922C28.2836 46.3009 20.4633 46.0939 12.6821 45.3723C9.85213 45.0823 6.88213 44.5923 4.68213 42.9323C3.95773 42.3771 3.33508 41.7004 2.84204 40.9323V10.4724C3.33211 9.70203 3.95521 9.02484 4.68213 8.47238C6.85213 6.81238 9.81213 6.19219 12.6821 6.02219C25.0121 5.29219 20.8221 5.36228 31.9121 5.36228C34.6921 5.25228 41.912 5.61215 44.532 6.48215C46.2719 6.96856 47.7669 8.08888 48.7222 9.62229C52.3822 16.4823 41.8222 20.1924 42.2222 25.9524C42.3922 28.2724 44.992 30.7323 46.302 32.5923C47.344 33.9281 48.2018 35.398 48.8521 36.9624Z" stroke="#E95322" stroke-width="5" stroke-linecap="round" stroke-linejoin="round"/>
</svg>
