<svg width="54" height="38" viewBox="0 0 54 38" fill="none" xmlns="http://www.w3.org/2000/svg">
<path d="M2.9292 18.9307H30.0991V31.0005C30.0996 31.7023 30.2959 32.3903 30.666 32.9866C31.0362 33.5829 31.5656 34.0639 32.1943 34.3757C32.8231 34.6875 33.5264 34.8175 34.2251 34.7512C34.9238 34.685 35.59 34.425 36.1489 34.0005L48.5391 24.5906C49.4133 23.9285 50.1222 23.0728 50.6104 22.0908C51.0985 21.1088 51.3525 20.0273 51.3525 18.9307C51.3525 17.834 51.0985 16.7523 50.6104 15.7703C50.1222 14.7883 49.4133 13.9326 48.5391 13.2705L36.1489 3.86061C35.59 3.43615 34.9238 3.17615 34.2251 3.10987C33.5264 3.0436 32.8231 3.17357 32.1943 3.48536C31.5656 3.79716 31.0362 4.27823 30.666 4.87452C30.2959 5.47082 30.0996 6.15876 30.0991 6.86061V9.43068" stroke="#E95322" stroke-width="5" stroke-linecap="round" stroke-linejoin="round"/>
</svg>
