<svg width="81" height="80" viewBox="0 0 81 80" fill="none" xmlns="http://www.w3.org/2000/svg">
<path d="M35.0033 60.4937C45.6433 68.7837 57.1133 71.3937 63.5933 66.0337C72.0633 59.0337 68.7933 41.0838 56.2733 25.9338L54.0033 23.5837M45.1533 15.4538C35.0233 8.18377 24.4133 6.12376 18.2733 11.1938C9.80334 18.1938 13.0833 36.1436 25.5933 51.2936M56.3633 19.5537C65.1133 18.7537 71.8333 20.6537 73.9533 25.2737C77.6033 33.2737 66.0833 46.3637 48.2133 54.5337C30.3433 62.7037 12.9033 62.8437 9.2133 54.8537C5.5233 46.8637 17.0833 33.7637 34.9533 25.5937C37.894 24.2452 40.9166 23.0829 44.0033 22.1138M30.0533 74.7437C30.6333 74.8737 31.1933 74.9938 31.7333 75.0938C34.5965 75.6615 37.5166 75.8896 40.4333 75.7737C40.4333 75.7737 65.9933 77.6537 74.9633 54.0237C78.463 44.6979 78.463 34.4196 74.9633 25.0938C65.9633 1.4738 40.4333 3.35381 40.4333 3.35381C40.4333 3.35381 14.8733 1.4738 5.90331 25.0938C2.39356 34.4178 2.39356 44.6997 5.90331 54.0237C8.24112 60.5169 12.6197 66.078 18.3833 69.8738C19.1933 70.4038 20.0133 70.8738 20.8433 71.3238M49.4333 23.5737C50.3742 23.6279 51.3085 23.3874 52.1061 22.8855C52.9037 22.3836 53.525 21.6453 53.8833 20.7737C54.3335 19.5711 54.3335 18.2463 53.8833 17.0437C53.4797 16.2063 52.848 15.4998 52.0608 15.0054C51.2736 14.511 50.3629 14.2488 49.4333 14.2488C48.5037 14.2488 47.5931 14.511 46.8059 15.0054C46.0187 15.4998 45.387 16.2063 44.9834 17.0437C44.5332 18.2463 44.5332 19.5711 44.9834 20.7737C45.3429 21.6444 45.9645 22.3818 46.7618 22.8835C47.5591 23.3852 48.4927 23.6264 49.4333 23.5737ZM25.6333 76.6638C26.5739 76.7165 27.5076 76.4751 28.3049 75.9734C29.1022 75.4717 29.7238 74.7345 30.0833 73.8638C30.5335 72.6612 30.5335 71.3364 30.0833 70.1338C29.6797 69.2964 29.048 68.5899 28.2608 68.0955C27.4736 67.601 26.5629 67.3389 25.6333 67.3389C24.7038 67.3389 23.7931 67.601 23.0059 68.0955C22.2187 68.5899 21.5869 69.2964 21.1833 70.1338C20.7332 71.3364 20.7332 72.6612 21.1833 73.8638C21.5417 74.7354 22.163 75.4735 22.9606 75.9753C23.7582 76.4772 24.6925 76.718 25.6333 76.6638Z" stroke="#E95322" stroke-width="5" stroke-linecap="round" stroke-linejoin="round"/>
</svg>
