<svg width="69" height="69" viewBox="0 0 69 69" fill="none" xmlns="http://www.w3.org/2000/svg">
<path d="M17.1706 29.2883H26.6706M17.1706 39.2683H51.8606M65.7707 63.0484L60.7707 52.7083C62.7059 49.834 64.1396 46.6523 65.0107 43.2984C66.7064 36.9893 66.6024 30.3316 64.7106 24.0785C57.8706 1.63846 34.5307 3.34848 34.5307 3.34848C34.5307 3.34848 10.8506 1.60846 4.2006 24.5785C2.39082 30.8709 2.39082 37.546 4.2006 43.8385C10.8506 66.8385 34.5307 65.0785 34.5307 65.0785C40.9284 65.2803 47.2513 63.6572 52.7607 60.3985L63.1407 65.6485C63.5055 65.8029 63.908 65.8453 64.297 65.7706C64.6861 65.6959 65.0442 65.5074 65.326 65.2289C65.6077 64.9503 65.8004 64.5943 65.8796 64.2061C65.9587 63.818 65.9208 63.415 65.7707 63.0484Z" stroke="#E95322" stroke-width="5" stroke-linecap="round" stroke-linejoin="round"/>
</svg>
