<svg width="68" height="80" viewBox="0 0 68 80" fill="none" xmlns="http://www.w3.org/2000/svg">
<path d="M5.29859 5.63546C7.23078 3.68181 9.87224 2.5546 12.6484 2.49902C20.8939 2.49902 45.2994 19.4444 60.596 31.4697C61.9194 32.5093 62.9875 33.8268 63.7215 35.325C64.4555 36.8233 64.8365 38.4639 64.8365 40.1257C64.8365 41.7875 64.4555 43.4281 63.7215 44.9263C62.9875 46.4245 61.9194 47.7421 60.596 48.7817C45.2994 60.8211 20.8939 77.7382 12.6484 77.7382C9.87224 77.6827 7.23078 76.5554 5.29859 74.6018M5.29859 5.63546C3.3664 7.58911 2.29981 10.2112 2.33073 12.9313V67.306C2.29981 70.0261 3.3664 72.6481 5.29859 74.6018M5.29859 5.63546L30.1412 29.3514L54.9838 53.0673M5.29859 74.6018L54.9838 27.2263" stroke="#E95322" stroke-width="4.36703" stroke-linecap="round" stroke-linejoin="round"/>
</svg>
