<svg width="210" height="262" viewBox="0 0 210 262" fill="none" xmlns="http://www.w3.org/2000/svg">
<path d="M35.5957 223.035L26.9535 239.796V247.602H20.0884V239.796L11.4462 223.035H19.2521L23.5732 232.513L27.8943 223.035H35.5957ZM44.3834 223.035V237.287C44.3834 238.612 44.6854 239.634 45.2894 240.354C45.9167 241.074 46.8576 241.434 48.1121 241.434C49.3666 241.434 50.3075 241.074 50.9348 240.354C51.5853 239.611 51.9105 238.588 51.9105 237.287V223.035H58.7407V237.287C58.7407 239.541 58.2644 241.469 57.3119 243.072C56.3594 244.652 55.0584 245.848 53.409 246.661C51.7827 247.451 49.9706 247.846 47.9727 247.846C45.9748 247.846 44.1859 247.451 42.6061 246.661C41.0496 245.848 39.8183 244.652 38.9123 243.072C38.0294 241.492 37.588 239.564 37.588 237.287V223.035H44.3834ZM91.1811 223.035V247.602H84.3509V234.046L79.7161 247.602H74.0011L69.3315 233.942V247.602H62.5013V223.035H70.7602L76.9283 238.995L82.957 223.035H91.1811Z" fill="#FF642F"/>
<path d="M111.901 251.714L109.182 247.637C108.416 247.777 107.638 247.846 106.848 247.846C104.548 247.846 102.434 247.312 100.505 246.243C98.5771 245.151 97.0438 243.653 95.9054 241.748C94.7903 239.82 94.2327 237.647 94.2327 235.231C94.2327 232.815 94.7903 230.655 95.9054 228.75C97.0438 226.821 98.5771 225.323 100.505 224.254C102.434 223.186 104.548 222.651 106.848 222.651C109.171 222.651 111.285 223.186 113.19 224.254C115.118 225.323 116.64 226.821 117.755 228.75C118.87 230.655 119.428 232.815 119.428 235.231C119.428 237.252 119.021 239.123 118.208 240.842C117.395 242.538 116.28 243.955 114.863 245.093L120.055 251.714H111.901ZM101.202 235.231C101.202 237.16 101.702 238.693 102.701 239.831C103.7 240.946 105.082 241.504 106.848 241.504C108.59 241.504 109.961 240.935 110.96 239.796C111.982 238.658 112.493 237.136 112.493 235.231C112.493 233.28 111.982 231.747 110.96 230.631C109.961 229.493 108.59 228.924 106.848 228.924C105.082 228.924 103.7 229.493 102.701 230.631C101.702 231.747 101.202 233.28 101.202 235.231ZM129.223 223.035V237.287C129.223 238.612 129.525 239.634 130.129 240.354C130.756 241.074 131.697 241.434 132.952 241.434C134.206 241.434 135.147 241.074 135.774 240.354C136.425 239.611 136.75 238.588 136.75 237.287V223.035H143.58V237.287C143.58 239.541 143.104 241.469 142.152 243.072C141.199 244.652 139.898 245.848 138.249 246.661C136.622 247.451 134.81 247.846 132.812 247.846C130.814 247.846 129.025 247.451 127.446 246.661C125.889 245.848 124.658 244.652 123.752 243.072C122.869 241.492 122.428 239.564 122.428 237.287V223.035H129.223ZM154.171 223.035V247.602H147.341V223.035H154.171ZM157.224 235.266C157.224 232.85 157.724 230.701 158.723 228.819C159.745 226.914 161.185 225.439 163.044 224.394C164.902 223.325 167.04 222.791 169.456 222.791C172.523 222.791 175.101 223.615 177.192 225.265C179.283 226.891 180.63 229.11 181.234 231.921H173.882C173.44 230.991 172.825 230.283 172.035 229.795C171.268 229.307 170.374 229.063 169.351 229.063C167.772 229.063 166.505 229.632 165.553 230.771C164.624 231.886 164.159 233.384 164.159 235.266C164.159 237.171 164.624 238.693 165.553 239.831C166.505 240.946 167.772 241.504 169.351 241.504C170.374 241.504 171.268 241.26 172.035 240.772C172.825 240.284 173.44 239.576 173.882 238.646H181.234C180.63 241.457 179.283 243.688 177.192 245.337C175.101 246.963 172.523 247.777 169.456 247.777C167.04 247.777 164.902 247.254 163.044 246.208C161.185 245.14 159.745 243.664 158.723 241.783C157.724 239.878 157.224 237.706 157.224 235.266ZM199 247.602L191.299 236.834V247.602H184.469V223.035H191.299V233.628L198.931 223.035H206.806L197.781 234.953L207.259 247.602H199Z" fill="#F8F8F8"/>
<path d="M191.573 95.0341C205.451 80.2062 209.851 57.2115 202.429 38.3076C195.007 19.4036 176.137 5.54541 155.878 4.12056C125.171 1.96058 93.2106 31.0723 91.9393 61.8316C91.6283 69.354 93.6982 77.8855 100.238 81.6159C106.325 85.0879 114.633 82.866 119.199 77.5503C123.765 72.2347 124.914 64.5728 123.475 57.7145C122.036 50.8562 118.293 44.6905 113.995 39.1558C99.4869 20.4732 79.3632 2.34508 54.1217 4.12056C33.8632 5.54577 14.9931 19.4036 7.57087 38.3076C0.148613 57.2115 4.54928 80.2062 18.4266 95.0341" stroke="#FF642F" stroke-width="6.18942" stroke-miterlimit="10" stroke-linecap="round" stroke-linejoin="round"/>
<path d="M133.79 159.779L113.257 179.754C108.738 184.15 101.496 183.986 97.1812 179.389C91.3888 173.217 83.5972 165.024 78.2056 159.779" stroke="#FF642F" stroke-width="6.18942" stroke-miterlimit="10" stroke-linecap="round" stroke-linejoin="round"/>
<path d="M60.1722 140.632C68.6965 132.69 66.6081 116.594 55.5076 104.679C44.4071 92.7642 28.4981 89.5435 19.9738 97.4853C11.4495 105.427 13.5379 121.524 24.6384 133.439C35.7389 145.353 51.648 148.574 60.1722 140.632Z" stroke="#FF642F" stroke-width="6.18942" stroke-miterlimit="10" stroke-linecap="round" stroke-linejoin="round"/>
<path d="M187.221 101.035L158.85 134.014" stroke="#FF642F" stroke-width="6.18942" stroke-miterlimit="10" stroke-linecap="round" stroke-linejoin="round"/>
<path d="M147.73 119.117L169.102 96.4803C179.807 86.9031 205.789 106.548 194.144 121.744L172.982 144.16" stroke="#FF642F" stroke-width="6.18942" stroke-miterlimit="10" stroke-linecap="round" stroke-linejoin="round"/>
</svg>
