<svg width="210" height="262" viewBox="0 0 210 262" fill="none" xmlns="http://www.w3.org/2000/svg">
<path d="M35.5957 223.035L26.9535 239.796V247.602H20.0884V239.796L11.4462 223.035H19.2521L23.5732 232.513L27.8943 223.035H35.5957ZM44.3834 223.035V237.287C44.3834 238.612 44.6854 239.634 45.2894 240.354C45.9167 241.074 46.8576 241.434 48.1121 241.434C49.3666 241.434 50.3075 241.074 50.9348 240.354C51.5853 239.611 51.9105 238.588 51.9105 237.287V223.035H58.7407V237.287C58.7407 239.541 58.2644 241.469 57.3119 243.072C56.3594 244.652 55.0584 245.848 53.409 246.661C51.7827 247.451 49.9706 247.846 47.9727 247.846C45.9748 247.846 44.1859 247.451 42.6061 246.661C41.0496 245.848 39.8183 244.652 38.9123 243.072C38.0294 241.492 37.588 239.564 37.588 237.287V223.035H44.3834ZM91.1811 223.035V247.602H84.3509V234.046L79.7161 247.602H74.0011L69.3315 233.942V247.602H62.5013V223.035H70.7602L76.9283 238.995L82.957 223.035H91.1811Z" fill="#F5CB58"/>
<path d="M112.702 251.784L109.566 247.567C108.636 247.753 107.73 247.846 106.848 247.846C104.548 247.846 102.434 247.312 100.505 246.243C98.6003 245.175 97.0786 243.688 95.9402 241.783C94.8251 239.854 94.2675 237.694 94.2675 235.301C94.2675 232.908 94.8251 230.759 95.9402 228.854C97.0786 226.949 98.6003 225.462 100.505 224.394C102.434 223.325 104.548 222.791 106.848 222.791C109.148 222.791 111.25 223.325 113.155 224.394C115.083 225.462 116.593 226.949 117.685 228.854C118.8 230.759 119.358 232.908 119.358 235.301C119.358 237.392 118.928 239.309 118.069 241.051C117.232 242.77 116.059 244.199 114.549 245.337L119.916 251.784H112.702ZM100.366 235.301C100.366 237.462 100.947 239.192 102.108 240.493C103.293 241.771 104.873 242.41 106.848 242.41C108.799 242.41 110.356 241.759 111.517 240.458C112.702 239.157 113.294 237.438 113.294 235.301C113.294 233.14 112.702 231.421 111.517 230.144C110.356 228.843 108.799 228.192 106.848 228.192C104.873 228.192 103.293 228.831 102.108 230.109C100.947 231.386 100.366 233.117 100.366 235.301ZM128.596 223.139V237.775C128.596 239.239 128.956 240.366 129.676 241.155C130.396 241.945 131.453 242.34 132.847 242.34C134.241 242.34 135.31 241.945 136.053 241.155C136.797 240.366 137.168 239.239 137.168 237.775V223.139H143.127V237.74C143.127 239.924 142.663 241.771 141.733 243.281C140.804 244.791 139.55 245.93 137.97 246.696C136.413 247.463 134.671 247.846 132.743 247.846C130.814 247.846 129.084 247.475 127.55 246.731C126.04 245.964 124.844 244.826 123.961 243.316C123.078 241.783 122.637 239.924 122.637 237.74V223.139H128.596ZM153.271 223.139V247.602H147.312V223.139H153.271ZM156.579 235.336C156.579 232.92 157.101 230.771 158.147 228.889C159.192 226.984 160.644 225.509 162.503 224.463C164.384 223.395 166.51 222.86 168.88 222.86C171.784 222.86 174.27 223.627 176.337 225.16C178.405 226.694 179.787 228.784 180.484 231.433H173.933C173.445 230.411 172.748 229.632 171.842 229.098C170.959 228.564 169.948 228.297 168.81 228.297C166.975 228.297 165.488 228.935 164.35 230.213C163.211 231.491 162.642 233.199 162.642 235.336C162.642 237.473 163.211 239.181 164.35 240.458C165.488 241.736 166.975 242.375 168.81 242.375C169.948 242.375 170.959 242.108 171.842 241.574C172.748 241.039 173.445 240.261 173.933 239.239H180.484C179.787 241.887 178.405 243.978 176.337 245.511C174.27 247.021 171.784 247.777 168.88 247.777C166.51 247.777 164.384 247.254 162.503 246.208C160.644 245.14 159.192 243.664 158.147 241.783C157.101 239.901 156.579 237.752 156.579 235.336ZM198.316 247.602L190.092 236.799V247.602H184.133V223.139H190.092V233.872L198.247 223.139H205.251L195.773 235.127L205.6 247.602H198.316Z" fill="#F8F8F8"/>
<path d="M191.573 95.0341C205.451 80.2062 209.851 57.2115 202.429 38.3076C195.007 19.4036 176.137 5.54541 155.878 4.12056C125.171 1.96058 93.2106 31.0723 91.9393 61.8316C91.6283 69.354 93.6982 77.8855 100.238 81.6159C106.325 85.0879 114.633 82.866 119.199 77.5503C123.765 72.2347 124.914 64.5728 123.475 57.7145C122.036 50.8562 118.293 44.6905 113.995 39.1558C99.4869 20.4732 79.3632 2.34508 54.1217 4.12056C33.8632 5.54577 14.9931 19.4036 7.57087 38.3076C0.148613 57.2115 4.54928 80.2062 18.4266 95.0341" stroke="#F5CB58" stroke-width="6.18942" stroke-miterlimit="10" stroke-linecap="round" stroke-linejoin="round"/>
<path d="M133.79 159.779L113.257 179.754C108.738 184.15 101.496 183.986 97.1813 179.389C91.3889 173.217 83.5973 165.024 78.2056 159.779" stroke="#F5CB58" stroke-width="6.18942" stroke-miterlimit="10" stroke-linecap="round" stroke-linejoin="round"/>
<path d="M60.1722 140.632C68.6965 132.69 66.6081 116.594 55.5076 104.679C44.4071 92.7642 28.498 89.5435 19.9737 97.4853C11.4494 105.427 13.5379 121.524 24.6384 133.439C35.7389 145.353 51.6479 148.574 60.1722 140.632Z" stroke="#F5CB58" stroke-width="6.18942" stroke-miterlimit="10" stroke-linecap="round" stroke-linejoin="round"/>
<path d="M187.221 101.035L158.85 134.014" stroke="#F5CB58" stroke-width="6.18942" stroke-miterlimit="10" stroke-linecap="round" stroke-linejoin="round"/>
<path d="M147.73 119.117L169.102 96.4803C179.807 86.9031 205.789 106.548 194.144 121.744L172.982 144.16" stroke="#F5CB58" stroke-width="6.18942" stroke-miterlimit="10" stroke-linecap="round" stroke-linejoin="round"/>
</svg>
