<svg width="76" height="54" viewBox="0 0 76 54" fill="none" xmlns="http://www.w3.org/2000/svg">
<path d="M13.6403 50.8481V27.5483C13.6587 21.1278 16.2174 14.9756 20.7574 10.4355C25.2975 5.89554 31.4497 3.33683 37.8702 3.31836C44.2908 3.33683 50.443 5.89554 54.983 10.4355C59.523 14.9756 62.0818 21.1278 62.1002 27.5483V50.8083M27.1102 19.8381C28.2037 17.9522 29.7729 16.3863 31.661 15.2966C33.5491 14.2069 35.6902 13.6315 37.8702 13.6282C40.0516 13.6318 42.1938 14.207 44.0835 15.2966C45.9732 16.3862 47.5444 17.9521 48.6403 19.8381M71.4302 30.9482C69.6202 28.0582 65.8802 27.3583 62.6602 27.2683H62.1002V50.9082C64.4584 51.0359 66.809 50.5466 68.9202 49.4883C71.6202 47.8283 72.6802 44.4884 73.0002 41.5684C73.1107 40.5721 73.1674 39.5707 73.1702 38.5684C73.3149 35.9156 72.7121 33.2753 71.4302 30.9482ZM4.34026 30.9482C6.16026 28.0582 9.90029 27.3583 13.1203 27.2683H13.6702V50.9082C11.3154 51.0351 8.96818 50.5457 6.86028 49.4883C4.16028 47.8283 3.1002 44.4884 2.7802 41.5684C2.66972 40.5721 2.61305 39.5707 2.61028 38.5684C2.46192 35.9165 3.06133 33.2761 4.34026 30.9482Z" stroke="#E95322" stroke-width="5" stroke-linecap="round" stroke-linejoin="round"/>
</svg>
