<svg width="70" height="66" viewBox="0 0 70 66" fill="none" xmlns="http://www.w3.org/2000/svg">
<path d="M35.0324 10.6761C35.0324 10.6761 33.6562 11.8199 32.2323 13.8573M29.2023 24.6761C28.7324 20.0641 30.5169 16.3121 32.2323 13.8573M32.2323 13.8573C33.8842 11.5017 35.9349 9.67826 38.0322 8.29095M38.0322 8.29095C41.7248 5.84844 45.5621 4.75793 47.622 4.49582C50.0302 4.40006 52.4328 4.79388 54.6845 5.65329C56.9361 6.5127 58.9901 7.81985 60.7221 9.49582C68.2121 16.8358 69.3119 30.6759 62.5419 38.8459C55.7719 47.0159 44.6722 50.636 37.8422 58.946C36.7356 60.2681 35.7921 61.7183 35.0321 63.2658C34.2756 61.7187 33.3357 60.2684 32.2323 58.946C25.3923 50.636 14.3619 47.0959 7.52187 38.8459C0.681868 30.5959 1.85218 16.8458 9.34218 9.49582C13.3548 4.69588 22.5322 -1.51395 38.0322 8.29095Z" stroke="#E95322" stroke-width="5" stroke-linecap="round" stroke-linejoin="round"/>
</svg>
