<svg width="76" height="67" viewBox="0 0 76 67" fill="none" xmlns="http://www.w3.org/2000/svg">
<path d="M63.2768 22.5469V52.0339C63.2768 55.2165 62.0125 58.2686 59.7621 60.519C57.5116 62.7695 54.4594 64.0339 51.2768 64.0339H46.1668V52.824C46.1668 50.6757 45.3134 48.6152 43.7944 47.0962C42.2753 45.5771 40.2151 44.7239 38.0668 44.7239C35.9186 44.7239 33.8583 45.5771 32.3392 47.0962C30.8202 48.6152 29.9668 50.6757 29.9668 52.824V64.0339H24.8568C21.6742 64.0339 18.622 62.7695 16.3715 60.519C14.1211 58.2686 12.8568 55.2165 12.8568 52.0339V22.547M72.8969 33.074L50.5168 8.58398C48.937 6.85396 47.014 5.47201 44.8704 4.52661C42.7268 3.58121 40.4097 3.09302 38.0668 3.09302C35.724 3.09302 33.4069 3.58121 31.2633 4.52661C29.1197 5.47201 27.1966 6.85396 25.6168 8.58398L3.23682 33.074" stroke="#E95322" stroke-width="5" stroke-linecap="round" stroke-linejoin="round"/>
</svg>
