<svg width="73" height="72" viewBox="0 0 73 72" fill="none" xmlns="http://www.w3.org/2000/svg">
<path d="M36.5494 19.282V41.382M36.5493 68.6221C36.5493 68.6221 59.6893 70.3219 67.8193 48.9219C70.9892 40.4762 70.9892 31.1676 67.8193 22.7219C59.6893 1.33192 36.5493 3.03198 36.5493 3.03198C36.5493 3.03198 13.3992 1.33192 5.27925 22.7219C2.0993 31.1658 2.0993 40.478 5.27925 48.9219C13.3892 70.3219 36.5493 68.6221 36.5493 68.6221Z" stroke="#E95322" stroke-width="5" stroke-linecap="round" stroke-linejoin="round"/>
<path d="M38.8943 55.407C38.8943 56.7877 37.775 57.907 36.3943 57.907C35.0136 57.907 33.8943 56.7877 33.8943 55.407C33.8943 54.0263 35.0136 52.907 36.3943 52.907C37.775 52.907 38.8943 54.0263 38.8943 55.407Z" fill="#E95322"/>
</svg>
