<svg width="81" height="80" viewBox="0 0 81 80" fill="none" xmlns="http://www.w3.org/2000/svg">
<path d="M45.5318 77.6334L43.488 77.7382H37.4615L35.4177 77.6334H35.0771L33.9766 77.5548H33.374L32.4177 77.4631L31.1076 77.319H30.78C18.9498 75.8517 7.22438 70.8864 4.36836 57.5103C3.1159 52.0039 2.5831 46.3583 2.78319 40.7148C2.62826 35.3554 3.12539 29.9971 4.26361 24.7577L4.35525 24.666C5.91427 18.05 8.92753 11.9581 14.5348 8.27669C21.6879 3.58653 30.5966 2.49914 38.7979 2.49914H42.1385C50.3528 2.48604 59.2616 3.58653 66.4016 8.27669C72.0089 11.9581 75.0221 18.1155 76.5942 24.666L76.6728 24.7577C77.811 29.9971 78.3081 35.3554 78.1532 40.7148C78.3597 46.3584 77.8268 52.0049 76.568 57.5103C73.7382 70.8864 61.9472 75.8124 50.1563 77.319H49.8419L48.5318 77.4631L47.5624 77.5548H46.9729L45.8723 77.6334H45.5318Z" stroke="#E95322" stroke-width="4.36703" stroke-linejoin="round"/>
</svg>
