<svg width="38" height="54" viewBox="0 0 38 54" fill="none" xmlns="http://www.w3.org/2000/svg">
<path d="M18.8817 51.4763V24.2964H30.9515C31.6449 24.2891 32.323 24.0908 32.911 23.7231C33.4989 23.3555 33.9739 22.8329 34.284 22.2126C34.5941 21.5924 34.7274 20.8987 34.6688 20.2078C34.6101 19.5168 34.3617 18.8555 33.9515 18.2964L24.5418 5.90649C23.8797 5.03228 23.0238 4.32309 22.0418 3.83496C21.0598 3.34683 19.9783 3.09302 18.8817 3.09302C17.785 3.09302 16.7035 3.34683 15.7215 3.83496C14.7395 4.32309 13.8836 5.03228 13.2215 5.90649L3.81183 18.2964C3.40163 18.8555 3.15319 19.5168 3.09455 20.2078C3.0359 20.8987 3.16921 21.5924 3.47931 22.2126C3.78942 22.8329 4.26443 23.3555 4.85236 23.7231C5.44029 24.0908 6.11846 24.2891 6.81183 24.2964H9.38166" stroke="#E95322" stroke-width="5" stroke-linecap="round" stroke-linejoin="round"/>
</svg>
