<svg width="74" height="72" viewBox="0 0 74 72" fill="none" xmlns="http://www.w3.org/2000/svg">
<path d="M26.9396 35.8219H60.0296M46.8096 35.8219V42.3119M55.4896 35.8219V45.8319M21.1596 24.7919C24.3574 24.7919 26.9496 27.3842 26.9496 30.5819V41.0619C26.9496 44.2597 24.3574 46.8519 21.1596 46.8519C17.9619 46.8519 15.3696 44.2597 15.3696 41.0619V30.5819C15.3696 27.3842 17.9619 24.7919 21.1596 24.7919ZM37.0295 68.6118C37.0295 68.6118 60.1796 70.3119 68.2996 48.9219C71.4695 40.4762 71.4695 31.1676 68.2996 22.7219C60.1796 1.33192 37.0295 3.03198 37.0295 3.03198C37.0295 3.03198 13.8795 1.33192 5.75952 22.7219C2.5896 31.1676 2.5896 40.4762 5.75952 48.9219C13.8795 70.3119 37.0295 68.6118 37.0295 68.6118Z" stroke="#E95322" stroke-width="5" stroke-linecap="round" stroke-linejoin="round"/>
</svg>
