<svg width="64" height="50" viewBox="0 0 64 50" fill="none" xmlns="http://www.w3.org/2000/svg">
<path d="M2.49438 27.8145L25.4944 36.5347C29.4025 37.9943 33.7061 37.9943 37.6143 36.5347L60.6143 27.8145M2.49438 36.7146L25.4944 45.4346C29.4025 46.8942 33.7061 46.8942 37.6143 45.4346L60.6143 36.7146M55.7444 9.97461L36.7444 3.47461C33.373 2.32487 29.7156 2.32487 26.3442 3.47461L7.34424 9.97461C6.19119 10.3721 5.19098 11.1195 4.48291 12.1126C3.77484 13.1056 3.39429 14.295 3.39429 15.5147C3.39429 16.7343 3.77484 17.9234 4.48291 18.9165C5.19098 19.9096 6.19119 20.6572 7.34424 21.0547L26.1042 27.4746C29.6042 28.6746 33.4043 28.6746 36.9043 27.4746L55.6643 21.0547C56.8203 20.6656 57.826 19.9252 58.5413 18.9373C59.2566 17.9493 59.6457 16.7629 59.6545 15.5432C59.6633 14.3235 59.2915 13.1313 58.5906 12.1331C57.8896 11.1349 56.8946 10.3804 55.7444 9.97461Z" stroke="#E95322" stroke-width="5" stroke-linecap="round" stroke-linejoin="round"/>
</svg>
