<svg width="85" height="80" viewBox="0 0 85 80" fill="none" xmlns="http://www.w3.org/2000/svg">
<path d="M45.9871 25.0527V76.5527L59.6072 67.6028C61.9761 66.0442 63.9206 63.9215 65.2664 61.4255C66.6121 58.9296 67.3168 56.1384 67.3172 53.3027V51.3628M45.9871 25.0527V76.5327L24.6472 62.5327M45.9871 25.0527C45.9847 23.8617 45.6864 22.6899 45.1192 21.6426M24.6472 62.5327V7.1626M24.6472 62.5327L13.5171 69.8528C12.5219 70.5044 11.3688 70.8745 10.1802 70.9238C8.99165 70.9731 7.81193 70.6998 6.76615 70.1328C5.72038 69.5658 4.84776 68.7263 4.24052 67.7034C3.63328 66.6804 3.31415 65.5123 3.31718 64.3228V24.3228C3.31561 23.3587 3.55431 22.4096 4.01176 21.561C4.46921 20.7125 5.13086 19.9912 5.93705 19.4626L24.6472 7.1626M45.1192 21.6426C44.5519 20.5953 43.7334 19.7054 42.7371 19.0527L24.6472 7.1626M45.1192 21.6426L52.2971 16.2027M3.31714 57.3227L24.6571 43.3727L45.9871 57.3727M67.2071 23.0527C68.2424 23.1108 69.2701 22.8455 70.148 22.2937C71.0259 21.7419 71.7107 20.9308 72.1073 19.9727C72.6073 18.6517 72.6073 17.1937 72.1073 15.8728C71.6672 14.9472 70.9737 14.1654 70.1073 13.6179C69.2408 13.0705 68.2371 12.7798 67.2122 12.7798C66.1874 12.7798 65.1834 13.0705 64.317 13.6179C63.4506 14.1654 62.7572 14.9472 62.3172 15.8728C61.8171 17.1937 61.8171 18.6517 62.3172 19.9727C62.7132 20.9291 63.3962 21.7391 64.272 22.2908C65.1479 22.8425 66.1735 23.1087 67.2071 23.0527ZM81.2771 12.0326C77.8371 2.97264 68.4071 3.12253 67.2771 3.17253C66.1471 3.22253 56.7672 2.97264 53.3272 12.0326C51.9523 15.8466 51.8926 20.0108 53.1573 23.8627C55.4673 31.6827 61.8171 39.0325 67.2671 43.9325C72.7171 39.0325 79.0672 31.6827 81.3772 23.8627C82.6645 20.0186 82.6292 15.8544 81.2771 12.0326Z" stroke="#E95322" stroke-width="5" stroke-linecap="round" stroke-linejoin="round"/>
</svg>
