<svg width="58" height="75" viewBox="0 0 58 75" fill="none" xmlns="http://www.w3.org/2000/svg">
<path d="M29.1152 50.91V56.96M13.0152 28.9649V19.0901C13.0284 14.8268 14.7278 10.7419 17.7424 7.72729C20.757 4.71269 24.8419 3.01319 29.1052 3C33.3685 3.01319 37.4534 4.71269 40.468 7.72729C43.4826 10.7419 45.182 14.8268 45.1952 19.0901V28.9763M29.1052 71.8101C29.1052 71.8101 47.1052 73.03 53.3652 57.68C55.8255 51.6582 55.8255 44.9119 53.3652 38.8902C47.0652 23.5502 29.1052 24.77 29.1052 24.77C29.1052 24.77 11.1052 23.5502 4.84523 38.8902C2.38492 44.9119 2.38492 51.6582 4.84523 57.68C11.1452 73.03 29.1052 71.8101 29.1052 71.8101ZM29.1052 50.9199C29.1052 50.9199 33.1952 51.1899 34.6352 47.6999C35.1949 46.3247 35.1949 44.7851 34.6352 43.4099C33.1952 39.9199 29.1052 40.1999 29.1052 40.1999C29.1052 40.1999 25.0152 39.9199 23.5752 43.4099C23.0155 44.7851 23.0155 46.3247 23.5752 47.6999C25.0152 51.1899 29.1052 50.9199 29.1052 50.9199Z" stroke="#E95322" stroke-width="5" stroke-linecap="round" stroke-linejoin="round"/>
</svg>
