<svg width="67" height="75" viewBox="0 0 67 75" fill="none" xmlns="http://www.w3.org/2000/svg">
<path d="M3.35254 37.3663H36.0725M27.6625 28.5564L34.1328 33.4663C34.7356 33.9233 35.2244 34.5137 35.561 35.1912C35.8976 35.8686 36.0727 36.6148 36.0727 37.3713C36.0727 38.1278 35.8976 38.874 35.561 39.5515C35.2244 40.229 34.7356 40.8194 34.1328 41.2764L27.6625 46.1863M49.4425 15.8163V58.9163M16.2324 51.0463C22.2324 73.3863 39.1723 71.6064 39.1723 71.6064C39.1723 71.6064 56.1725 73.3863 62.1025 51.0463C64.4325 42.0751 64.4325 32.6574 62.1025 23.6862C56.1025 1.35622 39.1723 3.12616 39.1723 3.12616C39.1723 3.12616 22.1724 1.35622 16.2324 23.6862" stroke="#E95322" stroke-width="5" stroke-linecap="round" stroke-linejoin="round"/>
</svg>
