<svg width="71" height="94" viewBox="0 0 71 94" fill="none" xmlns="http://www.w3.org/2000/svg">
<path d="M67.931 70.6278C67.6384 69.9625 67.106 69.4346 66.4418 69.1512C61.9847 66.9734 58.8052 61.0131 58.791 53.8779C58.791 47.6311 61.2892 42.2152 64.9655 39.5503C65.2792 39.3163 65.5419 39.0196 65.7369 38.6786C65.932 38.3377 66.0553 37.9598 66.0992 37.5686C66.1432 37.1774 66.1068 36.7812 65.9923 36.4048C65.8778 36.0285 65.6879 35.6799 65.434 35.381C61.4028 30.7388 55.7108 27.6297 49.5647 28.4321C45.7748 28.9335 42.5384 31.6415 38.6775 32.057C35.8245 32.3578 33.6387 31.183 31.1546 30.0797C28.8116 28.97 26.2661 28.3627 23.6789 28.2961C21.0916 28.2296 18.5189 28.7052 16.1229 29.6929C-4.34538 38.3468 1.26129 67.3602 10.7005 82.218C14.4762 88.2499 21.2754 94.1243 28.6706 90.3704C31.9637 88.7228 35.1858 85.6996 39.1319 86.7455C44.6251 88.2213 48.3298 93.7231 54.3766 90.7716C62.3396 86.8602 66.4276 77.4612 68.0173 72.7331C68.2545 72.0457 68.2237 71.293 67.931 70.6278Z" stroke="#E95322" stroke-width="4.36703" stroke-linecap="round" stroke-linejoin="round"/>
<path d="M36.7613 21.3828C36.7613 21.3828 32.0062 3.37301 49.5363 2.49902C49.5788 2.49902 54.5469 17.8439 36.7613 21.3828Z" stroke="#E95322" stroke-width="4.36703" stroke-linecap="round" stroke-linejoin="round"/>
</svg>
