<svg width="66" height="70" viewBox="0 0 66 70" fill="none" xmlns="http://www.w3.org/2000/svg">
<path d="M45.7674 3V24.7M45.7674 45.44V67.14M54.4774 67.1399H36.3474C15.2474 67.1399 4.07737 53.64 3.44737 36.25C2.79737 18.0301 14.1374 3.00005 35.4974 3.00005H55.4074C57.432 3.00005 59.3736 3.80356 60.8061 5.23418C62.2386 6.6648 63.0447 8.60541 63.0473 10.6299V17.3899C63.0473 19.3287 62.2772 21.188 60.9063 22.5589C59.5355 23.9298 57.6761 24.7 55.7374 24.7H35.8474C30.6274 24.7 25.6373 28.9199 25.1773 34.1199C25.0469 35.5549 25.2167 37.0014 25.6758 38.3672C26.1349 39.7331 26.8732 40.9882 27.844 42.053C28.8147 43.1179 29.9965 43.969 31.3142 44.5521C32.6318 45.1352 34.0565 45.4376 35.4974 45.44H54.4974C56.7703 45.44 58.9502 46.3428 60.5574 47.95C62.1645 49.5572 63.0674 51.7372 63.0674 54.0101V58.5701C63.0674 59.6972 62.8451 60.8132 62.4132 61.8543C61.9813 62.8954 61.3482 63.841 60.5503 64.637C59.7524 65.4331 58.8052 66.064 57.7632 66.4935C56.7211 66.923 55.6045 67.1426 54.4774 67.1399Z" stroke="#E95322" stroke-width="5" stroke-linecap="round" stroke-linejoin="round"/>
</svg>
