<svg width="69" height="87" viewBox="0 0 69 87" fill="none" xmlns="http://www.w3.org/2000/svg">
<path d="M59.6648 77.3591C58.4065 73.1423 59.8792 68.6243 61.5236 64.5365C64.3079 58.0946 65.8275 51.1744 65.9991 44.1552C65.9991 31.4904 61.6237 18.424 52.2292 9.66046C47.4473 5.31051 41.2939 2.78384 34.8437 2.52169C28.3936 2.25953 22.0566 4.27855 16.9395 8.22616C5.77199 16.8319 2.18283 31.3326 2.34012 44.8437V51.3267M48.4972 22.1102C42.892 14.9387 35.1849 12.0701 27.2776 15.5698C21.0718 18.3236 16.925 24.3763 14.8087 30.6442C12.1348 38.5328 13.3789 46.8087 12.5066 54.9555C12.0348 59.5595 10.3904 64.3214 6.78705 67.1613M52.5153 29.4107C54.2834 34.098 55.1753 39.072 55.1462 44.0835C55.116 50.4173 53.6491 56.6612 50.8566 62.3421C49.2694 65.5979 45.9233 71.3351 41.4907 69.0832C37.873 67.2474 38.4736 63.0018 39.5031 59.7603C41.462 53.6072 44.3219 48.286 44.6079 41.6595C44.8796 35.449 42.935 28.923 36.7864 26.3126C35.0365 25.5587 33.0862 25.4102 31.243 25.8907C29.3997 26.3711 27.7681 27.453 26.6054 28.9661C21.3863 36.1375 24.332 44.0835 21.9155 51.9865M31.5959 53.2487C29.2222 59.9038 26.5054 67.8354 28.7361 74.8921C31.4672 83.4979 41.2905 86.4525 49.1835 83.67M20.5142 61.5819C19.7732 64.313 18.7124 66.9466 17.354 69.4275C15.9903 71.9182 14.0233 74.0244 11.6344 75.5519M33.8121 43.9688C34.3639 41.5382 34.5185 39.0338 34.2698 36.5535C34.5808 39.0322 34.4255 41.5474 33.8121 43.9688Z" stroke="#E95322" stroke-width="4.36703" stroke-linecap="round" stroke-linejoin="round"/>
</svg>
