<svg width="61" height="61" viewBox="0 0 61 61" fill="none" xmlns="http://www.w3.org/2000/svg">
<path d="M22.9084 37.3564L4.2584 56.0064M4.42852 40.3264L2.64849 53.2463C2.56944 53.8375 2.62774 54.4391 2.8189 55.0042C3.01006 55.5692 3.32877 56.0824 3.75054 56.5042C4.17231 56.9259 4.68577 57.2449 5.25078 57.436C5.81579 57.6272 6.41714 57.6855 7.00835 57.6064L19.9385 55.8364M37.3584 22.9064L56.5184 3.7464M55.8384 19.9363L57.6084 7.0064C57.6875 6.41519 57.6291 5.81384 57.438 5.24883C57.2468 4.68382 56.9279 4.17035 56.5061 3.74859C56.0843 3.32682 55.5711 3.0081 55.0061 2.81695C54.4411 2.62579 53.8395 2.56748 53.2483 2.64653L40.3284 4.41655M37.3584 37.3564L56.0084 56.0064M40.3284 55.8064L53.2483 57.5764C53.8399 57.6576 54.4423 57.6006 55.0083 57.4102C55.5743 57.2197 56.0885 56.901 56.5107 56.4788C56.933 56.0565 57.252 55.5423 57.4424 54.9763C57.6328 54.4103 57.6895 53.8079 57.6084 53.2163L55.8384 40.2964M22.9084 22.9064L3.7484 3.7464M19.9385 4.41655L7.00835 2.64653C6.41714 2.56748 5.81579 2.62579 5.25078 2.81695C4.68577 3.0081 4.17231 3.32682 3.75054 3.74859C3.32877 4.17035 3.01006 4.68382 2.8189 5.24883C2.62774 5.81384 2.56944 6.41519 2.64849 7.0064L4.42852 19.9363" stroke="#E95322" stroke-width="5" stroke-linecap="round" stroke-linejoin="round"/>
</svg>
