<svg width="32" height="66" viewBox="0 0 32 66" fill="none" xmlns="http://www.w3.org/2000/svg">
<path d="M7.75002 43.5547C6.34989 47.0855 5.28188 50.7523 4.56142 54.503C4.05657 57.3031 3.65799 61.9237 5.9697 63.9398C6.433 64.4082 7.00637 64.7381 7.63082 64.8955C8.25527 65.0529 8.90824 65.0321 9.52255 64.8354C10.1369 64.6386 10.6903 64.2727 11.126 63.7757C11.5617 63.2787 11.8639 62.6688 12.0015 62.0079C12.3469 59.5997 11.6825 48.8747 11.6028 46.1025C11.6028 44.2824 11.6028 42.4343 11.6028 40.5022C11.6028 30.1417 11.2574 12.8933 11.2309 2.53277C11.2092 2.21893 11.103 1.91762 10.9247 1.66524C10.7463 1.41287 10.5033 1.21986 10.2241 1.10808C9.94502 0.99631 9.6414 0.970379 9.34902 1.03425C9.05664 1.09813 8.78768 1.24886 8.57373 1.46836C1.66517 10.2888 -1.28427 21.7698 2.99372 32.6344C3.7162 34.6028 4.89046 36.3515 6.4114 37.7247C7.93233 39.0978 9.75249 40.0519 11.7091 40.5022M22.8957 28.2939C22.5769 34.3422 21.3546 40.2783 20.5574 46.2706C19.8404 50.1068 19.4933 54.0093 19.5212 57.919C19.7337 60.9152 20.77 64.9474 24.2775 64.9754C25.2387 65.006 26.1794 64.6793 26.9346 64.0518C27.7801 63.1522 28.3613 62.0142 28.6086 60.7752C29.0309 58.9439 29.1832 57.055 29.0603 55.1749C29.0603 52.1788 28.396 49.2669 27.9974 46.3267C27.2003 40.3344 25.978 34.3983 25.6591 28.35M21.886 2.08424V16.085M26.7751 16.0009V2.00015M17.5549 2.08424V21.2655C17.5619 23.1421 18.2724 24.94 19.5316 26.267C20.7908 27.5939 22.4967 28.3426 24.2774 28.35C26.0582 28.3426 27.7641 27.5939 29.0233 26.267C30.2825 24.94 30.993 23.1421 31 21.2655V2.08424" stroke="#E95322" stroke-linecap="round" stroke-linejoin="round"/>
</svg>
