<svg width="32" height="63" viewBox="0 0 32 63" fill="none" xmlns="http://www.w3.org/2000/svg">
<path d="M11.28 39.0717C11.28 28.8695 10.8848 11.8846 10.8566 1.68236C10.8336 1.37332 10.7206 1.07661 10.5312 0.828088C10.3417 0.579569 10.0836 0.389509 9.78703 0.279442C9.4905 0.169375 9.16794 0.14384 8.85733 0.206738C8.54671 0.269636 8.26097 0.418071 8.03366 0.63421C0.694136 9.34748 -2.41107 20.6255 2.10557 31.324C3.35668 34.3787 5.76208 36.8467 8.82407 38.2174C9.62117 38.5583 10.4418 38.8434 11.28 39.0717Z" fill="#F5CB58"/>
<path d="M7.38433 41.8842C5.90075 45.3625 4.76624 48.9736 3.99682 52.6659C3.4887 55.4233 3.06526 59.9726 5.49295 61.9855C5.99164 62.437 6.60265 62.753 7.26519 62.9024C7.92773 63.0517 8.61879 63.0295 9.2696 62.8371C9.9204 62.6447 10.5083 62.2889 10.9749 61.8058C11.4415 61.3226 11.7704 60.7289 11.9292 60.0831C12.2679 57.6842 11.5622 47.1237 11.5057 44.4215C11.5057 43.3461 11.5057 42.2703 11.5057 41.2225C10.3806 40.946 9.28427 40.5678 8.23117 40.0922L7.38433 41.8842Z" fill="#F5CB58"/>
<path d="M23.0796 28.6494C22.5997 33.916 21.64 39.4301 20.906 44.5312C20.1317 48.3069 19.7627 52.1517 19.8051 56.0022C20.0027 58.9526 21.1318 62.9233 24.8298 62.9509C25.8535 62.9985 26.8591 62.6741 27.6527 62.0407C28.5603 61.1617 29.1794 60.0388 29.4312 58.8148C29.9052 57.0156 30.0768 55.1531 29.9393 53.3001C29.9393 50.3773 29.2053 47.4816 28.8101 44.5864C28.0762 39.4577 27.0317 34.0257 26.5236 28.7591C26.0295 28.8447 25.5292 28.891 25.0274 28.8971C24.3714 28.8769 23.719 28.7942 23.0796 28.6494Z" fill="#F5CB58"/>
<path d="M32 1.04815C32 0.770255 31.887 0.503473 31.6858 0.306972C31.4846 0.110472 31.2118 6.83317e-08 30.9273 6.83317e-08C30.7877 -4.97328e-05 30.6496 0.0271223 30.521 0.0801091C30.3924 0.133096 30.2759 0.210642 30.1786 0.308319C30.0812 0.405995 30.0049 0.521971 29.9541 0.64895C29.9033 0.77593 29.8791 0.911869 29.8828 1.04815V11.8844H28.0197V1.04815C28.0198 0.774967 27.9107 0.512124 27.7156 0.316397C27.5205 0.12067 27.2548 0.00718904 26.9752 6.83317e-08C26.6908 6.83304e-08 26.4179 0.110472 26.2167 0.306972C26.0155 0.503473 25.9025 0.770255 25.9025 1.04815V11.8844H23.8418V1.04815C23.8419 0.774967 23.7328 0.512124 23.5377 0.316397C23.3426 0.12067 23.077 0.00718904 22.7974 6.83317e-08C22.5129 6.83304e-08 22.24 0.110472 22.0388 0.306972C21.8377 0.503473 21.7247 0.770255 21.7247 1.04815V11.8844H19.8051V1.04815C19.8088 0.911869 19.7846 0.77593 19.7338 0.64895C19.683 0.521971 19.6067 0.405995 19.5093 0.308319C19.412 0.210642 19.2956 0.133096 19.167 0.0801091C19.0384 0.0271223 18.9002 -4.97328e-05 18.7606 6.83317e-08C18.4761 6.83329e-08 18.2032 0.110472 18.0021 0.306972C17.8009 0.503473 17.6879 0.770255 17.6879 1.04815V19.9081C17.6891 21.0379 17.9757 22.1498 18.5223 23.1454C19.0689 24.1411 19.8586 24.9899 20.8214 25.616C21.1222 25.79 21.4332 25.9463 21.7529 26.0846C22.7604 26.5105 23.845 26.7354 24.9428 26.7463C25.5039 26.7485 25.9785 26.7744 26.5236 26.644L27.0035 26.5538L27.5398 26.3606C28.833 25.8416 29.9393 24.9594 30.7183 23.8254C31.4973 22.6913 31.9139 21.3565 31.9153 19.9909V14.835L32 1.04815Z" fill="#F5CB58"/>
</svg>
