<svg width="62" height="78" viewBox="0 0 62 78" fill="none" xmlns="http://www.w3.org/2000/svg">
<path d="M55.145 36.0803C59.565 43.0803 59.1351 51.7605 57.8451 59.5205C55.6851 72.3105 41.6352 74.6104 30.6852 74.6104C23.4952 74.5904 15.3252 73.5605 9.49521 69.0005C2.97521 63.8905 2.84502 58.4804 3.05502 50.8904C3.25502 43.5204 4.005 40.4905 7.19507 35.1104L15.165 21.3704M55.145 36.0803L34.865 47.8103C33.6718 48.5051 32.3158 48.8713 30.9351 48.8713C29.5543 48.8713 28.1983 48.5051 27.0051 47.8103L6.64502 35.9805M55.145 36.0803L46.5849 23.1704M15.165 40.9308V15.3403C15.1516 14.618 15.425 13.9198 15.9255 13.3987C16.426 12.8776 17.1126 12.5761 17.8349 12.5603H43.915C44.6374 12.5761 45.324 12.8776 45.8244 13.3987C46.3249 13.9198 46.5983 14.618 46.5849 15.3403V41.0315M21.705 23.7604H29.375M21.705 32.0604H40.405M20.005 12.5603L23.325 7.30056C26.235 2.02056 32.875 1.74053 36.105 6.77053L40.005 12.5603" stroke="#E95322" stroke-width="5" stroke-linecap="round" stroke-linejoin="round"/>
</svg>
