<svg width="62" height="58" viewBox="0 0 62 58" fill="none" xmlns="http://www.w3.org/2000/svg">
<path d="M6.96436 12.293L27.3245 24.123C28.5177 24.8178 29.8737 25.1838 31.2544 25.1838C32.6351 25.1838 33.9911 24.8178 35.1843 24.123L55.4644 12.3931M30.0144 3.09302C23.9444 3.09302 17.3444 3.84302 12.0144 7.09302C5.22436 11.253 3.55445 19.8431 3.35445 27.2131C3.15445 34.7931 3.2844 44.3731 9.8044 49.4731C15.6244 54.0331 23.8043 55.063 30.9843 55.083C41.9843 55.083 55.9845 52.7732 58.1445 39.9832C59.4445 32.2232 60.1443 19.823 55.7243 12.863C51.8143 6.67304 43.9444 4.23317 37.0444 3.50317C34.7094 3.24855 32.3631 3.11155 30.0144 3.09302Z" stroke="#E95322" stroke-width="5" stroke-linecap="round" stroke-linejoin="round"/>
</svg>
