<svg width="60" height="78" viewBox="0 0 60 78" fill="none" xmlns="http://www.w3.org/2000/svg">
<path d="M56.559 39.187C56.5431 46.343 53.6934 53.2012 48.6333 58.2612C43.5733 63.3213 36.7149 66.1712 29.559 66.187C22.403 66.1712 15.5447 63.3213 10.4846 58.2612C5.42457 53.2012 2.57481 46.343 2.55896 39.187M13.59 35.7969H45.5606M29.579 52.1069C29.579 52.1069 17.9791 53.8568 13.9791 37.5768C12.3989 31.0241 12.3989 24.1897 13.9791 17.6369C18.0291 1.33691 29.579 2.63691 29.579 2.63691C29.579 2.63691 41.119 1.33691 45.169 17.6369C46.7591 24.1885 46.7591 31.0253 45.169 37.5768C41.119 53.8668 29.579 52.1069 29.579 52.1069ZM29.579 52.1069V75.0169M12.819 26.1269H20.529M14.119 17.0869H20.529M38.999 17.0869H45.039M38.619 26.1269H46.359M20.529 75.0169H38.619" stroke="#E95322" stroke-width="5" stroke-linecap="round" stroke-linejoin="round"/>
</svg>
