<svg width="60" height="78" viewBox="0 0 60 78" fill="none" xmlns="http://www.w3.org/2000/svg">
<path d="M56.5591 39.187C56.5406 46.3422 53.6901 53.1988 48.6306 58.2583C43.5711 63.3178 36.7142 66.1685 29.5591 66.187C22.4039 66.1685 15.5472 63.3178 10.4877 58.2583C5.42819 53.1988 2.57756 46.3422 2.55908 39.187M29.407 52.5781C26.1616 52.5399 23.0275 51.3886 20.5291 49.3169M29.407 52.5781C32.6524 52.6163 35.8126 51.5391 38.3591 49.5269C42.0291 46.5269 44.0491 42.0369 45.1591 37.5269C46.7492 30.9753 46.7492 24.1385 45.1591 17.5869M29.407 52.5781L29.5691 75.0169M12.8091 26.1269H20.5191M14.1091 17.0869H20.5191M20.5191 75.0169H38.6091M42.0092 9.84687C37.0092 1.84687 29.5691 2.63691 29.5691 2.63691C29.5691 2.63691 18.0192 1.33691 13.9692 17.6369C12.389 24.1897 12.389 31.0241 13.9692 37.5768C14.3697 39.2336 14.9117 40.8529 15.5892 42.4169M47.3091 3.72692L11.8191 48.5269" stroke="#E95322" stroke-width="5" stroke-linecap="round" stroke-linejoin="round"/>
</svg>
