<svg width="62" height="62" viewBox="0 0 62 62" fill="none" xmlns="http://www.w3.org/2000/svg">
<path d="M2.64429 58.9523L21.9143 40.3523M21.1543 55.9924L22.9443 42.9223C23.024 42.3469 22.9691 41.7609 22.7842 41.2102C22.5993 40.6595 22.2892 40.1591 21.8784 39.7483C21.4676 39.3375 20.9672 39.0274 20.4165 38.8425C19.8658 38.6576 19.2798 38.6027 18.7043 38.6824L5.63427 40.4724M58.9843 2.6123L39.7843 21.8123M40.5043 5.58242L38.7142 18.6422C38.6346 19.2177 38.6892 19.8039 38.8741 20.3546C39.0591 20.9054 39.3691 21.4058 39.7799 21.8166C40.1907 22.2273 40.6911 22.5374 41.2418 22.7223C41.7926 22.9072 42.3788 22.9619 42.9542 22.8822L56.0143 21.0922M58.9843 58.9523L39.7843 39.7523M56.0143 40.4624L42.9542 38.6723C42.3788 38.5927 41.7926 38.6476 41.2418 38.8325C40.6911 39.0174 40.1907 39.3275 39.7799 39.7383C39.3691 40.1491 39.0591 40.6494 38.8741 41.2002C38.6892 41.7509 38.6346 42.3369 38.7142 42.9123L40.5043 55.9824M2.64429 2.6123L21.5243 21.4923M5.60424 21.0922L18.6743 22.8822C19.2498 22.9619 19.8357 22.9072 20.3865 22.7223C20.9372 22.5374 21.4378 22.2273 21.8486 21.8166C22.2594 21.4058 22.5692 20.9054 22.7541 20.3546C22.9391 19.8039 22.9939 19.2177 22.9143 18.6422L21.1243 5.58242" stroke="#E95322" stroke-width="5" stroke-linecap="round" stroke-linejoin="round"/>
</svg>
