<svg width="71" height="67" viewBox="0 0 71 67" fill="none" xmlns="http://www.w3.org/2000/svg">
<path d="M68.249 51.506V9.4059C68.2494 8.47761 68.0428 7.56107 67.644 6.72279C67.2453 5.88452 66.6643 5.14557 65.9438 4.5602C65.2234 3.97482 64.3816 3.55773 63.4795 3.33901C62.5773 3.12028 61.6376 3.10562 60.729 3.29604L30.7988 9.506C29.3871 9.79224 28.1179 10.558 27.2065 11.6735C26.2952 12.789 25.7978 14.1854 25.7988 15.6259V51.506M34.139 20.5861L59.929 15.7961M14.5389 64.2561C14.5389 64.2561 22.2986 64.826 25.0286 57.656C26.0882 54.8218 26.0882 51.7001 25.0286 48.8659C22.2986 41.6859 14.5389 42.2561 14.5389 42.2561C14.5389 42.2561 6.76863 41.6859 4.04863 48.8659C2.989 51.7001 2.989 54.8218 4.04863 57.656C6.76863 64.826 14.5389 64.2561 14.5389 64.2561ZM56.9588 64.2561C56.9588 64.2561 64.719 64.826 67.449 57.656C68.5087 54.8218 68.5087 51.7001 67.449 48.8659C64.719 41.6859 56.9588 42.2561 56.9588 42.2561C56.9588 42.2561 49.1986 41.6859 46.4686 48.8659C45.4089 51.7001 45.4089 54.8218 46.4686 57.656C49.1986 64.826 56.9588 64.2561 56.9588 64.2561Z" stroke="#E95322" stroke-width="5" stroke-linecap="round" stroke-linejoin="round"/>
</svg>
