<svg width="76" height="75" viewBox="0 0 76 75" fill="none" xmlns="http://www.w3.org/2000/svg">
<path d="M25.2168 37.3662H47.2668M38.5068 46.9861L44.897 42.1462C45.6327 41.5865 46.2291 40.8642 46.6396 40.0359C47.0502 39.2076 47.2637 38.2956 47.2637 37.3711C47.2637 36.4466 47.0502 35.5348 46.6396 34.7065C46.2291 33.8783 45.6327 33.156 44.897 32.5962L38.5068 27.7461M37.7967 71.6061C37.7967 71.6061 61.9666 73.3861 70.4466 51.0461C73.7569 42.2265 73.7569 32.5056 70.4466 23.686C61.9666 1.35598 37.7967 3.12617 37.7967 3.12617C37.7967 3.12617 13.6268 1.35598 5.14681 23.686C1.83648 32.5056 1.83648 42.2265 5.14681 51.0461C13.6268 73.3861 37.7967 71.6061 37.7967 71.6061Z" stroke="#E95322" stroke-width="5" stroke-linecap="round" stroke-linejoin="round"/>
</svg>
