<svg width="52" height="73" viewBox="0 0 52 73" fill="none" xmlns="http://www.w3.org/2000/svg">
<path d="M28.7566 66.66C28.6535 67.5251 28.2368 68.3225 27.5853 68.901C26.9338 69.4794 26.0928 69.7989 25.2216 69.7989C24.3503 69.7989 23.5094 69.4794 22.8579 68.901C22.2064 68.3225 21.7897 67.5251 21.6866 66.66M3.63663 45.39C5.18814 41.463 5.76786 37.2194 5.32658 33.0201C5.13634 31.2958 5.17669 29.5536 5.44657 27.8399C6.26911 22.9419 8.80111 18.4942 12.5927 15.2862C16.3843 12.0783 21.1901 10.318 26.1567 10.318C31.1232 10.318 35.929 12.0783 39.7206 15.2862C43.5122 18.4942 46.0441 22.9419 46.8666 27.8399C47.1365 29.5536 47.1769 31.2958 46.9866 33.0201C46.5556 37.2192 47.1351 41.4604 48.6767 45.39C49.3058 46.8748 49.5802 48.4859 49.4783 50.0953C49.3764 51.7047 48.901 53.2681 48.0896 54.6617C47.2783 56.0553 46.1533 57.2409 44.8041 58.1241C43.4549 59.0073 41.9184 59.564 40.3166 59.7501C30.9093 60.8034 21.4139 60.8034 12.0066 59.7501C10.4049 59.5635 8.86851 59.0065 7.5192 58.1234C6.1699 57.2403 5.04465 56.0552 4.23258 54.662C3.42052 53.2687 2.94393 51.7056 2.84049 50.0963C2.73705 48.487 3.00962 46.8757 3.63663 45.39ZM29.8966 6.73C29.8966 8.79002 28.2266 10.46 26.1666 10.46C24.1066 10.46 22.4366 8.79002 22.4366 6.73C22.4366 4.66998 24.1066 3 26.1666 3C28.2266 3 29.8966 4.66998 29.8966 6.73Z" stroke="#E95322" stroke-width="5" stroke-linecap="round" stroke-linejoin="round"/>
</svg>
