<svg width="70" height="72" viewBox="0 0 70 72" fill="none" xmlns="http://www.w3.org/2000/svg">
<path d="M24.6712 46.4839L45.7012 25.4539M41.7212 4.73389C43.6228 6.11301 45.9121 6.85521 48.2612 6.854C50.6081 6.85496 52.8945 7.59828 54.7931 8.97778C56.6917 10.3573 58.1052 12.3022 58.8312 14.5339C59.5463 16.762 60.9461 18.7077 62.8312 20.094C64.7211 21.4814 66.1251 23.4296 66.8433 25.6614C67.5615 27.8932 67.5573 30.2947 66.8312 32.5239C66.0978 34.7552 66.0978 37.1625 66.8312 39.3938C67.5557 41.6232 67.5592 44.0242 66.8411 46.2556C66.123 48.4871 64.7199 50.4356 62.8312 51.824C60.9483 53.2082 59.5488 55.1497 58.8312 57.3738C58.1052 59.6055 56.6917 61.5504 54.7931 62.9299C52.8945 64.3094 50.6081 65.053 48.2612 65.054C45.9111 65.0563 43.6219 65.8018 41.7212 67.1838C39.8231 68.5628 37.5373 69.3054 35.1912 69.3054C32.8451 69.3054 30.5592 68.5628 28.6612 67.1838C26.7604 65.8018 24.4713 65.0563 22.1212 65.054C19.7743 65.053 17.488 64.3094 15.5893 62.9299C13.6907 61.5504 12.2772 59.6055 11.5512 57.3738C10.8373 55.1478 9.43707 53.2052 7.55119 51.824C5.66008 50.4376 4.25515 48.4892 3.53685 46.2571C2.81854 44.0249 2.82356 41.6229 3.55119 39.3938C4.27087 37.1603 4.27087 34.7574 3.55119 32.5239C2.82199 30.2949 2.81617 27.8924 3.53459 25.6599C4.25301 23.4274 5.65888 21.4794 7.55119 20.094C9.43927 18.7106 10.8398 16.7638 11.5512 14.5339C12.2772 12.3022 13.6907 10.3573 15.5893 8.97778C17.488 7.59828 19.7743 6.85496 22.1212 6.854C24.4703 6.85521 26.7595 6.11301 28.6612 4.73389C30.5592 3.35496 32.8451 2.6123 35.1912 2.6123C37.5373 2.6123 39.8231 3.35496 41.7212 4.73389ZM26.9012 30.7339C27.7461 30.7834 28.5855 30.5683 29.3024 30.1184C30.0194 29.6685 30.5782 29.0062 30.9012 28.2239C31.3012 27.1499 31.3012 25.9678 30.9012 24.8938C30.5472 24.1312 29.9825 23.4858 29.2738 23.0334C28.5652 22.5811 27.7419 22.3408 26.9012 22.3408C26.0604 22.3408 25.2372 22.5811 24.5285 23.0334C23.8199 23.4858 23.2552 24.1312 22.9012 24.8938C22.491 25.9659 22.491 27.1518 22.9012 28.2239C23.2153 29.0126 23.7722 29.6808 24.4913 30.1321C25.2104 30.5833 26.0544 30.7941 26.9012 30.7339ZM43.5412 48.9839C44.3868 49.0449 45.2299 48.8356 45.9489 48.3862C46.6678 47.9369 47.2254 47.2707 47.5412 46.4839C47.9412 45.4099 47.9412 44.2278 47.5412 43.1538C47.1872 42.3912 46.6226 41.7458 45.9139 41.2935C45.2052 40.8411 44.3819 40.6008 43.5412 40.6008C42.7004 40.6008 41.8772 40.8411 41.1685 41.2935C40.4598 41.7458 39.8952 42.3912 39.5412 43.1538C39.1411 44.2278 39.1411 45.4099 39.5412 46.4839C39.8569 47.2707 40.4145 47.9369 41.1335 48.3862C41.8524 48.8356 42.6955 49.0449 43.5412 48.9839Z" stroke="#E95322" stroke-width="5" stroke-linecap="round" stroke-linejoin="round"/>
</svg>
