<svg width="58" height="76" viewBox="0 0 58 76" fill="none" xmlns="http://www.w3.org/2000/svg">
<path d="M13.2257 30.24V19.0901C13.2389 14.8268 14.9383 10.7419 17.9529 7.72729C20.9675 4.71269 25.0524 3.01319 29.3157 3C33.579 3.01319 37.6639 4.71269 40.6785 7.72729C43.6931 10.7419 45.3925 14.8268 45.4057 19.0901M29.3157 50.87V57.39M29.3157 50.87C29.3157 50.87 33.4057 51.1501 34.8457 47.6501C35.4059 46.2784 35.4059 44.7417 34.8457 43.3701C33.4057 39.8701 29.3157 40.1501 29.3157 40.1501C29.3157 40.1501 25.2257 39.8701 23.7857 43.3701C23.2255 44.7417 23.2255 46.2784 23.7857 47.6501C25.2257 51.1501 29.3157 50.87 29.3157 50.87ZM29.3157 73.0701C29.3157 73.0701 47.3157 74.29 53.5757 58.94C56.036 52.9182 56.036 46.1719 53.5757 40.1502C47.2757 24.8102 29.3157 26.0301 29.3157 26.0301C29.3157 26.0301 11.3157 24.8102 5.05568 40.1502C2.59537 46.1719 2.59537 52.9182 5.05568 58.94C11.3557 74.29 29.3157 73.0701 29.3157 73.0701Z" stroke="#E95322" stroke-width="5" stroke-linecap="round" stroke-linejoin="round"/>
</svg>
