<svg width="66" height="80" viewBox="0 0 66 80" fill="none" xmlns="http://www.w3.org/2000/svg">
<path d="M15.5088 68.9716L14.8261 73.0347C14.7357 73.6155 14.7722 74.2089 14.9329 74.7743C15.0936 75.3397 15.3748 75.8637 15.7572 76.3104C16.1396 76.7571 16.6142 77.116 17.1484 77.3624C17.6827 77.6088 18.264 77.7369 18.8524 77.7379H27.8106C28.4744 77.7476 29.1199 77.5201 29.6307 77.0967C30.1416 76.6732 30.4842 76.0815 30.597 75.4281L34.3169 53.0809H46.4654C48.7688 53.0728 51.0454 52.5866 53.1507 51.6531C55.2561 50.7197 57.1441 49.3593 58.6951 47.6585C60.2461 45.9576 61.4262 43.9533 62.1606 41.7727C62.8949 39.5921 63.1674 37.2829 62.9608 34.9916C62.7232 32.4527 61.8842 30.0068 60.513 27.8558C59.1419 25.7048 57.278 23.9106 55.0753 22.6213M17.6403 68.9715C18.3637 68.9733 19.0638 68.7159 19.6134 68.2461C20.163 67.7763 20.5257 67.1253 20.6357 66.4112L24.8153 39.9731H36.3787C39.0274 39.9653 41.6445 39.3989 44.0589 38.3109C46.4732 37.2229 48.6302 35.6379 50.3887 33.6595C52.1471 31.6812 53.4674 29.3542 54.263 26.831C55.0587 24.3077 55.3117 21.6451 55.0056 19.0173C54.3709 14.4003 52.0696 10.1738 48.5343 7.13224C44.999 4.09069 40.4732 2.44357 35.8075 2.50045H19.7441C17.6993 2.50153 15.7218 3.23061 14.1668 4.55676C12.6118 5.88291 11.581 7.71925 11.2595 9.73613C11.2595 9.73613 5.36631 47.3896 2.90037 63.3917C2.78686 64.0788 2.8248 64.7824 3.01159 65.4533C3.19838 66.1242 3.52957 66.7464 3.98191 67.2764C4.43425 67.8063 4.99688 68.2313 5.63062 68.5217C6.26436 68.8121 6.95395 68.9608 7.65119 68.9576L17.6403 68.9715ZM28.9391 13.0618H33.2301C35.2853 13.0239 37.2825 13.7437 38.8399 15.0836C40.3974 16.4235 41.4059 18.2896 41.6728 20.3253C41.804 21.4794 41.6901 22.6482 41.3387 23.7554C40.9873 24.8626 40.4062 25.8834 39.6333 26.7512C38.8604 27.6191 37.9129 28.3144 36.8529 28.792C35.7928 29.2696 34.6438 29.5187 33.4809 29.523H26.3896L28.9391 13.0618Z" stroke="#E95322" stroke-width="4.36703" stroke-linecap="round" stroke-linejoin="round"/>
</svg>
