<svg width="72" height="67" viewBox="0 0 72 67" fill="none" xmlns="http://www.w3.org/2000/svg">
<path d="M37.1041 33.7712L62.9829 50.7313M38.3029 7.78136V27.6215C38.301 31.968 36.5747 36.1364 33.5029 39.2115L21.863 50.8414C21.277 51.4324 20.8344 52.15 20.5693 52.9388C20.3041 53.7277 20.2233 54.5668 20.3334 55.3917C20.4436 56.2166 20.7415 57.0052 21.2043 57.6969C21.6671 58.3886 22.2824 58.9649 23.0029 59.3815C26.829 61.6183 31.0993 62.9886 35.5126 63.3956C39.926 63.8026 44.3749 63.2363 48.5456 61.7369C52.7163 60.2376 56.5073 57.8417 59.6513 54.7179C62.7953 51.5941 65.2159 47.8186 66.7421 43.6576C68.2683 39.4966 68.8631 35.0512 68.4846 30.6354C68.106 26.2195 66.7631 21.9405 64.551 18.1C62.3388 14.2595 59.3112 10.9512 55.6813 8.40807C52.0515 5.86496 47.908 4.14905 43.5429 3.38146C42.9012 3.27273 42.2435 3.30479 41.6154 3.47546C40.9873 3.64612 40.4039 3.95121 39.9055 4.36974C39.407 4.78827 39.0057 5.3102 38.7289 5.89928C38.4522 6.48837 38.3068 7.13053 38.3029 7.78136ZM3.09303 30.7612C3.0871 36.201 4.69861 41.5197 7.72292 46.0413C8.14717 46.6697 8.70497 47.1968 9.35646 47.5847C10.0079 47.9726 10.7371 48.2118 11.4917 48.2854C12.2464 48.359 13.008 48.2651 13.7222 48.0103C14.4363 47.7554 15.0854 47.346 15.6231 46.8113L26.773 35.6614C29.2157 33.2143 30.5894 29.899 30.593 26.4414V8.99146C30.5916 8.21955 30.4162 7.45783 30.0801 6.76294C29.744 6.06805 29.2556 5.45763 28.6514 4.97729C28.0471 4.49696 27.3424 4.15899 26.5896 3.98828C25.8368 3.81758 25.0553 3.81875 24.303 3.99146C18.2676 5.4095 12.8884 8.82522 9.03835 13.6846C5.18826 18.5439 3.09326 24.5615 3.09303 30.7612Z" stroke="#E95322" stroke-width="5" stroke-linecap="round" stroke-linejoin="round"/>
</svg>
