<svg width="78" height="68" viewBox="0 0 78 68" fill="none" xmlns="http://www.w3.org/2000/svg">
<path d="M8.4126 55.2882L14.6323 49.0683C15.7428 47.9566 17.0662 47.0803 18.5229 46.4916C19.9797 45.9029 21.5403 45.6137 23.1113 45.6417C24.6823 45.6698 26.2316 46.0142 27.6665 46.6544C29.1014 47.2947 30.3923 48.2178 31.4624 49.3683L45.7026 64.3183M32.0825 50.0483L38.8325 43.2983C43.2751 38.8564 49.3002 36.3611 55.5825 36.3611C61.8648 36.3611 67.8899 38.8564 72.3325 43.2983L73.7822 44.6284M32.0924 22.7783C32.0924 26.5725 29.0166 29.6483 25.2224 29.6483C21.4282 29.6483 18.3524 26.5725 18.3524 22.7783C18.3524 18.9841 21.4282 15.9083 25.2224 15.9083C29.0166 15.9083 32.0924 18.9841 32.0924 22.7783ZM37.2526 3.31836C29.4526 3.31836 20.9826 4.19831 14.1926 8.01831C5.46257 12.9183 3.32269 23.0183 3.06269 31.7283C2.80269 40.6583 2.97247 51.9383 11.3425 57.9583C18.8225 63.3283 29.3424 64.5384 38.5524 64.5684C52.6124 64.5684 70.6928 61.8483 73.4328 46.7783C75.1028 37.6283 75.9727 23.0183 70.3327 14.7783C65.3327 7.47832 55.2027 4.60832 46.3327 3.77832C43.5427 3.50832 40.4526 3.32836 37.2526 3.31836Z" stroke="#E95322" stroke-width="5" stroke-linecap="round" stroke-linejoin="round"/>
</svg>
