<svg width="54" height="56" viewBox="0 0 54 56" fill="none" xmlns="http://www.w3.org/2000/svg">
<path d="M12.2588 43.1499L2.7251 52.72M35.8349 3.82976C35.1674 3.43874 34.4164 3.21281 33.644 3.17058C32.8715 3.12835 32.1001 3.27117 31.394 3.58708C30.6878 3.90299 30.0672 4.38296 29.5839 4.98698C29.1006 5.59101 28.7685 6.30174 28.6151 7.05998C27.6459 11.9232 25.1941 16.3667 21.5966 19.7797C17.9991 23.1927 13.4328 25.4076 8.52531 26.1198C7.827 26.2312 7.16181 26.4969 6.57902 26.8974C5.99622 27.2979 5.51002 27.8233 5.15568 28.4352C4.80133 29.0472 4.5879 29.7304 4.53068 30.4352C4.47346 31.1401 4.57412 31.8488 4.82511 32.5099C7.60511 39.6799 13.8852 45.4298 20.4452 49.1698C21.5231 49.8429 22.7111 50.3201 23.955 50.5798C25.1717 50.7753 26.4166 50.4873 27.4237 49.7773C28.4309 49.0672 29.1206 47.9916 29.3451 46.7799C30.0696 41.9787 32.2334 37.5099 35.5507 33.964C38.868 30.4182 43.1827 27.9621 47.9252 26.9198C48.6558 26.7477 49.3324 26.398 49.8954 25.9015C50.4584 25.4051 50.8901 24.7773 51.1523 24.0739C51.4144 23.3705 51.4991 22.6134 51.3984 21.8696C51.2976 21.1257 51.0149 20.4183 50.5751 19.81C46.6551 14.29 40.7849 6.81976 35.8349 3.82976Z" stroke="#E95322" stroke-width="5" stroke-linecap="round" stroke-linejoin="round"/>
</svg>
