<svg width="35" height="46" viewBox="0 0 35 46" fill="none" xmlns="http://www.w3.org/2000/svg">
<path d="M13.5103 4.44829L29.0703 16.2583C30.0836 17.0279 30.9051 18.0214 31.4707 19.1612C32.0363 20.3009 32.3306 21.5561 32.3306 22.8284C32.3306 24.1008 32.0363 25.3557 31.4707 26.4954C30.9051 27.6352 30.0836 28.6287 29.0703 29.3982L13.5103 41.2183C12.5237 41.964 11.349 42.4199 10.1177 42.5347C8.88632 42.6495 7.64693 42.4185 6.53955 41.868C5.43218 41.3174 4.50038 40.469 3.84863 39.418C3.19689 38.367 2.85102 37.1549 2.8501 35.9183V9.73833C2.84913 8.50092 3.19399 7.28776 3.84571 6.23588C4.49742 5.18401 5.43015 4.33525 6.53858 3.7852C7.647 3.23515 8.8873 3.00568 10.1191 3.12285C11.351 3.24001 12.5254 3.69914 13.5103 4.44829Z" stroke="#E95322" stroke-width="5" stroke-linecap="round" stroke-linejoin="round"/>
</svg>
