<svg width="77" height="77" viewBox="0 0 77 77" fill="none" xmlns="http://www.w3.org/2000/svg">
<path d="M2.93359 21.3435V9.55347C2.93624 7.85781 3.61158 6.23249 4.81152 5.03442C6.01147 3.83635 7.63784 3.16333 9.3335 3.16333H22.5034M22.5034 74.0034H9.3335C7.63692 74.0008 6.0107 73.3256 4.81104 72.126C3.61138 70.9263 2.93624 69.2998 2.93359 67.6033V53.0334M54.2036 3.16333H67.3735C69.0701 3.16332 70.6974 3.83591 71.8989 5.03369C73.1005 6.23148 73.7782 7.8569 73.7834 9.55347V21.3435M73.7834 53.0334V67.6033C73.7808 69.3016 73.1044 70.9294 71.9026 72.1294C70.7008 73.3293 69.0718 74.0034 67.3735 74.0034H54.2036M20.2835 14.0634H26.1135C29.8193 14.0634 32.8235 17.0676 32.8235 20.7734V26.6034C32.8235 30.3092 29.8193 33.3134 26.1135 33.3134H20.2835C16.5777 33.3134 13.5735 30.3092 13.5735 26.6034V20.7734C13.5735 17.0676 16.5777 14.0634 20.2835 14.0634ZM50.6035 14.0634H56.4335C60.1393 14.0634 63.1435 17.0676 63.1435 20.7734V26.6034C63.1435 30.3092 60.1393 33.3134 56.4335 33.3134H50.6035C46.8977 33.3134 43.8935 30.3092 43.8935 26.6034V20.7734C43.8935 17.0676 46.8977 14.0634 50.6035 14.0634ZM20.2835 43.4034H26.1135C29.8193 43.4034 32.8235 46.4076 32.8235 50.1134V55.9434C32.8235 59.6492 29.8193 62.6534 26.1135 62.6534H20.2835C16.5777 62.6534 13.5735 59.6492 13.5735 55.9434V50.1134C13.5735 46.4076 16.5777 43.4034 20.2835 43.4034ZM50.6035 43.4034H56.4335C60.1393 43.4034 63.1435 46.4076 63.1435 50.1134V55.9434C63.1435 59.6492 60.1393 62.6534 56.4335 62.6534H50.6035C46.8977 62.6534 43.8935 59.6492 43.8935 55.9434V50.1134C43.8935 46.4076 46.8977 43.4034 50.6035 43.4034Z" stroke="#E95322" stroke-width="5" stroke-linecap="round" stroke-linejoin="round"/>
</svg>
