<svg width="77" height="58" viewBox="0 0 77 58" fill="none" xmlns="http://www.w3.org/2000/svg">
<path d="M19.1481 3.45912V12.4324M3.8881 41.1724H55.5181C58.9554 42.55 64.1612 46.276 67.7681 45.8723C69.0004 45.6709 70.1519 45.1286 71.092 44.3068C72.0322 43.4851 72.7237 42.4167 73.0881 41.2224C73.2886 40.5698 73.4291 39.9004 73.5081 39.2224C73.6872 37.2276 73.7307 35.223 73.6382 33.2224V25.8923C73.7307 23.8916 73.6872 21.887 73.5081 19.8923C73.4304 19.214 73.2899 18.5445 73.0881 17.8923C72.7237 16.6979 72.0322 15.6293 71.092 14.8076C70.1519 13.9858 69.0004 13.4437 67.7681 13.2424C65.0881 12.9324 62.7681 14.8223 60.5081 15.9423L55.868 18.4728M28.488 2.6123C22.578 2.6123 16.168 3.3623 11.028 6.6123C4.41802 10.7623 2.7981 19.3524 2.6081 26.7324C2.4081 34.3124 2.52799 43.8824 8.86799 48.9924C14.528 53.5424 22.4981 54.5823 29.4681 54.6023C40.1181 54.6023 53.798 52.2924 55.868 39.5024C57.138 31.7424 57.788 19.3323 53.518 12.3823C49.718 6.19232 42.0681 3.75245 35.3581 3.01245C33.0766 2.76007 30.7834 2.62641 28.488 2.6123Z" stroke="#E95322" stroke-width="5" stroke-linecap="round" stroke-linejoin="round"/>
</svg>
