<svg width="35" height="46" viewBox="0 0 35 46" fill="none" xmlns="http://www.w3.org/2000/svg">
<path d="M21.4434 41.4334L5.8833 29.6236C4.87004 28.8541 4.04849 27.8605 3.48291 26.7208C2.91733 25.581 2.62305 24.3259 2.62305 23.0535C2.62305 21.7812 2.91733 20.526 3.48291 19.3863C4.04849 18.2465 4.87004 17.253 5.8833 16.4835L21.4434 4.6734C22.4282 3.92425 23.6026 3.46537 24.8345 3.34821C26.0663 3.23104 27.3066 3.46026 28.415 4.01032C29.5235 4.56037 30.4557 5.40937 31.1074 6.46124C31.7591 7.51312 32.104 8.72604 32.103 9.96344V36.1436C32.104 37.381 31.7591 38.5939 31.1074 39.6458C30.4557 40.6977 29.5235 41.5464 28.415 42.0965C27.3066 42.6465 26.0663 42.876 24.8345 42.7589C23.6026 42.6417 22.4282 42.1826 21.4434 41.4334Z" stroke="#E95322" stroke-width="5" stroke-linecap="round" stroke-linejoin="round"/>
</svg>
