<svg width="67" height="71" viewBox="0 0 67 71" fill="none" xmlns="http://www.w3.org/2000/svg">
<path d="M23.8705 38.3197L30.6905 45.1297L46.5305 26.9597M63.9506 20.6697C65.3106 34.6697 64.0506 61.0398 36.9506 67.5498C34.6136 68.1096 32.1775 68.1096 29.8406 67.5498C2.78057 61.0398 1.52057 34.6997 2.84057 20.6697C3.14889 18.0168 4.23252 15.5138 5.95605 13.4736C7.67959 11.4335 9.96644 9.9469 12.5305 9.19972L31.5305 3.26979C32.7138 2.91007 33.9773 2.91007 35.1605 3.26979L54.1605 9.19972C56.7451 9.92657 59.0556 11.4049 60.7986 13.447C62.5416 15.4892 63.6387 18.003 63.9506 20.6697Z" stroke="#E95322" stroke-width="5" stroke-linecap="round" stroke-linejoin="round"/>
</svg>
