<svg width="47" height="63" viewBox="0 0 47 63" fill="none" xmlns="http://www.w3.org/2000/svg">
<path d="M11.4595 13.8129C19.4613 12.2577 27.6877 12.2577 35.6895 13.8129M43.5496 15.083C43.2496 12.253 42.7594 9.28301 41.0994 7.08301C38.5194 3.69301 34.0296 3.34317 30.0496 3.25317L23.8694 3.09302L17.6895 3.25317C13.6895 3.34317 9.22941 3.69301 6.63941 7.08301C4.97941 9.25301 4.48947 12.223 4.19947 15.083C3.04947 26.133 3.53956 31.9032 3.53956 42.9932C3.41956 45.7632 3.77942 52.993 4.64942 55.613C5.14588 57.3454 6.26404 58.8336 7.78956 59.793C8.54029 60.1468 9.35615 60.3411 10.1858 60.3635C11.0154 60.3859 11.8407 60.236 12.6094 59.9231C14.1734 59.2763 15.6434 58.422 16.9795 57.3831L22.0593 53.793C22.5843 53.4079 23.2184 53.2004 23.8694 53.2004C24.5204 53.2004 25.1545 53.4079 25.6794 53.793C27.3794 54.9796 29.0729 56.1764 30.7595 57.3831C32.0956 58.422 33.5654 59.2763 35.1294 59.9231C35.8981 60.236 36.7233 60.3859 37.553 60.3635C38.3826 60.3411 39.1987 60.1468 39.9495 59.793C41.4802 58.8394 42.5998 57.3488 43.0894 55.613C43.9594 52.983 44.3195 45.7632 44.2095 42.9932C44.2095 31.9032 44.6796 26.133 43.5496 15.083Z" stroke="#E95322" stroke-width="5" stroke-linecap="round" stroke-linejoin="round"/>
</svg>
