<svg width="88" height="78" viewBox="0 0 88 78" fill="none" xmlns="http://www.w3.org/2000/svg">
<path d="M6.37898 20.2332L81.8594 20.1633M55.7105 53.9932L63.7105 47.8533C64.175 47.4976 64.5513 47.0397 64.8103 46.5151C65.0693 45.9905 65.2041 45.4132 65.2041 44.8281C65.2041 44.2431 65.0693 43.6659 64.8103 43.1414C64.5513 42.6168 64.175 42.1589 63.7105 41.8032L55.7105 35.6633M29.0903 53.9932L21.0903 47.8533C20.6258 47.4976 20.2495 47.0397 19.9905 46.5151C19.7315 45.9905 19.5967 45.4132 19.5967 44.8281C19.5967 44.2431 19.7315 43.6659 19.9905 43.1414C20.2495 42.6168 20.6258 42.1589 21.0903 41.8032L29.0903 35.6633M48.5404 29.0632L37.5804 61.3932M42.3003 3.16333C33.4203 3.16333 23.7803 4.16334 16.0503 8.67334C6.12025 14.4333 3.68034 26.3132 3.39034 36.5132C3.09034 47.0032 3.28026 60.2432 12.8103 67.3032C21.3203 73.6032 33.3003 75.0332 43.8103 75.0632C59.8103 75.0632 80.3905 71.8631 83.5105 54.1831C85.4005 43.4431 86.3904 26.2833 79.9704 16.6633C74.2604 8.10333 62.7604 4.73333 52.6804 3.66333C49.4704 3.39333 45.9503 3.17333 42.3003 3.16333Z" stroke="#E95322" stroke-width="5" stroke-linecap="round" stroke-linejoin="round"/>
</svg>
