<svg width="63" height="62" viewBox="0 0 63 62" fill="none" xmlns="http://www.w3.org/2000/svg">
<path d="M23.1705 39.448L39.5005 23.118M42.4108 53.5779C43.5975 50.5046 44.8043 47.4446 46.0309 44.398L54.2609 23.8181C55.8076 19.9515 57.3606 16.0747 58.9206 12.188C59.5557 10.6004 59.7019 8.85927 59.3405 7.18799C59.1339 6.23192 58.6562 5.35572 57.9645 4.66406C57.2729 3.97241 56.3967 3.4947 55.4406 3.28809C53.7694 2.92489 52.0278 3.07111 50.4406 3.70801L18.2306 16.5979C15.1773 17.8246 12.1176 19.0314 9.05095 20.218C6.86095 21.068 4.30064 22.2179 3.48064 24.5979C1.53064 30.3279 8.91084 33.0581 12.9308 34.5281C16.7808 35.9281 21.8509 37.1481 24.2409 40.7681C26.0309 43.4681 27.0105 46.688 28.1105 49.708C29.5805 53.708 32.3107 61.108 38.0407 59.158C40.4407 58.328 41.5608 55.7679 42.4108 53.5779Z" stroke="#E95322" stroke-width="5" stroke-linecap="round" stroke-linejoin="round"/>
</svg>
