<svg width="66" height="54" viewBox="0 0 66 54" fill="none" xmlns="http://www.w3.org/2000/svg">
<path d="M3.36255 16.873C3.36255 16.873 16.7225 3.09302 33.2125 3.09302C49.7025 3.09302 63.0626 16.873 63.0626 16.873M57.1726 25.4828C57.2031 25.5307 57.2298 25.581 57.2525 25.633C63.4425 36.693 51.6225 45.6328 42.2525 48.9928C36.3148 51.1436 29.8208 51.2038 23.8442 49.1637C17.8675 47.1236 12.7659 43.1053 9.38251 37.7729C3.86251 28.9929 10.9325 21.0529 18.4625 16.7729C30.8025 9.71288 49.7726 12.4928 57.1726 25.4828ZM42.8026 31.613C42.8026 36.8818 38.5314 41.153 33.2626 41.153C27.9938 41.153 23.7226 36.8818 23.7226 31.613C23.7226 26.3442 27.9938 22.073 33.2626 22.073C38.5314 22.073 42.8026 26.3442 42.8026 31.613Z" stroke="#E95322" stroke-width="5" stroke-linecap="round" stroke-linejoin="round"/>
</svg>
