<svg width="66" height="56" viewBox="0 0 66 56" fill="none" xmlns="http://www.w3.org/2000/svg">
<path d="M19.1625 47.2128C15.0763 44.9782 11.6329 41.7311 9.16255 37.7829C3.65254 28.9929 10.7126 21.0529 18.2526 16.7829C22.1651 14.6684 26.482 13.4092 30.9177 13.0886C35.3534 12.7679 39.8067 13.393 43.9826 14.9228M50.8625 18.6628C53.3038 20.5104 55.3449 22.834 56.8625 25.4929L56.9426 25.6431C63.1326 36.7031 51.3026 45.6429 41.9426 48.9929C36.6007 50.8985 30.8075 51.1459 25.3225 49.7029M56.2827 11.5029C56.2827 11.5029 60.8201 14.8427 62.7727 16.873M3.0625 16.873C3.0625 16.873 16.4326 3.09302 32.9226 3.09302C39.0247 3.23609 45.0001 4.86294 50.3325 7.83301M25.8626 38.023C24.6317 36.6507 23.8247 34.9512 23.5393 33.1299C23.254 31.3087 23.5023 29.4436 24.2544 27.7605C25.0066 26.0775 26.2304 24.6486 27.7776 23.6463C29.3248 22.644 31.1292 22.1115 32.9727 22.1131C34.4871 22.1093 35.9797 22.4728 37.3225 23.1729M42.5127 31.623C42.51 34.1524 41.5041 36.5772 39.7156 38.3657C37.9271 40.1542 35.502 41.1602 32.9727 41.1628M53.2826 4.94295L15.3426 52.833" stroke="#E95322" stroke-width="5" stroke-linecap="round" stroke-linejoin="round"/>
</svg>
