<svg width="49" height="55" viewBox="0 0 49 55" fill="none" xmlns="http://www.w3.org/2000/svg">
<path d="M10.8762 29.7486C12.8299 30.3586 14.8423 30.7763 16.8829 30.9958C21.191 31.4498 25.5307 31.5568 29.8572 31.3153C35.4989 31.4561 41.0676 30.0582 45.9249 27.2826C46.5126 27.6742 46.9977 28.1925 47.3418 28.7968C47.6858 29.401 47.8794 30.0744 47.9071 30.7635C48.3102 35.4083 47.3965 40.0719 45.2642 44.2533M30.8483 53.7394C29.9774 53.7394 29.0763 53.942 28.1753 54C26.5836 54 24.9919 54 23.4001 54C16.4625 53.7969 9.01424 51.8243 5.56044 45.2972C2.55713 39.8725 1.50594 32.3595 4.77955 26.8768M22.8295 28.1241C23.2333 27.7144 23.516 27.2077 23.648 26.6566C23.7801 26.1055 23.7567 25.5302 23.5803 24.9908C23.3935 24.4603 23.0779 23.9807 22.6599 23.5921C22.2419 23.2035 21.7337 22.9171 21.1777 22.7571C19.1695 22.5141 17.1371 22.9669 15.4414 24.034C12.9486 25.0493 10.0053 27.2827 7.2423 27.3408C1.23569 27.3408 -1.76757 15.1566 4.38921 13.3291C5.04811 13.1184 5.75955 13.1174 6.41907 13.3262C7.07859 13.5351 7.65133 13.9432 8.05316 14.4898C9.25449 16.3174 8.89413 18.4348 10.8162 19.9432C11.713 20.6267 12.7306 21.1477 13.8196 21.4808C15.6817 22.1015 17.6207 22.4823 19.586 22.6126M40.9394 21.2774C39.0511 21.3658 37.1595 21.1901 35.3233 20.7555C34.206 20.517 33.1394 20.0952 32.1698 19.5083C30.0675 18.1448 30.1876 15.9399 28.7761 14.1993C28.2978 13.6826 27.6622 13.3261 26.9607 13.1802C26.2592 13.0342 25.5278 13.1063 24.8717 13.387C18.8651 15.8818 23.0998 28.0949 29.3467 27.3987C32.1398 27.0796 34.9027 24.4979 37.3354 23.1925C38.9648 21.9431 40.9916 21.2765 43.0718 21.3065C43.6576 21.4114 44.2089 21.6507 44.6793 22.0041C45.1496 22.3574 45.5253 22.815 45.7748 23.3377C46.0169 23.8717 46.1028 24.4595 46.0234 25.0374C45.944 25.6153 45.7022 26.1609 45.3242 26.6154C44.5574 27.5986 43.5566 28.389 42.4064 28.9193C41.2563 29.4495 39.9907 29.7041 38.717 29.6615C36.3481 29.3288 34.1998 28.1352 32.7104 26.325M42.8915 44.8333C40.9459 45.4276 38.9246 45.7598 36.8849 45.8199C35.7657 45.8649 34.6471 45.7171 33.5812 45.3843C31.2386 44.6011 30.8182 42.4836 29.0463 41.2072C28.4828 40.8131 27.8048 40.6009 27.1091 40.6009C26.4134 40.6009 25.7355 40.8131 25.172 41.2072C20.1264 45.0074 27.2143 55.5376 32.9206 53.3909C35.4734 52.4336 37.3955 49.3296 39.3777 47.5891C40.7892 46.3127 42.2308 44.6879 44.3031 44.4558C44.8732 44.4408 45.4395 44.5506 45.9595 44.7767C46.4796 45.0027 46.94 45.3397 47.3064 45.7618C47.6607 46.2115 47.8839 46.7446 47.9525 47.3058C48.0212 47.867 47.9329 48.4354 47.6968 48.9524C47.216 50.0635 46.4657 51.0469 45.5092 51.8193C44.5527 52.5918 43.4181 53.1307 42.2008 53.3909C41.0397 53.5381 39.8599 53.4603 38.7305 53.1614C37.6011 52.8626 36.5448 52.349 35.6235 51.6508M21.2377 3.959C20.6186 5.51051 19.7687 6.96658 18.7149 8.28136C18.0968 9.08161 17.3459 9.77816 16.4925 10.3416C14.5704 11.502 12.8284 10.5737 10.8463 11.0668C10.2078 11.2531 9.65169 11.6386 9.2656 12.1639C8.87951 12.6891 8.68537 13.3242 8.71384 13.9678C8.53364 19.7696 20.1866 20.9295 21.9285 15.6789C22.241 13.014 22.0886 10.3175 21.4779 7.70131C21.0506 5.91707 21.2623 4.04535 22.0786 2.39239C22.3793 1.96674 22.7822 1.61785 23.2529 1.37536C23.7236 1.13288 24.2481 1.00405 24.7816 1C25.3104 1.0275 25.8223 1.19007 26.2653 1.47027C26.7084 1.75047 27.0668 2.13848 27.3043 2.59565C27.8223 3.59531 28.0921 4.69812 28.0921 5.81599C28.0921 6.93387 27.8223 8.03597 27.3043 9.03563C26.1858 10.8419 24.3714 12.146 22.2588 12.6618" stroke="#E95322" stroke-linecap="round" stroke-linejoin="round"/>
</svg>
