<svg width="44" height="52" viewBox="0 0 44 52" fill="none" xmlns="http://www.w3.org/2000/svg">
<path d="M11.4183 50.0787C14.481 51.3078 17.7431 51.9589 21.0408 52H23.9835C23.4527 51.5703 22.9692 51.0847 22.5415 50.5515C20.9169 48.682 19.9637 46.319 19.8343 43.8407C19.8113 42.9644 19.9907 42.0952 20.3582 41.3002C20.7258 40.5052 21.2717 39.8066 21.9531 39.2591C22.7445 38.668 23.7035 38.3467 24.6897 38.3425C25.5459 38.3339 26.3819 38.6035 27.0732 39.1111C27.9427 39.8484 28.7055 40.7037 29.3392 41.6531C29.7781 42.3811 30.4537 42.9346 31.2519 43.22C32.1254 43.5043 33.0413 43.6347 33.9591 43.6047H34.1062C35.7957 43.6069 37.4747 43.3374 39.0793 42.8064H39.4913C40.0609 42.5253 40.6818 42.3639 41.3157 42.333H41.5805C43.1792 38.9748 43.9944 35.2949 43.9642 31.5725C43.9642 30.863 43.9642 30.1832 43.9642 29.5033C43.9055 28.6617 43.5748 27.8624 43.0225 27.2269C38.23 29.8408 32.8497 31.1745 27.397 31.0998C25.7491 31.0998 24.1012 31.0998 22.4239 31.0998C19.7788 31.1134 17.1353 30.9649 14.5081 30.6559C12.4424 30.4102 10.4034 29.9749 8.41681 29.3553C8.14149 29.255 7.91637 29.0498 7.78981 28.7844C7.66325 28.5191 7.64533 28.2148 7.73997 27.9364C7.78333 27.7978 7.85374 27.6691 7.94705 27.5582C8.04036 27.4473 8.15471 27.3565 8.28345 27.2904C8.41219 27.2244 8.55276 27.1844 8.6969 27.1735C8.84105 27.1626 8.98589 27.181 9.12302 27.2269C10.9673 27.8347 12.8715 28.2408 14.8024 28.4387C17.3309 28.7501 19.8766 28.8987 22.4239 28.8826C24.0424 28.8826 25.6902 28.8826 27.3381 28.8826C29.1402 28.8213 30.9378 28.663 32.7232 28.4091C31.6307 27.8205 30.6375 27.0623 29.7805 26.1623C28.9212 26.639 27.9848 26.9594 27.0144 27.1085H26.367C24.8473 27.0688 23.3979 26.4566 22.3062 25.3937C22.1574 26.1563 21.8008 26.863 21.2762 27.434C21.1722 27.5395 21.0485 27.623 20.9122 27.6802C20.7758 27.7373 20.6295 27.7668 20.4817 27.7668C20.334 27.7668 20.1877 27.7373 20.0513 27.6802C19.9149 27.623 19.7912 27.5395 19.6872 27.434C19.4841 27.2243 19.3704 26.9428 19.3704 26.6502C19.3704 26.3576 19.4841 26.0769 19.6872 25.8671C20.0538 25.4756 20.2542 24.9561 20.2463 24.4186V23.7979C20.1169 23.428 19.9032 23.0934 19.6221 22.8214C19.3411 22.5493 19.0006 22.3472 18.6278 22.231C18.3539 22.2023 18.0778 22.2023 17.8039 22.231C16.3702 22.4506 14.9858 22.9208 13.7136 23.6203C12.6248 24.0638 11.3006 24.8913 9.88814 25.6304C8.49012 26.4635 6.91873 26.9594 5.2976 27.0789C4.73851 27.0693 4.18364 26.9795 3.64972 26.8126C2.59259 28.9305 2.0577 31.2728 2.09011 33.6418C2.13822 37.2558 3.02492 40.8088 4.67967 44.0182C6.1483 46.7703 8.53369 48.9157 11.4183 50.0787Z" fill="#F5CB58"/>
<path d="M1.64873 22.4082C1.98779 23.0549 2.48366 23.6052 3.09061 24.0083C3.69755 24.4113 4.39594 24.6541 5.12105 24.7141C6.40106 24.58 7.63643 24.1666 8.74055 23.5023C10.0353 22.8224 11.3889 21.9948 12.7131 21.4331C12.1245 21.2557 11.536 21.137 11.0064 20.93C9.84937 20.5425 8.76521 19.9634 7.79888 19.2159C6.82878 18.375 6.14884 17.2466 5.85671 15.9933C5.65266 15.0857 5.32589 14.2108 4.88559 13.3921C4.69719 13.1171 4.44076 12.8957 4.14148 12.7505C3.8422 12.6054 3.51043 12.5414 3.17888 12.5643H2.5315C2.12687 12.6895 1.7515 12.8956 1.42791 13.1698C1.10432 13.4441 0.839195 13.7812 0.648241 14.1608C0.2061 15.0821 -0.015594 16.0944 0.000852616 17.1171C0.0470039 19.001 0.617889 20.8337 1.64873 22.4082Z" fill="#F5CB58"/>
<path d="M21.2468 14.2193C20.8704 15.0225 20.6888 15.9042 20.717 16.7916C20.7358 18.7667 21.3402 20.6918 22.4532 22.3201C22.8456 23.0235 23.4008 23.6213 24.0717 24.0638C24.7426 24.5063 25.5097 24.7801 26.3082 24.8621H26.6906C27.983 24.6091 29.2008 24.063 30.2513 23.2656C31.5167 22.4378 32.8114 21.4331 34.1062 20.694C33.4882 20.694 32.8703 20.5163 32.2523 20.3685C31.0395 20.088 29.8845 19.5979 28.8388 18.92C27.7765 18.2017 26.9637 17.1682 26.5141 15.9637C26.1939 15.0596 25.7692 14.1968 25.2488 13.3921C25.0487 13.17 24.803 12.9942 24.5286 12.8768C24.2543 12.7594 23.9578 12.7033 23.6597 12.7123C23.3468 12.7083 23.0363 12.7681 22.7475 12.8891C22.1188 13.1604 21.593 13.6264 21.2468 14.2193Z" fill="#F5CB58"/>
<path d="M7.62229 12.1794C7.64347 12.7513 7.81178 13.3084 8.11091 13.7954C8.41003 14.2824 8.82971 14.6826 9.32899 14.9581C10.5911 15.6857 12.0231 16.0635 13.4782 16.0523C14.5883 16.0757 15.6879 15.8325 16.6856 15.3428C17.0938 15.1641 17.4597 14.9003 17.759 14.5691C18.0582 14.2379 18.2841 13.8469 18.4218 13.4215C18.5717 12.883 18.6411 12.3249 18.6278 11.7659C18.6278 9.9921 18.0687 7.86359 17.9216 5.85333C17.6862 6.23765 17.4508 6.62162 17.1859 6.97637C16.5067 7.89418 15.6814 8.69338 14.7435 9.34152C13.8582 9.88365 12.8373 10.1606 11.8008 10.1398H10.0941C9.72374 10.0801 9.34626 10.0801 8.97589 10.1398C8.55214 10.2731 8.18668 10.5481 7.94037 10.9192C7.69406 11.2904 7.58181 11.7352 7.62229 12.1794Z" fill="#F5CB58"/>
<path d="M32.782 49.1326C33.7825 48.0388 34.7536 46.7679 35.7246 45.7628C35.1292 45.8427 34.5301 45.8922 33.9297 45.9108H33.7825C32.6145 45.9453 31.4495 45.7748 30.3396 45.4077C29.1357 44.9801 28.1029 44.1707 27.397 43.1017C26.8966 42.3058 26.2818 41.5886 25.5725 40.9733C25.2642 40.7516 24.8921 40.6378 24.5131 40.6485C24.0142 40.6569 23.5304 40.8221 23.1301 41.1213C22.6884 41.4671 22.3409 41.9195 22.1197 42.4363C21.8985 42.9531 21.8108 43.5176 21.8647 44.0775C21.9882 46.0348 22.754 47.8959 24.0423 49.3694C24.5675 50.0909 25.2363 50.6948 26.0064 51.1427C26.7764 51.5905 27.6308 51.8722 28.5152 51.9705C28.8965 51.9616 29.2739 51.8923 29.6333 51.7641C30.8737 51.1472 31.9522 50.2455 32.782 49.1326Z" fill="#F5CB58"/>
<path d="M23.748 6.62199C24.1665 5.78706 24.388 4.8661 24.3954 3.93133C24.3865 2.9082 24.1555 1.89933 23.7187 0.975075C23.5827 0.688981 23.3705 0.446481 23.1056 0.274262C22.8406 0.102044 22.5333 0.00733988 22.2179 0C21.8854 0.020283 21.5618 0.11548 21.2713 0.279315C20.9808 0.443149 20.7309 0.670849 20.5405 0.945483C20.1213 1.61569 19.9254 2.40269 19.9814 3.19227C19.9814 3.93133 19.9814 4.78888 19.9814 5.64619C19.9814 6.50351 20.3052 7.92246 20.4817 9.28234C21.8454 8.80413 23.0004 7.86355 23.748 6.62199Z" fill="#F5CB58"/>
<path d="M40.0503 20.8122H39.5207C37.9468 21.0921 36.4573 21.7287 35.1655 22.6743C34.165 23.236 32.9585 24.1525 31.6932 25.0098C32.8424 26.2326 34.3852 27.0074 36.0484 27.1974H36.3426C37.3717 27.1872 38.3847 26.9393 39.3032 26.4728C40.2217 26.0063 41.021 25.334 41.6394 24.5075C41.924 24.1227 42.0787 23.656 42.0808 23.1766C42.0817 22.8816 42.0216 22.5903 41.9042 22.3199C41.7381 21.9377 41.483 21.6007 41.1604 21.3383C40.8378 21.0759 40.457 20.8958 40.0503 20.8122Z" fill="#F5CB58"/>
<path d="M43.9641 46.7091C43.9712 46.2372 43.8151 45.777 43.5227 45.4078C43.2928 45.1205 43.0016 44.8894 42.6704 44.7308C42.3393 44.5721 41.9768 44.4905 41.6099 44.4919C40.8577 44.5884 40.1509 44.9068 39.5795 45.4078C38.8733 45.9694 38.1964 46.709 37.4608 47.3889C36.7251 48.0689 35.7541 49.3105 34.7536 50.3452C35.8456 50.9897 37.0783 51.3547 38.3436 51.409C38.6756 51.4541 39.0121 51.4541 39.3441 51.409C40.3687 51.1874 41.3245 50.7195 42.1292 50.0449C42.9339 49.3704 43.5636 48.5092 43.9641 47.5362C44.012 47.2623 44.012 46.9829 43.9641 46.7091Z" fill="#F5CB58"/>
</svg>
