<svg width="75" height="59" viewBox="0 0 75 59" fill="none" xmlns="http://www.w3.org/2000/svg">
<path d="M11.4501 56.0332V31.5733C11.4501 31.1299 11.5374 30.6908 11.7074 30.2813C11.8774 29.8717 12.1265 29.4998 12.4405 29.1868C12.7545 28.8737 13.1272 28.6256 13.5372 28.4568C13.9472 28.288 14.3865 28.2018 14.8299 28.2031H19.7101C20.1535 28.2018 20.5928 28.288 21.0028 28.4568C21.4128 28.6256 21.7855 28.8737 22.0995 29.1868C22.4135 29.4998 22.6626 29.8717 22.8326 30.2813C23.0026 30.6908 23.09 31.1299 23.09 31.5733V56.0332M32.7999 56.0332V18.4233C32.7999 17.5269 33.156 16.6671 33.7899 16.0332C34.4238 15.3993 35.2836 15.0432 36.18 15.0432H41.0699C41.5133 15.0432 41.9524 15.1308 42.3619 15.3008C42.7714 15.4708 43.1433 15.7197 43.4564 16.0337C43.7695 16.3477 44.0176 16.7206 44.1864 17.1306C44.3552 17.5406 44.4414 17.9799 44.44 18.4233V56.0332M52.7899 56.0332V6.54321C52.7899 5.64678 53.146 4.78719 53.7799 4.15332C54.4138 3.51945 55.2736 3.16333 56.17 3.16333H61.0599C61.9564 3.16333 62.8162 3.51945 63.4501 4.15332C64.0839 4.78719 64.44 5.64678 64.44 6.54321V56.0332M71.79 56.0332H3" stroke="#E95322" stroke-width="5" stroke-linecap="round" stroke-linejoin="round"/>
</svg>
