<svg width="70" height="72" viewBox="0 0 70 72" fill="none" xmlns="http://www.w3.org/2000/svg">
<path d="M47.0298 7.37677C51.0298 1.01801 58.7797 2.57776 63.2997 7.28776C67.8197 11.9978 68.4898 19.0378 63.7798 23.5578M63.7798 23.5578C66.6693 31.2487 66.6693 39.727 63.7798 47.4179C56.3798 66.8979 35.2998 65.3578 35.2998 65.3578C35.2998 65.3578 14.2198 66.8979 6.8198 47.4179C3.93749 39.7257 3.93745 31.25 6.81977 23.5578M63.7798 23.5578C56.3798 4.07784 35.2998 5.62785 35.2998 5.62785C35.2998 5.62785 14.2198 4.07778 6.81977 23.5578M23.5297 7.3904C18.5297 2.01782 11.4896 2.21794 6.97963 6.92794C2.46963 11.6379 2.10977 19.0378 6.81977 23.5578M52.8515 60.8858L58.8897 68.7779M17.7558 60.8905L11.7097 68.7779M35.2997 21.8579V30.3179C35.3007 31.9284 35.672 33.5173 36.3846 34.9617C37.0973 36.406 38.132 37.6672 39.4095 38.6479L47.8797 45.1379" stroke="#E95322" stroke-width="5" stroke-linecap="round" stroke-linejoin="round"/>
</svg>
