<svg width="52" height="74" viewBox="0 0 52 74" fill="none" xmlns="http://www.w3.org/2000/svg">
<path d="M10.6474 49.7599H41.6774M40.4473 14.2C41.6301 16.6311 42.1727 19.3239 42.0235 22.0234C41.8743 24.7229 41.0384 27.3397 39.5949 29.6257C38.1514 31.9118 36.1482 33.7915 33.775 35.0867C31.4018 36.3818 28.7372 37.0497 26.0336 37.0269C23.3301 37.004 20.6772 36.2913 18.3262 34.9563C15.9752 33.6213 14.004 31.708 12.5993 29.3979C11.1946 27.0879 10.403 24.4575 10.2994 21.7559C10.1958 19.0542 10.7837 16.3708 12.0074 13.96M11.9273 59.8497C10.7454 57.4182 10.2038 54.7252 10.354 52.0258C10.5041 49.3263 11.341 46.71 12.7852 44.4244C14.2295 42.1389 16.2335 40.26 18.6071 38.9657C20.9808 37.6714 23.6456 37.0044 26.3491 37.0282C29.0526 37.052 31.7052 37.7656 34.0558 39.1014C36.4063 40.4373 38.3768 42.3512 39.7807 44.6617C41.1846 46.9723 41.9753 49.6029 42.078 52.3046C42.1806 55.0062 41.5919 57.6893 40.3674 60.0997M6.63733 62.3C11.1173 61.09 18.0774 60.3 25.8774 60.3C34.1874 60.3 41.5274 61.18 45.9674 62.53M45.9674 11.99C41.4774 13.21 34.5274 13.99 26.7174 13.99C18.4074 13.99 11.0673 13.11 6.63733 11.75M49.4474 3.28003C44.1574 4.72003 35.9574 5.63989 26.7574 5.63989C16.9574 5.63989 8.29738 4.59 3.06738 3M3.10742 70.5898C8.39742 69.1598 16.5974 68.24 25.7974 68.24C35.5974 68.24 44.2674 69.2399 49.4874 70.8799" stroke="#E95322" stroke-width="5" stroke-linecap="round" stroke-linejoin="round"/>
</svg>
