<svg width="69" height="80" viewBox="0 0 69 80" fill="none" xmlns="http://www.w3.org/2000/svg">
<path d="M53.6189 31.1624V13.6123C53.6189 10.6949 52.4599 7.89689 50.397 5.83399C48.3341 3.77109 45.5363 2.61231 42.6189 2.61231H21.3289C19.8394 2.61128 18.4068 3.18417 17.3289 4.21216L4.18889 17.1523C3.71397 17.6244 3.33081 18.1804 3.05888 18.7922C2.70016 19.5448 2.51555 20.3685 2.51884 21.2022V66.4622C2.51884 69.3795 3.67787 72.1776 5.74077 74.2405C7.80367 76.3034 10.6015 77.4622 13.5188 77.4622H42.6488C44.9777 77.4585 47.2453 76.7158 49.125 75.3411C51.0048 73.9663 52.3997 72.0305 53.1089 69.8123M31.2089 18.3323H44.1789M11.3389 31.1623H44.1789M45.3389 46.1823H65.5589M58.6788 39.5723L64.4589 43.9622C64.8007 44.2214 65.078 44.5564 65.2688 44.9407C65.4596 45.3249 65.559 45.7482 65.559 46.1772C65.559 46.6063 65.4596 47.0295 65.2688 47.4138C65.078 47.7981 64.8007 48.1331 64.4589 48.3923L58.6788 52.7822M56.2089 61.4623H36.0389M42.8689 68.0623L37.1688 63.7322C36.8168 63.4665 36.5311 63.1228 36.3345 62.728C36.1378 62.3333 36.0355 61.8983 36.0355 61.4573C36.0355 61.0162 36.1378 60.5813 36.3345 60.1865C36.5311 59.7918 36.8168 59.448 37.1688 59.1824L42.8689 54.8523M18.9789 3.16235V11.4622C18.9802 12.4295 18.7908 13.3879 18.4215 14.282C18.0522 15.1761 17.5102 15.9886 16.8267 16.6731C16.1431 17.3576 15.3314 17.9005 14.4377 18.271C13.5441 18.6415 12.5863 18.8323 11.6189 18.8323H3.08887C3.3608 18.2204 3.74396 17.6644 4.21887 17.1924L17.3589 4.2522C17.8313 3.79728 18.3795 3.42856 18.9789 3.16235Z" stroke="#E95322" stroke-width="5" stroke-linecap="round" stroke-linejoin="round"/>
</svg>
