<svg width="56" height="77" viewBox="0 0 56 77" fill="none" xmlns="http://www.w3.org/2000/svg">
<path d="M9.97296 23.9128C2.77296 38.3828 -1.55693 63.5828 16.3331 71.1428C20.1349 72.7293 24.2135 73.5461 28.3331 73.5461C32.4526 73.5461 36.5313 72.7293 40.3331 71.1428C55.9331 64.6528 55.9332 40.9928 44.6932 24.1428M20.3629 33.5129V60.6029M35.3929 33.5129V60.6029M16.873 9.98291C16.873 6.19291 21.5329 3.09302 27.2429 3.09302H28.5229C34.2329 3.09302 38.893 6.19291 38.893 9.98291M6.91295 10.7229H48.8429C51.1294 10.7229 52.9829 12.5765 52.9829 14.8629V19.7729C52.9829 22.0594 51.1294 23.9129 48.8429 23.9129H6.91295C4.62649 23.9129 2.77295 22.0594 2.77295 19.7729V14.8629C2.77295 12.5765 4.62649 10.7229 6.91295 10.7229Z" stroke="#E95322" stroke-width="5" stroke-linecap="round" stroke-linejoin="round"/>
</svg>
