<svg width="67" height="67" viewBox="0 0 67 67" fill="none" xmlns="http://www.w3.org/2000/svg">
<path d="M35.0411 35.9285L34.8211 55.5583C34.8132 57.7943 33.9214 59.9367 32.3403 61.5178C30.7592 63.0989 28.6171 63.9906 26.3811 63.9985C24.1434 63.9933 21.9987 63.1026 20.4154 61.5212C18.8322 59.9399 17.939 57.7961 17.9311 55.5583M51.641 35.9285C51.7545 28.7079 50.4358 21.5363 47.761 14.8284C41.861 0.548409 26.3811 0.548409 20.4811 14.8284C17.8149 21.5385 16.4997 28.709 16.6111 35.9285M64.0411 24.1284C63.8628 23.1502 63.5778 22.1946 63.1911 21.2786C60.5911 15.2786 55.3811 10.5785 49.7311 7.42847C44.8787 4.73521 39.4208 3.32074 33.8711 3.31836C26.7089 3.38101 19.7606 5.76734 14.0711 10.1184C9.46113 13.6084 4.88111 18.4084 3.42111 24.1184C2.03111 29.6184 5.28108 35.8884 11.5211 35.8884H56.2111C62.8411 35.9284 65.0411 29.6284 64.0411 24.1284Z" stroke="#E95322" stroke-width="5" stroke-linecap="round" stroke-linejoin="round"/>
</svg>
