<svg width="68" height="71" viewBox="0 0 68 71" fill="none" xmlns="http://www.w3.org/2000/svg">
<path d="M25.6993 25.3197L42.9793 42.5997M42.8793 25.2197L25.5993 42.4997M64.7593 20.6697C66.1193 34.6697 64.8593 61.0398 37.7593 67.5498C35.4223 68.1096 32.9861 68.1096 30.6492 67.5498C3.58917 61.0398 2.32917 34.6997 3.64917 20.6697C3.95749 18.0168 5.04136 15.5138 6.76489 13.4736C8.48842 11.4335 10.7753 9.9469 13.3394 9.19972L32.3394 3.26979C33.5226 2.91007 34.786 2.91007 35.9692 3.26979L54.9692 9.19972C57.5532 9.92777 59.8629 11.4064 61.6057 13.4483C63.3485 15.4902 64.4461 18.0035 64.7593 20.6697Z" stroke="#E95322" stroke-width="5" stroke-linecap="round" stroke-linejoin="round"/>
</svg>
