<svg width="45" height="36" viewBox="0 0 45 36" fill="none" xmlns="http://www.w3.org/2000/svg">
<path d="M4.11172 21.9233L15.9315 6.35327C16.7011 5.34001 17.6946 4.51846 18.8344 3.95288C19.9741 3.3873 21.229 3.09302 22.5014 3.09302C23.7737 3.09302 25.0291 3.3873 26.1688 3.95288C27.3086 4.51846 28.3021 5.34001 29.0717 6.35327L40.8817 21.9233C41.6309 22.9082 42.0898 24.0829 42.2069 25.3147C42.3241 26.5465 42.0949 27.7866 41.5448 28.895C40.9948 30.0034 40.1455 30.9362 39.0937 31.5879C38.0418 32.2396 36.8291 32.5842 35.5917 32.5833H9.41153C8.17483 32.5823 6.96303 32.2367 5.91201 31.585C4.861 30.9332 4.01239 30.0014 3.46182 28.894C2.91125 27.7867 2.68055 26.5475 2.79532 25.3162C2.91008 24.0848 3.36599 22.9099 4.11172 21.9233Z" stroke="#E95322" stroke-width="5" stroke-linecap="round" stroke-linejoin="round"/>
</svg>
