<svg width="78" height="69" viewBox="0 0 78 69" fill="none" xmlns="http://www.w3.org/2000/svg">
<path d="M54.1921 59.1894C48.732 63.5174 41.9893 65.9096 35.0224 65.9909C28.0555 66.0721 21.2589 63.8376 15.6994 59.6381C10.1399 55.4386 6.13246 49.5119 4.30587 42.7882C2.47927 36.0646 2.93702 28.9247 5.60738 22.4894C8.27773 16.0541 13.0095 10.6877 19.0598 7.23257C25.1101 3.77746 32.1364 2.42921 39.0358 3.39956C45.9353 4.36991 52.3173 7.60398 57.1799 12.5939C62.0425 17.5838 65.1103 24.0472 65.9021 30.9694C66.0626 32.4235 66.3883 35.1051 66.3476 36.5675M56.9521 27.4094L62.8423 35.1594C63.1856 35.6112 63.6284 35.9774 64.1367 36.2295C64.645 36.4816 65.2048 36.6128 65.7722 36.6128C66.3396 36.6128 66.8992 36.4816 67.4075 36.2295C67.9157 35.9774 68.3589 35.6112 68.7021 35.1594L74.5923 27.4094" stroke="#E95322" stroke-width="5" stroke-linecap="round" stroke-linejoin="round"/>
</svg>
