<svg width="76" height="69" viewBox="0 0 76 69" fill="none" xmlns="http://www.w3.org/2000/svg">
<path d="M11.5012 21.3255C13.6488 15.0746 17.9593 9.79683 23.6553 6.44392C29.3512 3.09101 36.0578 1.88362 42.5654 3.03962C49.0731 4.19563 54.9533 7.63885 59.146 12.7484C63.3387 17.8579 65.7114 25.0942 65.5747 31.7023M72.9211 24.0156L68.2212 30.2056C67.861 30.6782 67.3965 31.0613 66.864 31.325C66.3315 31.5886 65.7453 31.7256 65.1511 31.7256C64.5569 31.7256 63.9707 31.5886 63.4382 31.325C62.9057 31.0613 62.4412 30.6782 62.0811 30.2056L57.3811 24.0156M63.4913 49.5156C60.9422 55.4632 56.3925 60.3313 50.631 63.2769C44.8694 66.2224 38.2591 67.0595 31.9452 65.6431C25.6313 64.2267 20.0118 60.6461 16.0607 55.5217C12.1095 50.3973 10.0754 43.7077 10.3112 37.2412M2.81128 44.9055L7.46118 38.7854C7.82464 38.3029 8.29513 37.9117 8.83569 37.6421C9.37626 37.3725 9.97212 37.2322 10.5762 37.2322C11.1802 37.2322 11.7761 37.3725 12.3167 37.6421C12.8572 37.9117 13.3277 38.3029 13.6912 38.7854L18.3411 44.9055" stroke="#E95322" stroke-width="5" stroke-linecap="round" stroke-linejoin="round"/>
</svg>
