<svg width="77" height="72" viewBox="0 0 77 72" fill="none" xmlns="http://www.w3.org/2000/svg">
<path d="M66.4889 28.8523V26.9922C66.4889 25.3914 66.1735 23.8064 65.5609 22.3274C64.9483 20.8484 64.0504 19.5045 62.9185 18.3726C61.7865 17.2406 60.4427 16.3428 58.9637 15.7302C57.4848 15.1176 55.8996 14.8022 54.2988 14.8022H42.3689C40.4216 14.8033 38.4999 14.3587 36.751 13.5024C35.002 12.6462 33.4722 11.401 32.2788 9.86231L30.2788 7.33228C29.1387 5.86205 27.6773 4.67214 26.0063 3.85401C24.3354 3.03587 22.4993 2.61124 20.6388 2.61231H15.5789C12.3449 2.61231 9.24335 3.89611 6.95569 6.18189C4.66803 8.46767 3.38156 11.5683 3.37891 14.8022V45.9622C3.38156 49.1961 4.66803 52.2967 6.95569 54.5825C9.24335 56.8683 12.3449 58.1523 15.5789 58.1523H42.6295M59.6989 58.0522L55.6989 55.0022C55.4893 54.8406 55.3195 54.633 55.2028 54.3955C55.086 54.158 55.0253 53.897 55.0253 53.6323C55.0253 53.3677 55.086 53.1064 55.2028 52.8689C55.3195 52.6314 55.4893 52.4238 55.6989 52.2622L59.6989 49.2622M68.4189 41.7586L72.2988 34.9024C72.5752 34.3978 72.7152 33.8299 72.7052 33.2547C72.6952 32.6795 72.5355 32.1167 72.2417 31.6221C71.9479 31.1275 71.5303 30.7179 71.03 30.4339C70.5298 30.1498 69.9641 30.001 69.3888 30.0022H17.6989C16.2831 29.9989 14.9 30.428 13.7349 31.2322C12.5697 32.0364 11.6779 33.1773 11.1788 34.5022L4.33887 50.7122M57.7787 68.9822C57.7787 68.9822 68.6088 69.7723 72.4088 59.7623C73.8889 55.8096 73.8889 51.4549 72.4088 47.5023C68.6088 37.5023 57.7787 38.2923 57.7787 38.2923C57.7787 38.2923 46.9487 37.4923 43.1487 47.5023C41.6586 51.4531 41.6586 55.8114 43.1487 59.7623C46.9487 69.7723 57.7787 68.9822 57.7787 68.9822Z" stroke="#E95322" stroke-width="5" stroke-linecap="round" stroke-linejoin="round"/>
</svg>
