<svg width="50" height="72" viewBox="0 0 50 72" fill="none" xmlns="http://www.w3.org/2000/svg">
<path d="M25.1094 25.5C31.3226 25.5 36.3594 20.4632 36.3594 14.25C36.3594 8.0368 31.3226 3 25.1094 3C18.8962 3 13.8594 8.0368 13.8594 14.25C13.8594 20.4632 18.8962 25.5 25.1094 25.5Z" stroke="#E95322" stroke-width="5" stroke-linecap="round" stroke-linejoin="round"/>
<path d="M45.8193 58.3599C40.4193 70.4899 25.0396 69.4901 25.0396 69.4901C25.0396 69.4901 9.64952 70.4499 4.25952 58.3599C3.21635 56.0341 2.677 53.5139 2.677 50.9649C2.677 48.4159 3.21635 45.8959 4.25952 43.5701C9.64952 31.4401 25.0396 32.44 25.0396 32.44C25.0396 32.44 40.4193 31.4801 45.8193 43.5701C46.8625 45.8959 47.4019 48.4159 47.4019 50.9649C47.4019 53.5139 46.8625 56.0341 45.8193 58.3599Z" stroke="#E95322" stroke-width="5" stroke-linecap="round" stroke-linejoin="round"/>
</svg>
