<svg width="61" height="72" viewBox="0 0 61 72" fill="none" xmlns="http://www.w3.org/2000/svg">
<path d="M51.7443 18.43V30.72M57.8943 24.58H45.5943M37.0843 14.25C37.0843 20.4632 32.0475 25.5 25.8343 25.5C19.6211 25.5 14.5843 20.4632 14.5843 14.25C14.5843 8.0368 19.6211 3 25.8343 3C32.0475 3 37.0843 8.0368 37.0843 14.25ZM25.7644 69.4901C25.7644 69.4901 41.1442 70.4899 46.5442 58.3599C47.5874 56.0341 48.1267 53.5139 48.1267 50.9649C48.1267 48.4159 47.5874 45.8959 46.5442 43.5701C41.1442 31.4801 25.7644 32.44 25.7644 32.44C25.7644 32.44 10.3844 31.4401 4.98438 43.5701C3.94121 45.8959 3.40186 48.4159 3.40186 50.9649C3.40186 53.5139 3.94121 56.0341 4.98438 58.3599C10.3844 70.4499 25.7644 69.4901 25.7644 69.4901Z" stroke="#E95322" stroke-width="5" stroke-linecap="round" stroke-linejoin="round"/>
</svg>
