<svg width="75" height="76" viewBox="0 0 75 76" fill="none" xmlns="http://www.w3.org/2000/svg">
<path d="M23.4102 32.9556L30.73 42.5056C31.6168 43.6647 32.7589 44.6038 34.0674 45.2502C35.3759 45.8967 36.8155 46.2329 38.2749 46.2329C39.7343 46.2329 41.1744 45.8967 42.4829 45.2502C43.7914 44.6038 44.933 43.6647 45.8198 42.5056L53.1401 32.9556M3.41986 38.2955C3.41986 38.2955 1.63992 62.4656 23.9799 70.9456C32.7962 74.2552 42.5137 74.2552 51.33 70.9456C73.67 62.4656 71.8901 38.2955 71.8901 38.2955C71.8901 38.2955 73.67 14.1256 51.33 5.64556C42.5137 2.33592 32.7962 2.33592 23.9799 5.64556C1.63992 14.1256 3.41986 38.2955 3.41986 38.2955Z" stroke="#E95322" stroke-width="5" stroke-linecap="round" stroke-linejoin="round"/>
</svg>
