<svg width="74" height="67" viewBox="0 0 74 67" fill="none" xmlns="http://www.w3.org/2000/svg">
<path d="M37.2073 3.16333V35.8833M46.0173 27.4734L41.1072 33.9434C40.6502 34.5463 40.0601 35.035 39.3826 35.3716C38.7051 35.7082 37.9589 35.8833 37.2024 35.8833C36.4459 35.8833 35.6997 35.7082 35.0222 35.3716C34.3447 35.035 33.7541 34.5463 33.2971 33.9434L28.3875 27.4734M58.7573 49.2533H15.6573M23.5173 16.0432C1.17727 22.0432 2.95721 38.9734 2.95721 38.9734C2.95721 38.9734 1.17727 55.9734 23.5173 61.9134C32.4897 64.2332 41.9047 64.2332 50.8771 61.9134C73.2071 55.9134 71.4372 38.9734 71.4372 38.9734C71.4372 38.9734 73.2071 21.9732 50.8771 16.0432" stroke="#E95322" stroke-width="5" stroke-linecap="round" stroke-linejoin="round"/>
</svg>
