<svg width="65" height="65" viewBox="0 0 65 65" fill="none" xmlns="http://www.w3.org/2000/svg">
<path d="M4.73393 21.5581L4.23412 20.7129C3.8832 20.1214 3.75759 19.4269 3.87963 18.753C4.00167 18.0791 4.36345 17.4692 4.90052 17.0327L5.65022 16.4058C6.20104 15.981 6.56799 15.3679 6.67755 14.6888L6.84414 13.7344C6.96162 13.0824 7.29957 12.4882 7.80338 12.048C8.30719 11.6078 8.94746 11.3476 9.62074 11.3087H10.6203C11.3238 11.3281 12.0086 11.0845 12.5362 10.6272L13.2859 10.0003C13.8198 9.56347 14.4928 9.32413 15.1879 9.32413C15.8829 9.32413 16.5559 9.56347 17.0898 10.0003M42.0793 38.2949C41.5299 39.3416 40.5993 40.1469 39.4727 40.5509C38.3461 40.955 37.1058 40.9283 35.9985 40.4757L34.3603 39.8761C33.1823 39.4752 31.9011 39.4752 30.723 39.8761L29.057 40.4757C27.936 40.9024 26.6968 40.9227 25.5619 40.533C24.4271 40.1433 23.4709 39.369 22.8652 38.3495M17.0898 10.5453L17.3953 8.82767C17.6114 7.62445 18.2539 6.53485 19.2091 5.7517C20.1643 4.96856 21.3708 4.54276 22.6153 4.54847H24.3923C25.6333 4.54346 26.8327 4.10858 27.7798 3.32128L29.1403 2.2039C30.0966 1.42596 31.2997 1 32.5417 1C33.7836 1 34.9867 1.42596 35.943 2.2039L37.3035 3.32128C38.2481 4.11273 39.4492 4.54818 40.691 4.54847H42.468C43.7096 4.55344 44.9105 4.98371 45.8634 5.76501C46.8164 6.54632 47.4617 7.62918 47.688 8.82767L47.9935 10.5453C48.192 11.7539 48.8339 12.8492 49.7983 13.6253L51.1311 14.7433C51.7965 15.2781 52.3171 15.9659 52.6465 16.7458C52.9759 17.5258 53.1039 18.3733 53.0191 19.2135M12.0919 19.4045C11.9695 18.5388 12.0736 17.6565 12.3941 16.841C12.7147 16.0256 13.2414 15.3039 13.9245 14.7433M16.007 42.8196C16.007 42.8196 25.3364 42.8197 25.8917 64M30.5841 51.6788C29.4735 42.329 24.3923 39.958 24.3923 39.958M40.9964 34.2333L40.8021 35.2688C40.6788 35.9835 40.814 36.7187 41.1841 37.3459C41.5543 37.9731 42.1361 38.453 42.829 38.7035L43.8008 39.0309C44.4922 39.2955 45.077 39.7739 45.4668 40.3939L45.9666 41.2936C46.3461 41.9138 46.9308 42.3873 47.6231 42.6353C48.3153 42.8833 49.0733 42.8909 49.7705 42.6566L50.7701 42.3019C51.4608 42.0562 52.2174 42.0562 52.9081 42.3019L53.9077 42.6566C54.6004 42.8944 55.3558 42.8879 56.0447 42.6393C56.7335 42.3907 57.3129 41.9154 57.6838 41.2936L58.2114 40.3939C58.5825 39.769 59.1608 39.2879 59.8496 39.0309L60.8492 38.7035C61.542 38.453 62.1239 37.9731 62.494 37.3459C62.8642 36.7187 62.9993 35.9835 62.8761 35.2688L62.6817 34.2333C62.5439 33.5193 62.6825 32.7805 63.0704 32.1616L63.5702 31.2618C63.9448 30.637 64.0807 29.9017 63.9535 29.1874C63.8264 28.4732 63.4444 27.827 62.8761 27.364L62.0708 26.7098C61.5084 26.2441 61.1341 25.5965 61.0158 24.8836L60.8214 23.8747C60.6921 23.1621 60.3134 22.5164 59.7507 22.0486C59.188 21.5808 58.4766 21.3204 57.7393 21.3125H56.6843C55.9442 21.3206 55.2255 21.0693 54.6573 20.6038L53.8521 19.9223C53.2876 19.4587 52.575 19.2049 51.8391 19.2049C51.1031 19.2049 50.3906 19.4587 49.826 19.9223L49.0208 20.6038C48.4502 21.0651 47.7331 21.3159 46.9939 21.3125H45.9388C45.2 21.315 44.4858 21.5732 43.922 22.0419C43.3582 22.5107 42.981 23.1597 42.8567 23.8747L42.6624 24.8836C42.544 25.5965 42.1698 26.2441 41.6073 26.7098L40.8021 27.364M60.2661 21.5581L60.7658 20.7129C61.1168 20.1214 61.2424 19.4269 61.1204 18.753C60.9983 18.0791 60.6366 17.4692 60.0995 17.0327L59.3498 16.4058C58.8231 15.9608 58.4618 15.3571 58.3225 14.6888L58.1559 13.7344C58.0431 13.0803 57.7065 12.4838 57.2017 12.0427C56.697 11.6017 56.0541 11.3428 55.3793 11.3087H54.3797C53.6857 11.3212 53.012 11.0781 52.4916 10.6272L51.7141 10.0003C51.2039 9.54822 50.5411 9.29751 49.8538 9.29751C49.1665 9.29751 48.5037 9.54822 47.9935 10.0003M48.9931 42.8196C48.9931 42.8196 39.6637 42.8197 39.1361 64M34.4159 51.6788C35.5265 42.329 40.6077 39.958 40.6077 39.958M15.2018 19.9223L16.007 20.6038C16.5679 21.0632 17.2756 21.3141 18.0061 21.3125H19.0612C19.8018 21.3193 20.517 21.5785 21.0843 22.0459C21.6516 22.5134 22.0358 23.1598 22.171 23.8747L22.3376 24.8836C22.4679 25.5987 22.8514 26.2454 23.4205 26.7098L24.2257 27.364C24.7893 27.8302 25.1678 28.476 25.2947 29.1888C25.4216 29.9015 25.2889 30.6355 24.9199 31.2618L24.3923 32.1616C24.026 32.7884 23.8981 33.5226 24.0313 34.2333L24.1979 35.2688C24.3268 35.9841 24.194 36.7214 23.8231 37.3499C23.4523 37.9783 22.8671 38.4575 22.171 38.7035L21.1992 39.0309C20.5104 39.2879 19.9322 39.769 19.561 40.3939L19.0334 41.2936C18.6576 41.9175 18.0733 42.3941 17.3797 42.6426C16.6862 42.8911 15.9263 42.8962 15.2295 42.6566L14.2577 42.3019C13.5574 42.0565 12.7922 42.0565 12.0919 42.3019L11.1201 42.6566C10.4233 42.8962 9.66349 42.8911 8.96994 42.6426C8.27639 42.3941 7.69196 41.9175 7.31616 41.2936L6.78864 40.3939C6.41745 39.769 5.8392 39.2879 5.15041 39.0309L4.15083 38.7035C3.45989 38.4525 2.88095 37.9712 2.51544 37.3432C2.14992 36.7152 2.02114 35.9807 2.15167 35.2688L2.3183 34.2333C2.45153 33.5226 2.32361 32.7884 1.95733 32.1616L1.42977 31.2618C1.05516 30.637 0.919284 29.9017 1.04647 29.1874C1.17365 28.4732 1.55559 27.827 2.12392 27.364L2.92916 26.7098C3.48933 26.2381 3.87089 25.5948 4.01203 24.8836L4.17862 23.8747C4.31384 23.1598 4.698 22.5134 5.26531 22.0459C5.83263 21.5785 6.5478 21.3193 7.28841 21.3125H8.34353C9.07402 21.3141 9.78178 21.0632 10.3427 20.6038L11.1479 19.9223C11.7191 19.4616 12.4355 19.2095 13.1748 19.2095C13.9141 19.2095 14.6305 19.4616 15.2018 19.9223Z" stroke="#E95322" stroke-linecap="round" stroke-linejoin="round"/>
</svg>
