<svg width="62" height="63" viewBox="0 0 62 63" fill="none" xmlns="http://www.w3.org/2000/svg">
<path d="M14.1102 17.4508L14.9286 18.1198C15.3125 18.4474 15.804 18.6256 16.3114 18.6213H17.3837C18.3831 18.6262 19.3488 18.978 20.1123 19.615C20.8757 20.2519 21.3883 21.1334 21.5603 22.1058L21.7579 23.1375C21.8487 23.6203 22.0964 24.0606 22.4634 24.3918L23.2818 25.0608C23.7578 25.4524 24.141 25.9422 24.4043 26.4961C24.6676 27.05 24.8046 27.6543 24.8057 28.2662C24.8129 29.0096 24.6179 29.7412 24.2413 30.3848L23.7051 31.277C23.5174 31.5991 23.42 31.9651 23.4229 32.3366V32.6987L23.6204 33.7577V34.4824C23.6434 35.5089 23.2701 36.5055 22.5763 37.27C22.9445 37.7006 23.4023 38.0483 23.9184 38.2888C24.4345 38.5293 24.997 38.657 25.5676 38.6638C26.0888 38.6663 26.6058 38.5721 27.0915 38.3855L28.7847 37.8002C29.4862 37.5313 30.2336 37.3984 30.9859 37.4095C31.738 37.4011 32.4849 37.5339 33.1871 37.8002L34.8803 38.3855C35.3668 38.5696 35.8833 38.6637 36.4042 38.6638C37.0266 38.6753 37.6407 38.5215 38.1821 38.218L38.4925 38.0227C38.8047 37.8172 39.0811 37.5629 39.3109 37.27C38.6219 36.5027 38.2493 35.508 38.2667 34.4824V33.7577L38.4361 32.6987C38.4908 32.4264 38.6516 32.1861 38.8838 32.0297C39.116 31.8733 39.4011 31.8131 39.6777 31.8623C39.8131 31.8858 39.9425 31.9356 40.0584 32.0086C40.1743 32.0817 40.2745 32.177 40.3531 32.2883C40.4318 32.3997 40.4874 32.5252 40.5168 32.6579C40.5462 32.7905 40.5487 32.9271 40.5244 33.0608L40.355 34.1204V34.4824C40.3574 34.9152 40.494 35.3373 40.7462 35.6911C40.9985 36.045 41.3544 36.3141 41.7661 36.4622L42.782 36.8242C43.7203 37.1606 44.5093 37.8115 45.0114 38.6638L45.5194 39.5839C45.7116 39.9015 45.9847 40.1638 46.3115 40.3448C46.6382 40.5257 47.0073 40.6194 47.3819 40.6156H48.1156L49.1034 40.2529C49.5742 40.0865 50.0707 40.0021 50.5708 40.0025C51.0617 40.0019 51.549 40.0864 52.01 40.2529L53.026 40.6156H53.7597C54.1301 40.6173 54.4944 40.5224 54.8163 40.3414C55.1382 40.1604 55.4063 39.8993 55.594 39.5839L56.1302 38.6638C56.6322 37.8115 57.4212 37.1606 58.3596 36.8242L59.3755 36.4622C59.7819 36.3096 60.1318 36.0385 60.3788 35.685C60.6257 35.3315 60.7581 34.9119 60.7583 34.4824V34.1204L60.589 33.0608V32.3366C60.5884 31.5992 60.7934 30.8759 61.1816 30.246L61.6896 29.3259C61.8859 29.006 61.993 28.6402 62 28.2662C61.9942 27.9591 61.9234 27.6572 61.7921 27.3788C61.6609 27.1003 61.4722 26.852 61.238 26.6499L60.4197 25.9809C59.6511 25.3495 59.1316 24.471 58.9522 23.4996L58.7829 22.4685C58.6912 21.9787 58.4299 21.5354 58.0438 21.215C57.6576 20.8945 57.1707 20.7167 56.6664 20.712H55.594C54.5653 20.7316 53.5637 20.3858 52.772 19.7368L51.9818 19.0678C51.5929 18.7486 51.1046 18.5709 50.599 18.5655C50.0926 18.5663 49.6027 18.7445 49.2162 19.0678L48.3979 19.7368C47.6113 20.3948 46.6062 20.7419 45.5758 20.712H44.5316C44.0274 20.7167 43.5404 20.8945 43.1543 21.215C42.7681 21.5354 42.5068 21.9787 42.4151 22.4685L42.2458 23.4996C42.0664 24.471 41.5469 25.3495 40.7783 25.9809L39.96 26.6499C39.8627 26.7485 39.7464 26.8264 39.6179 26.8799C39.4895 26.9334 39.3515 26.9616 39.2121 26.9616C39.0727 26.9616 38.9347 26.9334 38.8063 26.8799C38.6778 26.8264 38.5616 26.7485 38.4643 26.6499C38.2872 26.4345 38.2028 26.1585 38.2292 25.8822C38.2556 25.6059 38.3907 25.3513 38.6054 25.1724L39.4238 24.5034C39.8081 24.1819 40.0675 23.7386 40.1575 23.2491L40.3268 22.2174C40.5049 21.2427 41.0231 20.3604 41.7912 19.7238C42.5594 19.0873 43.529 18.7368 44.5316 18.733H45.5758C46.0841 18.7425 46.5774 18.5636 46.9586 18.2314L47.777 17.5624C48.5713 16.9177 49.5711 16.5718 50.599 16.5865C50.4687 15.5059 49.9354 14.5121 49.1034 13.7989L47.7205 12.6562C46.5562 11.7011 45.7756 10.3662 45.5194 8.89276L45.2089 7.13692C45.0298 6.15012 44.5045 5.25707 43.7253 4.61476C42.946 3.97246 41.9626 3.62192 40.9477 3.62455H39.1698C37.6496 3.6272 36.1784 3.09325 35.0214 2.11916L33.6386 1.00372C32.8535 0.340201 31.8497 -0.0163495 30.8166 0.000576063C29.7856 -0.00389542 28.7861 0.351139 27.9946 1.00372L26.64 2.11916C25.483 3.09325 24.0118 3.6272 22.4916 3.62455H20.7137C19.6988 3.62192 18.7154 3.97246 17.9361 4.61476C17.1569 5.25707 16.6316 6.15012 16.4525 7.13692L16.2832 8.05635C16.3241 8.23058 16.3241 8.41228 16.2832 8.5865V8.89276C16.2284 9.16508 16.0676 9.40534 15.8354 9.56175C15.6032 9.71815 15.3181 9.77832 15.0415 9.72916C14.7923 9.68817 14.5675 9.55683 14.411 9.36098C14.2544 9.16513 14.1774 8.91846 14.1948 8.66953C13.9514 8.57446 13.6942 8.51853 13.4329 8.5028C12.9741 8.50428 12.5319 8.67281 12.1912 8.97647L11.4011 9.61755C10.6574 10.2097 9.73177 10.5344 8.77656 10.5377H7.78887C7.32682 10.5384 6.88007 10.7015 6.52853 10.9977C6.17698 11.2939 5.94353 11.7034 5.86987 12.154L5.67235 13.1299C5.50415 14.0544 5.0152 14.8925 4.28954 15.4996L3.52758 16.1407C3.30436 16.3181 3.12485 16.5429 3.00263 16.7988C2.88041 17.0547 2.81868 17.3352 2.82207 17.6182C2.82262 17.9593 2.90994 18.2944 3.07605 18.5934L3.41472 19.1508C3.98055 18.8541 4.6086 18.6921 5.24902 18.6771H6.3214C6.82874 18.6814 7.32025 18.5032 7.70417 18.1756L8.52258 17.5066C8.68137 17.3882 8.85148 17.2852 9.03053 17.1997C9.02514 16.2678 9.23003 15.3464 9.63032 14.5026C10.0306 13.6588 10.6162 12.9137 11.3446 12.3214C11.4394 12.2236 11.5534 12.1459 11.6795 12.0927C11.8055 12.0396 11.9412 12.0124 12.0783 12.0124C12.2154 12.0124 12.3511 12.0396 12.4772 12.0927C12.6033 12.1459 12.7172 12.2236 12.8121 12.3214C12.9119 12.4175 12.9912 12.5328 13.0454 12.6596C13.0996 12.7865 13.1275 12.9228 13.1275 13.0605C13.1275 13.1982 13.0996 13.3345 13.0454 13.4613C12.9912 13.5882 12.9119 13.7028 12.8121 13.7989C11.9688 14.5033 11.4331 15.5017 11.3164 16.5865C12.3451 16.5668 13.3467 16.9134 14.1384 17.5624" fill="#F5CB58"/>
<path d="M56.0737 12.0988C55.9948 11.6506 55.7599 11.2432 55.4095 10.948C55.0591 10.6528 54.6153 10.4881 54.1548 10.4818H53.1388C52.1836 10.4785 51.258 10.1539 50.5144 9.56168L49.7524 8.92059C49.3885 8.5932 48.918 8.40548 48.426 8.39111C48.2311 8.34598 48.0283 8.34598 47.8334 8.39111C48.0076 9.35784 48.5164 10.2345 49.2727 10.8717L50.6554 12.0151C51.3793 12.6112 51.9618 13.3567 52.3616 14.1997C52.7615 15.0426 52.969 15.9624 52.9695 16.8933V17.0601C53.138 17.1267 53.2988 17.2111 53.4493 17.3112L54.2676 17.9802C54.6415 18.3059 55.1237 18.4843 55.6222 18.4818H56.6946C57.3354 18.4936 57.9642 18.6565 58.5289 18.9561L58.8675 18.3987C59.0336 18.0997 59.121 17.7639 59.1215 17.4228C59.1244 17.1427 59.0652 16.8654 58.9482 16.6102C58.8313 16.355 58.6593 16.128 58.4443 15.9453L57.6541 15.3042C56.9284 14.6971 56.4395 13.8591 56.2713 12.9345L56.0737 12.0988Z" fill="#F5CB58"/>
<path d="M42.1894 43.6817C42.913 42.8771 43.7606 42.1904 44.701 41.6468C44.3507 41.356 44.0546 41.0073 43.8261 40.6157L43.2899 39.6956C43.0327 39.2693 42.6338 38.944 42.1611 38.7755L41.0888 38.2903C40.8033 38.656 40.5616 38.977 40.1011 39.2655C39.9428 39.3647 39.8439 39.5197 39.6777 39.5839C39.5116 39.6482 39.4802 39.6956 39.4802 39.6956L39.1416 39.9189C38.507 40.4025 37.938 40.9642 37.4484 41.591C35.4933 44.2412 34.3299 47.3799 34.0901 50.6506C34.0749 50.8148 34.0177 50.9728 33.9239 51.1093C33.8301 51.2458 33.7028 51.3565 33.554 51.4312C32.7855 51.7685 31.9539 51.943 31.1129 51.943C30.272 51.943 29.4403 51.7685 28.6719 51.4312C28.5107 51.3664 28.3704 51.2597 28.2661 51.1222C28.1617 50.9847 28.0971 50.8215 28.0792 50.6506C27.8256 47.1991 26.5388 43.9004 24.3824 41.1731C23.8241 40.5386 23.1781 39.9847 22.4634 39.5282C21.9254 39.1375 21.4248 38.699 20.9677 38.2181L19.9518 38.5809C19.4919 38.7586 19.1048 39.0817 18.8512 39.5003L18.315 40.4204C18.0865 40.812 17.7905 41.1607 17.4402 41.4515C18.3713 41.9963 19.2094 42.6837 19.9236 43.487C22.7456 46.4697 25.1443 52.1285 25.3983 63H36.6864C36.9968 52.2121 39.5366 46.6365 42.1894 43.6817Z" fill="#F5CB58"/>
<path d="M19.1899 36.8244L20.1776 36.4624C20.5893 36.3143 20.9452 36.0451 21.1974 35.6913C21.4497 35.3375 21.5862 34.9154 21.5886 34.4826V34.1206L21.391 33.0609V32.3089C21.3941 31.5757 21.5885 30.8556 21.9554 30.2182L22.4916 29.2981C22.6793 28.9761 22.7768 28.6101 22.7738 28.2385C22.7735 27.9305 22.7051 27.6269 22.5735 27.3476C22.4419 27.0684 22.2502 26.8208 22.0119 26.6222L21.1935 25.9532C20.4335 25.319 19.9239 24.4402 19.7543 23.4719L19.5567 22.4408C19.4711 21.9533 19.2153 21.5107 18.8339 21.1899C18.4524 20.8692 17.9693 20.69 17.4684 20.6843H16.396C15.3657 20.7142 14.3606 20.3671 13.574 19.7091L12.7556 19.0401C12.3717 18.7124 11.8802 18.5336 11.3728 18.5378C10.8752 18.5403 10.3948 18.7187 10.0183 19.0401L9.1999 19.7091C8.41069 20.3625 7.40738 20.709 6.37787 20.6843H5.30549C4.80456 20.69 4.32148 20.8692 3.94003 21.1899C3.55859 21.5107 3.30283 21.9533 3.21717 22.4408L3.01965 23.4719C2.84997 24.4402 2.34038 25.319 1.58039 25.9532L0.762023 26.6222C0.523673 26.8208 0.332018 27.0684 0.200425 27.3476C0.0688313 27.6269 0.000452139 27.9305 6.31954e-05 28.2385C-0.00284373 28.6101 0.0945844 28.9761 0.282283 29.2981L0.818475 30.2182C1.18542 30.8556 1.3798 31.5757 1.38287 32.3089V33.0337L1.18531 34.0927V34.4547C1.18362 34.8884 1.31854 35.3122 1.57135 35.6668C1.82416 36.0214 2.18235 36.2899 2.59632 36.4345L3.58405 36.7965C4.52738 37.1243 5.31908 37.7774 5.81343 38.6361L6.34963 39.5562C6.53967 39.8758 6.81229 40.1399 7.13957 40.3211C7.46685 40.5024 7.83703 40.5945 8.21217 40.5879H8.94589L9.93361 40.2252C10.3953 40.0608 10.8821 39.9764 11.3728 39.9747C11.873 39.9743 12.3694 40.0588 12.8403 40.2252L13.828 40.5879H14.5617C14.9369 40.5945 15.3071 40.5024 15.6343 40.3211C15.9616 40.1399 16.2342 39.8758 16.4243 39.5562L16.9605 38.6361C17.452 37.7812 18.246 37.1362 19.1899 36.8244Z" fill="#F5CB58"/>
</svg>
