<svg width="77" height="84" viewBox="0 0 77 84" fill="none" xmlns="http://www.w3.org/2000/svg">
<path d="M16.5835 33.7838L65.3836 17.5338C66.6855 17.0979 67.7616 16.1638 68.3764 14.9362C68.9911 13.7085 69.0943 12.2874 68.6635 10.9838C68.198 9.58713 67.462 8.29588 66.4975 7.18371C65.5329 6.07155 64.3588 5.1602 63.042 4.50183C61.7253 3.84346 60.2917 3.4509 58.8233 3.34656C57.3548 3.24221 55.8802 3.4281 54.4836 3.89367L13.0335 17.6937C10.2126 18.6341 7.8805 20.6558 6.54923 23.3146C5.21796 25.9734 4.99646 29.052 5.93351 31.8739L7.57352 36.7838M7.50351 21.7737L25.6735 30.7537M24.5635 13.8537L45.2835 24.2237M41.7435 8.13367L62.4635 18.5037M31.7035 48.7437V59.3038C31.718 59.9988 31.9134 60.678 32.2704 61.2745C32.6274 61.8709 33.1337 62.364 33.7394 62.7051C34.345 63.0463 35.0291 63.2238 35.7242 63.22C36.4194 63.2163 37.1016 63.0314 37.7035 62.6837L46.3936 57.4136C46.9658 57.0534 47.4373 56.5539 47.7642 55.962C48.091 55.37 48.2623 54.7048 48.2623 54.0286C48.2623 53.3524 48.091 52.6875 47.7642 52.0955C47.4373 51.5036 46.9658 51.0039 46.3936 50.6436L37.7035 45.3638C37.1016 45.0161 36.4194 44.8312 35.7242 44.8275C35.0291 44.8237 34.345 45.0012 33.7394 45.3423C33.1337 45.6835 32.6274 46.1765 32.2704 46.773C31.9134 47.3695 31.718 48.0487 31.7035 48.7437ZM69.9635 37.0836C69.1998 36.1295 68.2278 35.363 67.1218 34.8429C66.0159 34.3229 64.8054 34.0632 63.5835 34.0836H13.9035C12.4706 34.0764 11.0602 34.4411 9.81041 35.1422C8.56064 35.8434 7.51426 36.8569 6.77354 38.0836C4.25354 42.3436 3.42354 47.4336 3.27354 52.0836C3.01354 59.9936 3.1735 69.9836 11.4835 75.3136C18.9035 80.0636 29.3435 81.1435 38.4835 81.1635C52.4835 81.1635 70.3635 78.7535 73.0835 65.4135C74.6935 57.2935 75.5535 44.3436 69.9635 37.0836Z" stroke="#E95322" stroke-width="5" stroke-linecap="round" stroke-linejoin="round"/>
</svg>
