<svg width="76" height="70" viewBox="0 0 76 70" fill="none" xmlns="http://www.w3.org/2000/svg">
<path d="M42.6505 46.833C44.1867 45.2995 45.4056 43.4782 46.2372 41.4731C47.0688 39.4681 47.4968 37.3186 47.4968 35.1479C47.4968 32.9773 47.0688 30.8281 46.2372 28.823C45.4056 26.8179 44.1867 24.9964 42.6505 23.4629M51.7505 55.6531C57.1853 50.215 60.2383 42.8414 60.2383 35.1531C60.2383 27.4648 57.1853 20.0911 51.7505 14.6531M59.2704 67.1929C63.4835 62.9864 66.826 57.9907 69.1064 52.4912C71.3869 46.9917 72.5607 41.0966 72.5607 35.1431C72.5607 29.1895 71.3869 23.2944 69.1064 17.7949C66.826 12.2955 63.4835 7.29951 59.2704 3.09302M24.5705 52.6531C25.2199 53.1847 25.9991 53.534 26.8281 53.6651C27.6571 53.7961 28.506 53.7041 29.2877 53.3987C30.0695 53.0933 30.756 52.5855 31.2766 51.9273C31.7973 51.269 32.1334 50.4842 32.2505 49.6531C32.8324 44.8421 33.1096 39.9991 33.0804 35.1531C33.1141 30.317 32.8369 25.4834 32.2505 20.6829C32.1345 19.85 31.7985 19.0632 31.2772 18.4033C30.7559 17.7435 30.0682 17.2346 29.2848 16.929C28.5014 16.6234 27.6506 16.532 26.8203 16.6646C25.9899 16.7971 25.2098 17.1486 24.5605 17.6829L13.4205 26.783C11.7991 28.1116 9.76671 28.8362 7.67047 28.833H5.04047C4.18047 28.833 3.48047 31.6631 3.48047 35.1431V35.2529C3.48047 38.7429 4.18047 41.563 5.04047 41.563H7.72046C9.80332 41.5527 11.8264 42.2589 13.4504 43.563L24.5705 52.6531Z" stroke="#E95322" stroke-width="5" stroke-linecap="round" stroke-linejoin="round"/>
</svg>
