<svg width="81" height="80" viewBox="0 0 81 80" fill="none" xmlns="http://www.w3.org/2000/svg">
<path d="M75.6941 52.7117C73.8433 57.393 71.0499 61.6453 67.4867 65.2053C61.6153 71.0755 53.9284 74.7914 45.6749 75.7495C37.4213 76.7076 29.0858 74.8517 22.022 70.4832C21.5853 70.2 21.0707 70.061 20.5506 70.0857C20.0305 70.1104 19.5312 70.2977 19.1235 70.621C15.7006 73.3771 6.85335 79.9917 3.81685 76.96C0.780353 73.9283 7.29505 64.971 10.0555 61.5259C10.369 61.1184 10.5479 60.6238 10.5677 60.1104C10.5875 59.5969 10.4471 59.09 10.1659 58.6597C5.54792 51.2477 3.723 42.4368 5.01781 33.8041C6.31262 25.1714 10.6426 17.2807 17.2326 11.5446C23.9555 5.71133 32.5625 2.49902 41.4693 2.49902C50.3762 2.49902 58.9833 5.71133 65.7062 11.5446C69.4975 14.8613 72.5667 18.9197 74.7238 23.4685C76.8809 28.0172 78.0799 32.9595 78.2468 37.9896C78.4137 43.0197 77.545 48.0304 75.6941 52.7117Z" stroke="#E95322" stroke-width="4.36703" stroke-linecap="round" stroke-linejoin="round"/>
</svg>
