<svg width="79" height="78" viewBox="0 0 79 78" fill="none" xmlns="http://www.w3.org/2000/svg">
<path d="M24.0439 27.8477C27.6841 27.845 31.2887 28.5599 34.6523 29.9514C38.016 31.3429 41.0725 33.3838 43.647 35.9573C46.2214 38.5308 48.2635 41.5865 49.6562 44.9497C51.049 48.3129 51.765 51.9175 51.7637 55.5576M24.0439 16.5576C34.3874 16.5576 44.3072 20.6666 51.6211 27.9805C58.935 35.2944 63.0439 45.2142 63.0439 55.5576M23.1938 39.4678C25.3072 39.4665 27.3998 39.8816 29.3525 40.6897C31.3053 41.4978 33.0799 42.6831 34.5742 44.1775C36.0686 45.6719 37.2534 47.446 38.0615 49.3987C38.8697 51.3514 39.285 53.4443 39.2837 55.5576M21.9736 49.8677C23.4827 49.8677 24.93 50.4671 25.9971 51.5342C27.0642 52.6013 27.6636 54.0485 27.6636 55.5576M39.4935 74.5777C39.4935 74.5777 64.7138 76.4278 73.5638 53.1278C77.0238 43.9256 77.0238 33.7799 73.5638 24.5777C64.7138 1.27771 39.4935 3.12776 39.4935 3.12776C39.4935 3.12776 14.2834 1.27771 5.43342 24.5777C1.97336 33.7799 1.97336 43.9256 5.43342 53.1278C14.2834 76.4278 39.4935 74.5777 39.4935 74.5777Z" stroke="#E95322" stroke-width="5" stroke-linecap="round" stroke-linejoin="round"/>
</svg>
