<svg width="57" height="60" viewBox="0 0 57 60" fill="none" xmlns="http://www.w3.org/2000/svg">
<path d="M26.762 17.2653L36.4021 5.26531C37.5986 3.79248 39.3294 2.85301 41.2163 2.65252C43.1032 2.45202 44.9927 3.00673 46.4719 4.19524C47.9425 5.39323 48.8802 7.1238 49.0806 9.00994C49.281 10.8961 48.728 12.785 47.542 14.2653L37.9021 26.2653M7.36204 57.1653H53.842M26.8722 17.0855L5.69224 43.3055L3.10215 51.7754C2.86019 52.5685 2.86086 53.4158 3.10386 54.2085C3.34686 55.0013 3.82108 55.7034 4.46592 56.2247C5.11076 56.7459 5.89667 57.0624 6.72276 57.1338C7.54884 57.2053 8.37742 57.0281 9.10215 56.6253L16.8321 52.3055L38.0021 26.0855C38.5943 25.3546 39.0367 24.514 39.3036 23.6119C39.5704 22.7098 39.6564 21.7639 39.557 20.8284C39.4576 19.8929 39.1747 18.9861 38.7242 18.1602C38.2738 17.3343 37.6649 16.6055 36.9322 16.0154C36.2016 15.4247 35.3617 14.9838 34.4605 14.7178C33.5594 14.4519 32.6146 14.366 31.6803 14.4654C30.746 14.5647 29.8405 14.8474 29.0155 15.2969C28.1905 15.7465 27.4622 16.3543 26.8722 17.0855Z" stroke="#E95322" stroke-width="5" stroke-linecap="round" stroke-linejoin="round"/>
</svg>
