<svg width="66" height="65" viewBox="0 0 66 65" fill="none" xmlns="http://www.w3.org/2000/svg">
<path d="M36.6708 28.9271H20.5608M60.8509 53.767L49.3208 46.027C49.0019 45.8153 48.6203 45.7187 48.239 45.7535C47.8578 45.7884 47.4997 45.9524 47.2244 46.2184C46.9491 46.4844 46.7728 46.8366 46.7249 47.2164C46.6769 47.5962 46.7604 47.9809 46.961 48.307L54.2808 60.1171C54.6396 60.6731 55.1054 61.1523 55.6509 61.527C56.6799 62.2165 57.9408 62.4692 59.156 62.2291C60.3713 61.9891 61.4413 61.276 62.1309 60.2469C62.8204 59.2179 63.0728 57.9571 62.8328 56.7418C62.5927 55.5266 61.8799 54.4565 60.8509 53.767ZM28.6109 53.0571C28.6109 53.0571 46.231 54.3571 52.411 38.0571C54.821 31.6289 54.821 24.5453 52.411 18.1171C46.231 1.83713 28.6109 3.11713 28.6109 3.11713C28.6109 3.11713 11.0009 1.82713 4.82091 18.1171C2.40084 24.5435 2.40084 31.6307 4.82091 38.0571C11.0009 54.3571 28.6109 53.0571 28.6109 53.0571Z" stroke="#E95322" stroke-width="5" stroke-linecap="round" stroke-linejoin="round"/>
</svg>
