<svg width="66" height="65" viewBox="0 0 66 65" fill="none" xmlns="http://www.w3.org/2000/svg">
<path d="M28.7376 20.9671V37.0771M36.7876 28.9271H20.6776M60.9377 53.767L49.3976 46.027C49.0787 45.8153 48.6968 45.7187 48.3156 45.7535C47.9344 45.7884 47.5765 45.9524 47.3012 46.2184C47.0259 46.4844 46.8496 46.8366 46.8017 47.2164C46.7537 47.5962 46.8369 47.9809 47.0375 48.307L54.3676 60.1171C54.719 60.6757 55.1821 61.1557 55.7277 61.527C56.7568 62.2179 58.0179 62.4717 59.2341 62.2325C60.4502 61.9934 61.5217 61.2811 62.2126 60.2521C62.9035 59.223 63.1572 57.9617 62.9181 56.7455C62.679 55.5293 61.9667 54.4579 60.9377 53.767ZM28.7376 53.0571C28.7376 53.0571 46.3474 54.3571 52.5274 38.0571C54.9474 31.6307 54.9474 24.5435 52.5274 18.1171C46.3474 1.83713 28.7376 3.11713 28.7376 3.11713C28.7376 3.11713 11.1175 1.82713 4.93754 18.1171C2.52749 24.5453 2.52749 31.6289 4.93754 38.0571C11.1175 54.3571 28.7376 53.0571 28.7376 53.0571Z" stroke="#E95322" stroke-width="5" stroke-linecap="round" stroke-linejoin="round"/>
</svg>
